G04*
G04 #@! TF.GenerationSoftware,Altium Limited,Altium Designer,20.1.14 (287)*
G04*
G04 Layer_Color=8388736*
%FSLAX25Y25*%
%MOIN*%
G70*
G04*
G04 #@! TF.SameCoordinates,C6E2488E-A08A-4CE9-B207-DE92606EBE29*
G04*
G04*
G04 #@! TF.FilePolarity,Negative*
G04*
G01*
G75*
%ADD35R,0.01968X0.02362*%
G04:AMPARAMS|DCode=36|XSize=19.68mil|YSize=23.62mil|CornerRadius=0mil|HoleSize=0mil|Usage=FLASHONLY|Rotation=0.000|XOffset=0mil|YOffset=0mil|HoleType=Round|Shape=Octagon|*
%AMOCTAGOND36*
4,1,8,-0.00492,0.01181,0.00492,0.01181,0.00984,0.00689,0.00984,-0.00689,0.00492,-0.01181,-0.00492,-0.01181,-0.00984,-0.00689,-0.00984,0.00689,-0.00492,0.01181,0.0*
%
%ADD36OCTAGOND36*%

%ADD37R,0.02362X0.01968*%
G04:AMPARAMS|DCode=38|XSize=19.68mil|YSize=23.62mil|CornerRadius=0mil|HoleSize=0mil|Usage=FLASHONLY|Rotation=90.000|XOffset=0mil|YOffset=0mil|HoleType=Round|Shape=Octagon|*
%AMOCTAGOND38*
4,1,8,-0.01181,-0.00492,-0.01181,0.00492,-0.00689,0.00984,0.00689,0.00984,0.01181,0.00492,0.01181,-0.00492,0.00689,-0.00984,-0.00689,-0.00984,-0.01181,-0.00492,0.0*
%
%ADD38OCTAGOND38*%

%ADD70R,0.03162X0.05524*%
%ADD71R,0.03162X0.09068*%
G04:AMPARAMS|DCode=72|XSize=78.87mil|YSize=126.11mil|CornerRadius=0mil|HoleSize=0mil|Usage=FLASHONLY|Rotation=180.000|XOffset=0mil|YOffset=0mil|HoleType=Round|Shape=Octagon|*
%AMOCTAGOND72*
4,1,8,0.01972,-0.06306,-0.01972,-0.06306,-0.03943,-0.04334,-0.03943,0.04334,-0.01972,0.06306,0.01972,0.06306,0.03943,0.04334,0.03943,-0.04334,0.01972,-0.06306,0.0*
%
%ADD72OCTAGOND72*%

%ADD73R,0.03800X0.03800*%
%ADD74R,0.02375X0.02769*%
%ADD75R,0.02808X0.03162*%
%ADD76C,0.03753*%
%ADD77R,0.03750X0.01500*%
%ADD78R,0.01500X0.03750*%
%ADD79R,0.11430X0.07490*%
%ADD80R,0.02769X0.02375*%
%ADD81R,0.01981X0.05288*%
%ADD82R,0.06935X0.03550*%
%ADD83R,0.03800X0.03300*%
%ADD84R,0.16548X0.16548*%
%ADD85R,0.01187X0.03018*%
%ADD86R,0.03018X0.01187*%
%ADD87R,0.03162X0.02808*%
G04:AMPARAMS|DCode=88|XSize=49.34mil|YSize=45.4mil|CornerRadius=0mil|HoleSize=0mil|Usage=FLASHONLY|Rotation=270.000|XOffset=0mil|YOffset=0mil|HoleType=Round|Shape=Octagon|*
%AMOCTAGOND88*
4,1,8,-0.01135,-0.02467,0.01135,-0.02467,0.02270,-0.01332,0.02270,0.01332,0.01135,0.02467,-0.01135,0.02467,-0.02270,0.01332,-0.02270,-0.01332,-0.01135,-0.02467,0.0*
%
%ADD88OCTAGOND88*%

%ADD89R,0.04540X0.04934*%
%ADD90R,0.03550X0.01975*%
%ADD91R,0.01778X0.03550*%
%ADD92R,0.03300X0.03800*%
%ADD93R,0.01502X0.03057*%
%ADD94R,0.03057X0.01502*%
%ADD95R,0.04500X0.04500*%
%ADD96R,0.02000X0.04000*%
%ADD97R,0.04000X0.02000*%
%ADD98R,0.01745X0.01824*%
%ADD99R,0.01194X0.01194*%
G04:AMPARAMS|DCode=100|XSize=11.94mil|YSize=17.25mil|CornerRadius=0mil|HoleSize=0mil|Usage=FLASHONLY|Rotation=225.000|XOffset=0mil|YOffset=0mil|HoleType=Round|Shape=Rectangle|*
%AMROTATEDRECTD100*
4,1,4,-0.00188,0.01032,0.01032,-0.00188,0.00188,-0.01032,-0.01032,0.00188,-0.00188,0.01032,0.0*
%
%ADD100ROTATEDRECTD100*%

%ADD101R,0.01233X0.02335*%
%ADD102R,0.01824X0.01745*%
%ADD103P,0.04027X4X270.0*%
G04:AMPARAMS|DCode=104|XSize=17.25mil|YSize=11.94mil|CornerRadius=0mil|HoleSize=0mil|Usage=FLASHONLY|Rotation=225.000|XOffset=0mil|YOffset=0mil|HoleType=Round|Shape=Rectangle|*
%AMROTATEDRECTD104*
4,1,4,0.00188,0.01032,0.01032,0.00188,-0.00188,-0.01032,-0.01032,-0.00188,0.00188,0.01032,0.0*
%
%ADD104ROTATEDRECTD104*%

%ADD105R,0.03800X0.03800*%
G04:AMPARAMS|DCode=106|XSize=39.5mil|YSize=35.56mil|CornerRadius=0mil|HoleSize=0mil|Usage=FLASHONLY|Rotation=0.000|XOffset=0mil|YOffset=0mil|HoleType=Round|Shape=Octagon|*
%AMOCTAGOND106*
4,1,8,0.01975,-0.00889,0.01975,0.00889,0.01086,0.01778,-0.01086,0.01778,-0.01975,0.00889,-0.01975,-0.00889,-0.01086,-0.01778,0.01086,-0.01778,0.01975,-0.00889,0.0*
%
%ADD106OCTAGOND106*%

%ADD107R,0.03950X0.03556*%
%ADD108R,0.05524X0.04737*%
%ADD109R,0.04147X0.02178*%
%ADD110R,0.06706X0.05300*%
%ADD111C,0.01476*%
%ADD112C,0.03359*%
%ADD113O,0.04737X0.08674*%
%ADD114O,0.04343X0.07887*%
%ADD115C,0.02375*%
%ADD116C,0.02400*%
D35*
X9772Y87526D02*
D03*
D36*
X6229D02*
D03*
D37*
X5000Y8272D02*
D03*
D38*
Y4728D02*
D03*
D70*
X12595Y12807D02*
D03*
X24406D02*
D03*
D71*
X18500Y14500D02*
D03*
D72*
Y24300D02*
D03*
D73*
X5000Y25418D02*
D03*
Y20300D02*
D03*
D74*
X3728Y30100D02*
D03*
X7271Y30100D02*
D03*
X91347Y27500D02*
D03*
X88000D02*
D03*
X77846Y32000D02*
D03*
X74500D02*
D03*
X78043Y27500D02*
D03*
X74500Y27500D02*
D03*
X32457Y81500D02*
D03*
X36000Y81500D02*
D03*
X34728Y43500D02*
D03*
X38271Y43500D02*
D03*
X34500Y34500D02*
D03*
X31154Y34500D02*
D03*
X67347Y34500D02*
D03*
X64000Y34500D02*
D03*
X14154Y87500D02*
D03*
X17500Y87500D02*
D03*
X7075Y38400D02*
D03*
X3729Y38400D02*
D03*
X7075Y34250D02*
D03*
X3729D02*
D03*
X83043Y89500D02*
D03*
X79500Y89500D02*
D03*
D75*
X82772Y121850D02*
D03*
X79228D02*
D03*
X15972Y127800D02*
D03*
X12428D02*
D03*
X15972Y124300D02*
D03*
X12428Y124300D02*
D03*
X72000Y98400D02*
D03*
X68457D02*
D03*
X79228Y125633D02*
D03*
X82772D02*
D03*
Y135000D02*
D03*
X79228D02*
D03*
X74043Y135000D02*
D03*
X70500D02*
D03*
X63000D02*
D03*
X66543D02*
D03*
X70772Y115850D02*
D03*
X67228D02*
D03*
X82772Y118067D02*
D03*
X79228D02*
D03*
X82772Y110500D02*
D03*
X79228D02*
D03*
X12402Y131327D02*
D03*
X15945D02*
D03*
X12402Y113327D02*
D03*
X15945Y113327D02*
D03*
X12402Y109827D02*
D03*
X15945D02*
D03*
X12402Y106327D02*
D03*
X15945Y106327D02*
D03*
X82772Y114283D02*
D03*
X79228D02*
D03*
X82772Y131167D02*
D03*
X79228D02*
D03*
X63000Y131000D02*
D03*
X66543D02*
D03*
X67228Y112100D02*
D03*
X70772D02*
D03*
X74043Y125633D02*
D03*
X70500D02*
D03*
X67228Y120400D02*
D03*
X70772D02*
D03*
X70500Y131000D02*
D03*
X74043D02*
D03*
D76*
X74902Y117327D02*
D03*
D77*
X52360Y95950D02*
D03*
X34640D02*
D03*
Y90040D02*
D03*
X52360D02*
D03*
D78*
X50380Y99880D02*
D03*
X48410D02*
D03*
X46450D02*
D03*
X44480D02*
D03*
X42510D02*
D03*
X40540D02*
D03*
X38570D02*
D03*
X36600D02*
D03*
Y86100D02*
D03*
X38570D02*
D03*
X40550Y86110D02*
D03*
X42520D02*
D03*
X44480D02*
D03*
X46450D02*
D03*
X48420D02*
D03*
X50390D02*
D03*
D79*
X43500Y93000D02*
D03*
D80*
X58000Y97671D02*
D03*
X58000Y94128D02*
D03*
X5000Y15271D02*
D03*
X5000Y11925D02*
D03*
X94000Y49000D02*
D03*
X94000Y45457D02*
D03*
X88400Y49000D02*
D03*
X88400Y45457D02*
D03*
X42500Y43575D02*
D03*
X42500Y40229D02*
D03*
X46833Y43575D02*
D03*
Y40229D02*
D03*
X71500Y60728D02*
D03*
X71500Y64271D02*
D03*
X76100Y60728D02*
D03*
X76100Y64271D02*
D03*
X80600Y60728D02*
D03*
X80600Y64271D02*
D03*
X51167Y40228D02*
D03*
X51167Y43771D02*
D03*
X55500Y40228D02*
D03*
X55500Y43771D02*
D03*
X80000Y40457D02*
D03*
X80000Y44000D02*
D03*
X60500Y40457D02*
D03*
X60500Y44000D02*
D03*
X23090Y54654D02*
D03*
Y58000D02*
D03*
X5091Y58147D02*
D03*
X5091Y54800D02*
D03*
X21229Y82872D02*
D03*
X21228Y79329D02*
D03*
X25872Y82872D02*
D03*
X25871Y79329D02*
D03*
X76250Y72075D02*
D03*
X76250Y68729D02*
D03*
X80500Y72075D02*
D03*
X80500Y68729D02*
D03*
X72000Y72075D02*
D03*
Y68729D02*
D03*
X5100Y50572D02*
D03*
X5100Y47029D02*
D03*
X27500Y44272D02*
D03*
X27500Y40729D02*
D03*
X87000Y78925D02*
D03*
Y82271D02*
D03*
X66800Y87443D02*
D03*
X66800Y83900D02*
D03*
X58000Y90272D02*
D03*
X58000Y86729D02*
D03*
X30000Y94575D02*
D03*
Y91229D02*
D03*
D81*
X48394Y27213D02*
D03*
X46425D02*
D03*
X44457D02*
D03*
X42488D02*
D03*
X40520D02*
D03*
X39339D02*
D03*
X37370D02*
D03*
X36189D02*
D03*
X50362D02*
D03*
X52331D02*
D03*
X54299D02*
D03*
X56268D02*
D03*
X58236D02*
D03*
X59417D02*
D03*
X61386D02*
D03*
X62567D02*
D03*
D82*
X92400Y57898D02*
D03*
Y70103D02*
D03*
D83*
X88900Y53200D02*
D03*
X93900D02*
D03*
D84*
X45000Y63500D02*
D03*
D85*
X55236Y50085D02*
D03*
X53662D02*
D03*
X52087D02*
D03*
X50512D02*
D03*
X48937D02*
D03*
X47362D02*
D03*
X45788D02*
D03*
X44213D02*
D03*
X42638D02*
D03*
X41063D02*
D03*
X39488D02*
D03*
X37914D02*
D03*
X36339D02*
D03*
X34764D02*
D03*
X34764Y76916D02*
D03*
X36339Y76916D02*
D03*
X37914Y76916D02*
D03*
X39488Y76916D02*
D03*
X41063Y76916D02*
D03*
X42638D02*
D03*
X44213Y76916D02*
D03*
X45788D02*
D03*
X47362Y76916D02*
D03*
X48937Y76916D02*
D03*
X50512Y76916D02*
D03*
X52087D02*
D03*
X53662Y76916D02*
D03*
X55236Y76916D02*
D03*
D86*
X31585Y53264D02*
D03*
X31585Y54839D02*
D03*
Y56414D02*
D03*
Y57988D02*
D03*
Y59563D02*
D03*
Y61138D02*
D03*
Y62713D02*
D03*
Y64288D02*
D03*
Y65862D02*
D03*
Y67437D02*
D03*
Y69012D02*
D03*
Y70587D02*
D03*
Y72162D02*
D03*
X31585Y73736D02*
D03*
X58416D02*
D03*
X58416Y72162D02*
D03*
X58416Y70587D02*
D03*
X58416Y69012D02*
D03*
Y67437D02*
D03*
Y65862D02*
D03*
Y64288D02*
D03*
Y62713D02*
D03*
X58416Y61138D02*
D03*
X58416Y59563D02*
D03*
Y57988D02*
D03*
Y56414D02*
D03*
Y54839D02*
D03*
X58416Y53264D02*
D03*
D87*
X57000Y102028D02*
D03*
Y105572D02*
D03*
X60625Y102028D02*
D03*
Y105572D02*
D03*
X64250Y102028D02*
D03*
Y105572D02*
D03*
X67875Y102028D02*
D03*
Y105572D02*
D03*
X71500D02*
D03*
Y102028D02*
D03*
X56673Y131327D02*
D03*
Y134870D02*
D03*
X48673Y131327D02*
D03*
Y134870D02*
D03*
X52673Y131327D02*
D03*
Y134870D02*
D03*
D88*
X82000Y98300D02*
D03*
D89*
X77000D02*
D03*
X77000Y105584D02*
D03*
X82000Y105583D02*
D03*
D90*
X5881Y79224D02*
D03*
Y76075D02*
D03*
Y72925D02*
D03*
Y69776D02*
D03*
X16117D02*
D03*
Y72925D02*
D03*
Y76075D02*
D03*
Y79224D02*
D03*
D91*
X11000Y77658D02*
D03*
X11000Y71358D02*
D03*
D92*
X66500Y59000D02*
D03*
Y64000D02*
D03*
D93*
X78468Y76514D02*
D03*
X76500D02*
D03*
X74531D02*
D03*
Y84486D02*
D03*
X76500D02*
D03*
X78468D02*
D03*
D94*
X71531Y77547D02*
D03*
Y79516D02*
D03*
Y81484D02*
D03*
Y83453D02*
D03*
X81468D02*
D03*
Y81484D02*
D03*
Y79516D02*
D03*
Y77547D02*
D03*
D95*
X17000Y43500D02*
D03*
D96*
X14047Y49200D02*
D03*
X16016D02*
D03*
X17984D02*
D03*
X19953D02*
D03*
Y37800D02*
D03*
X17984Y37800D02*
D03*
X16016D02*
D03*
X14047Y37800D02*
D03*
D97*
X22700Y46453D02*
D03*
Y44484D02*
D03*
Y42516D02*
D03*
X22700Y40547D02*
D03*
X11300D02*
D03*
X11300Y42516D02*
D03*
Y44484D02*
D03*
Y46453D02*
D03*
D98*
X16506Y120106D02*
D03*
X12726D02*
D03*
Y117547D02*
D03*
X16506D02*
D03*
D99*
X16585Y120795D02*
D03*
X15955Y120283D02*
D03*
X13278Y117370D02*
D03*
Y120283D02*
D03*
X15955Y117370D02*
D03*
D100*
X15845Y120059D02*
D03*
X13388Y117595D02*
D03*
D101*
X16191Y120421D02*
D03*
X13041Y117232D02*
D03*
Y120421D02*
D03*
X16191Y117232D02*
D03*
D102*
X15896Y120717D02*
D03*
X13337Y116937D02*
D03*
Y120717D02*
D03*
X15896Y116937D02*
D03*
D103*
X14616Y118827D02*
D03*
D104*
X13388Y120059D02*
D03*
X15845Y117595D02*
D03*
D105*
X12182Y5100D02*
D03*
X17300D02*
D03*
D106*
X58693Y34500D02*
D03*
X40154D02*
D03*
D107*
X52000D02*
D03*
X46846D02*
D03*
D108*
X67154Y41441D02*
D03*
X73847D02*
D03*
Y46559D02*
D03*
X67154D02*
D03*
D109*
X17929Y60559D02*
D03*
Y58000D02*
D03*
Y55441D02*
D03*
X10252D02*
D03*
X10252Y58000D02*
D03*
X10252Y60559D02*
D03*
D110*
X76500Y4831D02*
D03*
Y21169D02*
D03*
X90043Y4831D02*
D03*
Y21169D02*
D03*
D111*
X39626Y110252D02*
D03*
Y112221D02*
D03*
Y114189D02*
D03*
Y116157D02*
D03*
X41594Y110252D02*
D03*
Y114189D02*
D03*
Y116157D02*
D03*
X43563Y110252D02*
D03*
X45531D02*
D03*
X51437D02*
D03*
X49468D02*
D03*
X47500D02*
D03*
X57342D02*
D03*
X55374D02*
D03*
X53405D02*
D03*
X61279D02*
D03*
X59311D02*
D03*
X61279Y112221D02*
D03*
Y114189D02*
D03*
Y116157D02*
D03*
Y118126D02*
D03*
X39626D02*
D03*
X61279Y120095D02*
D03*
X39626D02*
D03*
X61279Y122063D02*
D03*
X39626D02*
D03*
X41594Y124031D02*
D03*
X39626D02*
D03*
X61279Y126000D02*
D03*
X41594D02*
D03*
X39626D02*
D03*
X59311D02*
D03*
X53405D02*
D03*
X55374D02*
D03*
X57342D02*
D03*
X47500D02*
D03*
X49468D02*
D03*
X51437D02*
D03*
X45531D02*
D03*
X43563D02*
D03*
D112*
X38000Y23000D02*
D03*
X60756D02*
D03*
D113*
X32350Y24890D02*
D03*
X66405Y24890D02*
D03*
D114*
X32350Y8433D02*
D03*
X66405D02*
D03*
D115*
X3728Y30100D02*
D03*
X73893Y125571D02*
D03*
D116*
X45000Y63500D02*
D03*
X45000Y59564D02*
D03*
X44998Y67436D02*
D03*
X48937Y67438D02*
D03*
X41063D02*
D03*
X48936Y59564D02*
D03*
Y63500D02*
D03*
X41063Y59564D02*
D03*
Y63501D02*
D03*
M02*
