G04*
G04 #@! TF.GenerationSoftware,Altium Limited,Altium Designer,20.1.14 (287)*
G04*
G04 Layer_Color=8421504*
%FSLAX25Y25*%
%MOIN*%
G70*
G04*
G04 #@! TF.SameCoordinates,C6E2488E-A08A-4CE9-B207-DE92606EBE29*
G04*
G04*
G04 #@! TF.FilePolarity,Positive*
G04*
G01*
G75*
%ADD24R,0.02362X0.04724*%
%ADD25R,0.02362X0.08268*%
G04:AMPARAMS|DCode=26|XSize=70.87mil|YSize=118.11mil|CornerRadius=0mil|HoleSize=0mil|Usage=FLASHONLY|Rotation=180.000|XOffset=0mil|YOffset=0mil|HoleType=Round|Shape=Octagon|*
%AMOCTAGOND26*
4,1,8,0.01772,-0.05906,-0.01772,-0.05906,-0.03543,-0.04134,-0.03543,0.04134,-0.01772,0.05906,0.01772,0.05906,0.03543,0.04134,0.03543,-0.04134,0.01772,-0.05906,0.0*
%
%ADD26OCTAGOND26*%

%ADD27R,0.03000X0.03000*%
%ADD28R,0.01575X0.01968*%
%ADD29R,0.02008X0.02362*%
%ADD30C,0.02953*%
%ADD31R,0.03350X0.01100*%
%ADD32R,0.01100X0.03350*%
%ADD33R,0.10630X0.06690*%
%ADD34R,0.01968X0.01575*%
%ADD35R,0.01968X0.02362*%
G04:AMPARAMS|DCode=36|XSize=19.68mil|YSize=23.62mil|CornerRadius=0mil|HoleSize=0mil|Usage=FLASHONLY|Rotation=0.000|XOffset=0mil|YOffset=0mil|HoleType=Round|Shape=Octagon|*
%AMOCTAGOND36*
4,1,8,-0.00492,0.01181,0.00492,0.01181,0.00984,0.00689,0.00984,-0.00689,0.00492,-0.01181,-0.00492,-0.01181,-0.00984,-0.00689,-0.00984,0.00689,-0.00492,0.01181,0.0*
%
%ADD36OCTAGOND36*%

%ADD37R,0.02362X0.01968*%
G04:AMPARAMS|DCode=38|XSize=19.68mil|YSize=23.62mil|CornerRadius=0mil|HoleSize=0mil|Usage=FLASHONLY|Rotation=90.000|XOffset=0mil|YOffset=0mil|HoleType=Round|Shape=Octagon|*
%AMOCTAGOND38*
4,1,8,-0.01181,-0.00492,-0.01181,0.00492,-0.00689,0.00984,0.00689,0.00984,0.01181,0.00492,0.01181,-0.00492,0.00689,-0.00984,-0.00689,-0.00984,-0.01181,-0.00492,0.0*
%
%ADD38OCTAGOND38*%

%ADD39R,0.01181X0.04488*%
%ADD40R,0.06535X0.03150*%
%ADD41R,0.03000X0.02500*%
%ADD42R,0.15748X0.15748*%
%ADD43R,0.00787X0.02618*%
%ADD44R,0.02618X0.00787*%
%ADD45R,0.02362X0.02008*%
G04:AMPARAMS|DCode=46|XSize=41.34mil|YSize=37.4mil|CornerRadius=0mil|HoleSize=0mil|Usage=FLASHONLY|Rotation=270.000|XOffset=0mil|YOffset=0mil|HoleType=Round|Shape=Octagon|*
%AMOCTAGOND46*
4,1,8,-0.00935,-0.02067,0.00935,-0.02067,0.01870,-0.01132,0.01870,0.01132,0.00935,0.02067,-0.00935,0.02067,-0.01870,0.01132,-0.01870,-0.01132,-0.00935,-0.02067,0.0*
%
%ADD46OCTAGOND46*%

%ADD47R,0.03740X0.04134*%
%ADD48R,0.03150X0.01575*%
%ADD49R,0.01378X0.03150*%
%ADD50R,0.02500X0.03000*%
%ADD51R,0.01102X0.02657*%
%ADD52R,0.02657X0.01102*%
%ADD53R,0.03700X0.03700*%
%ADD54R,0.01200X0.03200*%
%ADD55R,0.03200X0.01200*%
%ADD56R,0.00945X0.01024*%
%ADD57R,0.00394X0.00394*%
G04:AMPARAMS|DCode=58|XSize=3.94mil|YSize=9.25mil|CornerRadius=0mil|HoleSize=0mil|Usage=FLASHONLY|Rotation=225.000|XOffset=0mil|YOffset=0mil|HoleType=Round|Shape=Rectangle|*
%AMROTATEDRECTD58*
4,1,4,-0.00188,0.00466,0.00466,-0.00188,0.00188,-0.00466,-0.00466,0.00188,-0.00188,0.00466,0.0*
%
%ADD58ROTATEDRECTD58*%

%ADD59R,0.00433X0.01535*%
%ADD60R,0.01024X0.00945*%
%ADD61P,0.02895X4X270.0*%
G04:AMPARAMS|DCode=62|XSize=9.25mil|YSize=3.94mil|CornerRadius=0mil|HoleSize=0mil|Usage=FLASHONLY|Rotation=225.000|XOffset=0mil|YOffset=0mil|HoleType=Round|Shape=Rectangle|*
%AMROTATEDRECTD62*
4,1,4,0.00188,0.00466,0.00466,0.00188,-0.00188,-0.00466,-0.00466,-0.00188,0.00188,0.00466,0.0*
%
%ADD62ROTATEDRECTD62*%

%ADD63R,0.03000X0.03000*%
G04:AMPARAMS|DCode=64|XSize=31.5mil|YSize=27.56mil|CornerRadius=0mil|HoleSize=0mil|Usage=FLASHONLY|Rotation=0.000|XOffset=0mil|YOffset=0mil|HoleType=Round|Shape=Octagon|*
%AMOCTAGOND64*
4,1,8,0.01575,-0.00689,0.01575,0.00689,0.00886,0.01378,-0.00886,0.01378,-0.01575,0.00689,-0.01575,-0.00689,-0.00886,-0.01378,0.00886,-0.01378,0.01575,-0.00689,0.0*
%
%ADD64OCTAGOND64*%

%ADD65R,0.03150X0.02756*%
%ADD66R,0.04724X0.03937*%
%ADD67R,0.03347X0.01378*%
%ADD68R,0.05906X0.04500*%
%ADD69C,0.01083*%
G36*
X55630Y75607D02*
X54842D01*
Y78225D01*
X55630D01*
Y75607D01*
D02*
G37*
G36*
X54056D02*
X53268D01*
Y78225D01*
X54056D01*
Y75607D01*
D02*
G37*
G36*
X52481D02*
X51693D01*
Y78225D01*
X52481D01*
Y75607D01*
D02*
G37*
G36*
X50906D02*
X50118D01*
Y78225D01*
X50906D01*
Y75607D01*
D02*
G37*
G36*
X49331D02*
X48543D01*
Y78225D01*
X49331D01*
Y75607D01*
D02*
G37*
G36*
X47756D02*
X46968D01*
Y78225D01*
X47756D01*
Y75607D01*
D02*
G37*
G36*
X46182D02*
X45394D01*
Y78225D01*
X46182D01*
Y75607D01*
D02*
G37*
G36*
X44607D02*
X43819D01*
Y78225D01*
X44607D01*
Y75607D01*
D02*
G37*
G36*
X43032D02*
X42244D01*
Y78225D01*
X43032D01*
Y75607D01*
D02*
G37*
G36*
X41457D02*
X40669D01*
Y78225D01*
X41457D01*
Y75607D01*
D02*
G37*
G36*
X39882D02*
X39094D01*
Y78225D01*
X39882D01*
Y75607D01*
D02*
G37*
G36*
X38308D02*
X37520D01*
Y78225D01*
X38308D01*
Y75607D01*
D02*
G37*
G36*
X36733D02*
X35945D01*
Y78225D01*
X36733D01*
Y75607D01*
D02*
G37*
G36*
X35158D02*
X34370D01*
Y78225D01*
X35158D01*
Y75607D01*
D02*
G37*
G36*
X59725Y73342D02*
X57107D01*
Y74130D01*
X59725D01*
Y73342D01*
D02*
G37*
G36*
X32894D02*
X30276D01*
Y74130D01*
X32894D01*
Y73342D01*
D02*
G37*
G36*
Y71768D02*
X30276Y71768D01*
Y72556D01*
X32894D01*
Y71768D01*
D02*
G37*
G36*
X59725Y71768D02*
X57107Y71768D01*
Y72556D01*
X59725D01*
Y71768D01*
D02*
G37*
G36*
Y70193D02*
X57107D01*
Y70981D01*
X59725D01*
Y70193D01*
D02*
G37*
G36*
X32894D02*
X30276D01*
Y70981D01*
X32894Y70981D01*
Y70193D01*
D02*
G37*
G36*
X59725Y68618D02*
X57107Y68618D01*
Y69406D01*
X59725Y69406D01*
Y68618D01*
D02*
G37*
G36*
X32894Y69406D02*
Y68618D01*
X30276Y68618D01*
Y69406D01*
X32894Y69406D01*
D02*
G37*
G36*
X59725Y67043D02*
X57107D01*
Y67831D01*
X59725D01*
Y67043D01*
D02*
G37*
G36*
X32894D02*
X30276D01*
Y67831D01*
X32894D01*
Y67043D01*
D02*
G37*
G36*
X59725Y66256D02*
Y65468D01*
X57107Y65468D01*
Y66256D01*
X59725Y66256D01*
D02*
G37*
G36*
X32894Y65468D02*
X30276Y65468D01*
Y66256D01*
X32894Y66256D01*
Y65468D01*
D02*
G37*
G36*
X59725Y63894D02*
X57107D01*
Y64682D01*
X59725D01*
Y63894D01*
D02*
G37*
G36*
X32894D02*
X30276D01*
Y64682D01*
X32894D01*
Y63894D01*
D02*
G37*
G36*
X59725Y63107D02*
X59725Y62319D01*
X57107D01*
Y63107D01*
X59725Y63107D01*
D02*
G37*
G36*
X32894Y62319D02*
X30276Y62319D01*
X30276Y63107D01*
X32894Y63107D01*
Y62319D01*
D02*
G37*
G36*
X59725Y60744D02*
X57107Y60744D01*
Y61532D01*
X59725D01*
Y60744D01*
D02*
G37*
G36*
X32894Y60744D02*
X30276Y60744D01*
Y61532D01*
X32894D01*
Y60744D01*
D02*
G37*
G36*
X59725Y59957D02*
Y59169D01*
X57107D01*
Y59957D01*
X59725Y59957D01*
D02*
G37*
G36*
X32894Y59169D02*
X30276D01*
Y59957D01*
X32894Y59957D01*
Y59169D01*
D02*
G37*
G36*
X59725Y57594D02*
X57107D01*
Y58382D01*
X59725Y58382D01*
X59725Y57594D01*
D02*
G37*
G36*
X32894Y58382D02*
Y57594D01*
X30276Y57594D01*
X30276Y58382D01*
X32894Y58382D01*
D02*
G37*
G36*
X51299Y57201D02*
X38701D01*
Y69799D01*
X51299D01*
Y57201D01*
D02*
G37*
G36*
X59725Y56020D02*
X57107D01*
Y56808D01*
X59725D01*
X59725Y56020D01*
D02*
G37*
G36*
X32894Y56808D02*
Y56020D01*
X30276Y56020D01*
X30276Y56808D01*
X32894Y56808D01*
D02*
G37*
G36*
X59725Y54445D02*
X57107D01*
Y55233D01*
X59725D01*
X59725Y54445D01*
D02*
G37*
G36*
X32894Y55233D02*
Y54445D01*
X30276D01*
X30276Y55233D01*
X32894Y55233D01*
D02*
G37*
G36*
X59725Y52870D02*
X57107D01*
Y53658D01*
X59725D01*
Y52870D01*
D02*
G37*
G36*
X32894D02*
X30276D01*
Y53658D01*
X32894D01*
Y52870D01*
D02*
G37*
G36*
X54056Y48776D02*
X53268D01*
Y51394D01*
X54056D01*
Y48776D01*
D02*
G37*
G36*
X36733D02*
X35945D01*
Y51394D01*
X36733D01*
Y48776D01*
D02*
G37*
G36*
X55630Y48776D02*
X54842Y48776D01*
Y51394D01*
X55630Y51394D01*
Y48776D01*
D02*
G37*
G36*
X50906Y48776D02*
X50118Y48776D01*
X50118Y51394D01*
X50906Y51394D01*
Y48776D01*
D02*
G37*
G36*
X49331D02*
X48543Y48776D01*
Y51394D01*
X49331Y51394D01*
X49331Y48776D01*
D02*
G37*
G36*
X44607Y51394D02*
X44607Y48776D01*
X43819Y48776D01*
X43819Y51394D01*
X44607Y51394D01*
D02*
G37*
G36*
X43032Y48776D02*
X42244D01*
Y51394D01*
X43032D01*
Y48776D01*
D02*
G37*
G36*
X39882Y51394D02*
Y48776D01*
X39094Y48776D01*
X39094Y51394D01*
X39882Y51394D01*
D02*
G37*
G36*
X38308Y51394D02*
X38308Y48776D01*
X37520Y48776D01*
Y51394D01*
X38308Y51394D01*
D02*
G37*
G36*
X35158Y48776D02*
X34370Y48776D01*
Y51394D01*
X35158Y51394D01*
Y48776D01*
D02*
G37*
G36*
X52481D02*
X51693Y48776D01*
Y51394D01*
X52481Y51394D01*
Y48776D01*
D02*
G37*
G36*
X47756D02*
X46968Y48776D01*
Y51394D01*
X47756Y51394D01*
Y48776D01*
D02*
G37*
G36*
X46182Y51394D02*
Y48776D01*
X45394Y48776D01*
Y51394D01*
X46182Y51394D01*
D02*
G37*
G36*
X41457D02*
Y48776D01*
X40669Y48776D01*
Y51394D01*
X41457Y51394D01*
D02*
G37*
D24*
X12595Y12807D02*
D03*
X24406D02*
D03*
D25*
X18500Y14500D02*
D03*
D26*
Y24300D02*
D03*
D27*
X5000Y25418D02*
D03*
Y20300D02*
D03*
D28*
X3728Y30100D02*
D03*
X7271Y30100D02*
D03*
X91347Y27500D02*
D03*
X88000D02*
D03*
X77846Y32000D02*
D03*
X74500D02*
D03*
X78043Y27500D02*
D03*
X74500Y27500D02*
D03*
X32457Y81500D02*
D03*
X36000Y81500D02*
D03*
X34728Y43500D02*
D03*
X38271Y43500D02*
D03*
X34500Y34500D02*
D03*
X31154Y34500D02*
D03*
X67347Y34500D02*
D03*
X64000Y34500D02*
D03*
X14154Y87500D02*
D03*
X17500Y87500D02*
D03*
X7075Y38400D02*
D03*
X3729Y38400D02*
D03*
X7075Y34250D02*
D03*
X3729D02*
D03*
X83043Y89500D02*
D03*
X79500Y89500D02*
D03*
D29*
X82772Y121850D02*
D03*
X79228D02*
D03*
X15972Y127800D02*
D03*
X12428D02*
D03*
X15972Y124300D02*
D03*
X12428Y124300D02*
D03*
X72000Y98400D02*
D03*
X68457D02*
D03*
X79228Y125633D02*
D03*
X82772D02*
D03*
Y135000D02*
D03*
X79228D02*
D03*
X74043Y135000D02*
D03*
X70500D02*
D03*
X63000D02*
D03*
X66543D02*
D03*
X70772Y115850D02*
D03*
X67228D02*
D03*
X82772Y118067D02*
D03*
X79228D02*
D03*
X82772Y110500D02*
D03*
X79228D02*
D03*
X12402Y131327D02*
D03*
X15945D02*
D03*
X12402Y113327D02*
D03*
X15945Y113327D02*
D03*
X12402Y109827D02*
D03*
X15945D02*
D03*
X12402Y106327D02*
D03*
X15945Y106327D02*
D03*
X82772Y114283D02*
D03*
X79228D02*
D03*
X82772Y131167D02*
D03*
X79228D02*
D03*
X63000Y131000D02*
D03*
X66543D02*
D03*
X67228Y112100D02*
D03*
X70772D02*
D03*
X74043Y125633D02*
D03*
X70500D02*
D03*
X67228Y120400D02*
D03*
X70772D02*
D03*
X70500Y131000D02*
D03*
X74043D02*
D03*
D30*
X74902Y117327D02*
D03*
D31*
X52360Y95950D02*
D03*
X34640D02*
D03*
Y90040D02*
D03*
X52360D02*
D03*
D32*
X50380Y99880D02*
D03*
X48410D02*
D03*
X46450D02*
D03*
X44480D02*
D03*
X42510D02*
D03*
X40540D02*
D03*
X38570D02*
D03*
X36600D02*
D03*
Y86100D02*
D03*
X38570D02*
D03*
X40550Y86110D02*
D03*
X42520D02*
D03*
X44480D02*
D03*
X46450D02*
D03*
X48420D02*
D03*
X50390D02*
D03*
D33*
X43500Y93000D02*
D03*
D34*
X58000Y97671D02*
D03*
X58000Y94128D02*
D03*
X5000Y15271D02*
D03*
X5000Y11925D02*
D03*
X94000Y49000D02*
D03*
X94000Y45457D02*
D03*
X88400Y49000D02*
D03*
X88400Y45457D02*
D03*
X42500Y43575D02*
D03*
X42500Y40229D02*
D03*
X46833Y43575D02*
D03*
Y40229D02*
D03*
X71500Y60728D02*
D03*
X71500Y64271D02*
D03*
X76100Y60728D02*
D03*
X76100Y64271D02*
D03*
X80600Y60728D02*
D03*
X80600Y64271D02*
D03*
X51167Y40228D02*
D03*
X51167Y43771D02*
D03*
X55500Y40228D02*
D03*
X55500Y43771D02*
D03*
X80000Y40457D02*
D03*
X80000Y44000D02*
D03*
X60500Y40457D02*
D03*
X60500Y44000D02*
D03*
X23090Y54654D02*
D03*
Y58000D02*
D03*
X5091Y58147D02*
D03*
X5091Y54800D02*
D03*
X21229Y82872D02*
D03*
X21228Y79329D02*
D03*
X25872Y82872D02*
D03*
X25871Y79329D02*
D03*
X76250Y72075D02*
D03*
X76250Y68729D02*
D03*
X80500Y72075D02*
D03*
X80500Y68729D02*
D03*
X72000Y72075D02*
D03*
Y68729D02*
D03*
X5100Y50572D02*
D03*
X5100Y47029D02*
D03*
X27500Y44272D02*
D03*
X27500Y40729D02*
D03*
X87000Y78925D02*
D03*
Y82271D02*
D03*
X66800Y87443D02*
D03*
X66800Y83900D02*
D03*
X58000Y90272D02*
D03*
X58000Y86729D02*
D03*
X30000Y94575D02*
D03*
Y91229D02*
D03*
D35*
X9772Y87526D02*
D03*
D36*
X6229D02*
D03*
D37*
X5000Y8272D02*
D03*
D38*
Y4728D02*
D03*
D39*
X48394Y27213D02*
D03*
X46425D02*
D03*
X44457D02*
D03*
X42488D02*
D03*
X40520D02*
D03*
X39339D02*
D03*
X37370D02*
D03*
X36189D02*
D03*
X50362D02*
D03*
X52331D02*
D03*
X54299D02*
D03*
X56268D02*
D03*
X58236D02*
D03*
X59417D02*
D03*
X61386D02*
D03*
X62567D02*
D03*
D40*
X92400Y57898D02*
D03*
Y70103D02*
D03*
D41*
X88900Y53200D02*
D03*
X93900D02*
D03*
D42*
X45000Y63500D02*
D03*
D43*
X55236Y50085D02*
D03*
X53662D02*
D03*
X52087D02*
D03*
X50512D02*
D03*
X48937D02*
D03*
X47362D02*
D03*
X45788D02*
D03*
X44213D02*
D03*
X42638D02*
D03*
X41063D02*
D03*
X39488D02*
D03*
X37914D02*
D03*
X36339D02*
D03*
X34764D02*
D03*
X34764Y76916D02*
D03*
X36339Y76916D02*
D03*
X37914Y76916D02*
D03*
X39488Y76916D02*
D03*
X41063Y76916D02*
D03*
X42638D02*
D03*
X44213Y76916D02*
D03*
X45788D02*
D03*
X47362Y76916D02*
D03*
X48937Y76916D02*
D03*
X50512Y76916D02*
D03*
X52087D02*
D03*
X53662Y76916D02*
D03*
X55236Y76916D02*
D03*
D44*
X31585Y53264D02*
D03*
X31585Y54839D02*
D03*
Y56414D02*
D03*
Y57988D02*
D03*
Y59563D02*
D03*
Y61138D02*
D03*
Y62713D02*
D03*
Y64288D02*
D03*
Y65862D02*
D03*
Y67437D02*
D03*
Y69012D02*
D03*
Y70587D02*
D03*
Y72162D02*
D03*
X31585Y73736D02*
D03*
X58416D02*
D03*
X58416Y72162D02*
D03*
X58416Y70587D02*
D03*
X58416Y69012D02*
D03*
Y67437D02*
D03*
Y65862D02*
D03*
Y64288D02*
D03*
Y62713D02*
D03*
X58416Y61138D02*
D03*
X58416Y59563D02*
D03*
Y57988D02*
D03*
Y56414D02*
D03*
Y54839D02*
D03*
X58416Y53264D02*
D03*
D45*
X57000Y102028D02*
D03*
Y105572D02*
D03*
X60625Y102028D02*
D03*
Y105572D02*
D03*
X64250Y102028D02*
D03*
Y105572D02*
D03*
X67875Y102028D02*
D03*
Y105572D02*
D03*
X71500D02*
D03*
Y102028D02*
D03*
X56673Y131327D02*
D03*
Y134870D02*
D03*
X48673Y131327D02*
D03*
Y134870D02*
D03*
X52673Y131327D02*
D03*
Y134870D02*
D03*
D46*
X82000Y98300D02*
D03*
D47*
X77000D02*
D03*
X77000Y105584D02*
D03*
X82000Y105583D02*
D03*
D48*
X5881Y79224D02*
D03*
Y76075D02*
D03*
Y72925D02*
D03*
Y69776D02*
D03*
X16117D02*
D03*
Y72925D02*
D03*
Y76075D02*
D03*
Y79224D02*
D03*
D49*
X11000Y77658D02*
D03*
X11000Y71358D02*
D03*
D50*
X66500Y59000D02*
D03*
Y64000D02*
D03*
D51*
X78468Y76514D02*
D03*
X76500D02*
D03*
X74531D02*
D03*
Y84486D02*
D03*
X76500D02*
D03*
X78468D02*
D03*
D52*
X71531Y77547D02*
D03*
Y79516D02*
D03*
Y81484D02*
D03*
Y83453D02*
D03*
X81468D02*
D03*
Y81484D02*
D03*
Y79516D02*
D03*
Y77547D02*
D03*
D53*
X17000Y43500D02*
D03*
D54*
X14047Y49200D02*
D03*
X16016D02*
D03*
X17984D02*
D03*
X19953D02*
D03*
Y37800D02*
D03*
X17984Y37800D02*
D03*
X16016D02*
D03*
X14047Y37800D02*
D03*
D55*
X22700Y46453D02*
D03*
Y44484D02*
D03*
Y42516D02*
D03*
X22700Y40547D02*
D03*
X11300D02*
D03*
X11300Y42516D02*
D03*
Y44484D02*
D03*
Y46453D02*
D03*
D56*
X16506Y120106D02*
D03*
X12726D02*
D03*
Y117547D02*
D03*
X16506D02*
D03*
D57*
X16585Y120795D02*
D03*
X15955Y120283D02*
D03*
X13278Y117370D02*
D03*
Y120283D02*
D03*
X15955Y117370D02*
D03*
D58*
X15845Y120059D02*
D03*
X13388Y117595D02*
D03*
D59*
X16191Y120421D02*
D03*
X13041Y117232D02*
D03*
Y120421D02*
D03*
X16191Y117232D02*
D03*
D60*
X15896Y120717D02*
D03*
X13337Y116937D02*
D03*
Y120717D02*
D03*
X15896Y116937D02*
D03*
D61*
X14616Y118827D02*
D03*
D62*
X13388Y120059D02*
D03*
X15845Y117595D02*
D03*
D63*
X12182Y5100D02*
D03*
X17300D02*
D03*
D64*
X58693Y34500D02*
D03*
X40154D02*
D03*
D65*
X52000D02*
D03*
X46846D02*
D03*
D66*
X67154Y41441D02*
D03*
X73847D02*
D03*
Y46559D02*
D03*
X67154D02*
D03*
D67*
X17929Y60559D02*
D03*
Y58000D02*
D03*
Y55441D02*
D03*
X10252D02*
D03*
X10252Y58000D02*
D03*
X10252Y60559D02*
D03*
D68*
X76500Y4831D02*
D03*
Y21169D02*
D03*
X90043Y4831D02*
D03*
Y21169D02*
D03*
D69*
X39626Y110252D02*
D03*
Y112221D02*
D03*
Y114189D02*
D03*
Y116157D02*
D03*
X41594Y110252D02*
D03*
Y114189D02*
D03*
Y116157D02*
D03*
X43563Y110252D02*
D03*
X45531D02*
D03*
X51437D02*
D03*
X49468D02*
D03*
X47500D02*
D03*
X57342D02*
D03*
X55374D02*
D03*
X53405D02*
D03*
X61279D02*
D03*
X59311D02*
D03*
X61279Y112221D02*
D03*
Y114189D02*
D03*
Y116157D02*
D03*
Y118126D02*
D03*
X39626D02*
D03*
X61279Y120095D02*
D03*
X39626D02*
D03*
X61279Y122063D02*
D03*
X39626D02*
D03*
X41594Y124031D02*
D03*
X39626D02*
D03*
X61279Y126000D02*
D03*
X41594D02*
D03*
X39626D02*
D03*
X59311D02*
D03*
X53405D02*
D03*
X55374D02*
D03*
X57342D02*
D03*
X47500D02*
D03*
X49468D02*
D03*
X51437D02*
D03*
X45531D02*
D03*
X43563D02*
D03*
M02*
