M48
;Layer_Color=9474304
;FILE_FORMAT=2:5
INCH,LZ
;TYPE=PLATED
T1F00S00C0.00787
T2F00S00C0.01181
T3F00S00C0.01200
;TYPE=NON_PLATED
T5F00S00C0.02559
%
T01
X00386Y00037
X0043925
X004925
X0054575
X00599
X00721Y00039
X00765Y00092
X00834Y00039
X00948
X0095Y00132
Y00212
Y00263
X0088Y00275
X00804Y00274
X0077846Y0032
X00747Y0032
X00707Y00321
X00691Y00373
X00731Y00372
X00776
X008Y0040457
X00836Y00434
X00862Y00432
X00885Y00427
X00924
X0085Y00453
X00823
X00822Y00487
X00822Y005705
X00822Y00607
X00828Y0063
Y00665
X00805Y00665
X007825Y0064271
X00782Y00606
X00737
X007375Y0064271
X00761Y00664
X0076348Y0072075
X00805
X00827Y00705
X00825Y00747
X00843Y00796
X0084Y00835
X00918Y0078
X00948
X00663Y00703
X00633Y00707
X0061Y00738
X00676Y00682
X00615Y00607
X0062Y00585
X00579Y00501
X00633Y00467
X00649Y00373
X00604Y00379
X00581Y00402
X00533Y00401
X0053334Y0043771
X0049Y00402
X00462Y0047673
X0043881
X0038271Y00435
X0031Y00425
X00309Y00454
X0026Y00484
X00259Y00535
X00275Y00556
X00229Y00526
X0017Y00435
X00267Y00656
Y00686
Y00709
X002355Y0082872
X0032457Y00815
X00362Y00815
X003857Y00861
X004842Y008611
X0059611Y0085314
X00489Y00745
X0040154Y00345
X00465Y002406
X00503Y0024
X0058693Y00345
X009Y00092
X00122Y00088
X00087Y00087
Y00049
X0012182Y00051
X0005Y0004728
Y00203
X0012Y00179
X0012595Y0012807
X0003728Y00301
X0003729Y00343
X0003729Y00385
X0009444Y0050544
X0007991Y00537
X00101Y00629
X0011Y00676
X0008575Y0072925
Y0076012
Y00791
X0011Y00823
Y00915
X00098Y01062
Y01098
Y01134
X00042Y0113875
Y01082
Y011955
Y0125225
Y01309
X0004227Y0135475
X00098Y01355
Y01314
Y012795
Y01245
X0014616Y0118827
X00159Y01038
Y0102
Y01002
X00199Y01013
X0023967
X0028033
X00321
X00301Y00972
X0027Y00912
X00424Y01032
X00446
X00467
X00515Y01025
X0056823Y0105572
X0060625
X00679Y01056
X00672Y01121
Y01159
X0063653Y0122976
Y0125732
X00664Y01273
X0068522Y01309
X0068522Y0132976
Y01348
X0074043Y0135
X0074043Y0131
X0073893Y0125571
X00761Y01202
X0079228Y012185
Y0118067
X00773Y01099
X00933Y0108833
Y0102867
X00908Y00981
X00856Y00894
X00804Y00917
X00783
X00667Y00902
Y00946
X00651Y00984
X00624
X0058Y00922
X00579Y00867
X00573Y01121
X00506Y0112436
X00447
X00421
X0037Y0112956
Y01102
Y0116105
Y0118861
Y0122011
Y0124767
X0039244Y012831
X0042
X0044756
X0047512
X0053417
X0056173
X0058929
X00629Y0131
X0059837Y0134935
X0054673Y013487
X0050673
X00416Y01349
X00359
X00302
X00239Y0135
X00227Y01336
X00212Y01349
X00211Y0132
X0024Y01319
X0079228Y0133083
X00792Y01349
X00829Y01311
X00878Y0135
X00933Y01327
Y0126733
Y0120767
Y01148
T02
X00251Y00107
Y0013
Y00153
X00275Y0040729
X00079Y00425
X00053Y00468
X00077Y0026
X001
X00123
X00077Y00153
T03
X0041063Y0059564
X0045
X0048936
Y00635
X0045Y00635
X0044998Y0067436
X0041063Y0067438
Y0063501
X0048937Y0067438
T05
X0038Y0023
X0060756
M30
