G04*
G04 #@! TF.GenerationSoftware,Altium Limited,Altium Designer,20.1.14 (287)*
G04*
G04 Layer_Color=32768*
%FSLAX25Y25*%
%MOIN*%
G70*
G04*
G04 #@! TF.SameCoordinates,C6E2488E-A08A-4CE9-B207-DE92606EBE29*
G04*
G04*
G04 #@! TF.FilePolarity,Positive*
G04*
G01*
G75*
%ADD21C,0.00197*%
%ADD22C,0.00394*%
%ADD138C,0.00100*%
%ADD139C,0.00158*%
%ADD140C,0.00200*%
G36*
X52600Y99979D02*
Y99880D01*
Y99781D01*
X52459Y99640D01*
X52261D01*
X52120Y99781D01*
Y99880D01*
Y99979D01*
X52261Y100120D01*
X52459D01*
X52600Y99979D01*
D02*
G37*
G36*
X50860Y98300D02*
X49910D01*
Y99880D01*
X50860D01*
Y98300D01*
D02*
G37*
G36*
X48890D02*
X47940D01*
Y99880D01*
X48890D01*
Y98300D01*
D02*
G37*
G36*
X46920D02*
X45970D01*
Y99880D01*
X46920D01*
Y98300D01*
D02*
G37*
G36*
X44950D02*
X44010D01*
Y99880D01*
X44950D01*
Y98300D01*
D02*
G37*
G36*
X42980D02*
X42040D01*
Y99880D01*
X42980D01*
Y98300D01*
D02*
G37*
G36*
X41010D02*
X40070D01*
Y99880D01*
X41010D01*
Y98300D01*
D02*
G37*
G36*
X39050D02*
X38100D01*
Y99880D01*
X39050D01*
Y98300D01*
D02*
G37*
G36*
X37080D02*
X36130D01*
Y99880D01*
X37080D01*
Y98300D01*
D02*
G37*
G36*
X52350Y95480D02*
X50770D01*
Y96430D01*
X52350D01*
Y95480D01*
D02*
G37*
G36*
X36220Y95470D02*
X34650D01*
Y96420D01*
X36220D01*
Y95470D01*
D02*
G37*
G36*
X48810Y89650D02*
X38180D01*
Y96340D01*
X48810D01*
Y89650D01*
D02*
G37*
G36*
X52350Y89570D02*
X50770D01*
Y90520D01*
X52350D01*
Y89570D01*
D02*
G37*
G36*
X36220D02*
X34650D01*
Y90510D01*
X36220D01*
Y89570D01*
D02*
G37*
G36*
X50870Y86120D02*
X49920D01*
Y87690D01*
X50870D01*
Y86120D01*
D02*
G37*
G36*
X48900D02*
X47950D01*
Y87690D01*
X48900D01*
Y86120D01*
D02*
G37*
G36*
X46930D02*
X45990D01*
Y87690D01*
X46930D01*
Y86120D01*
D02*
G37*
G36*
X44960D02*
X44020D01*
Y87690D01*
X44960D01*
Y86120D01*
D02*
G37*
G36*
X42990D02*
X42050D01*
Y87690D01*
X42990D01*
Y86120D01*
D02*
G37*
G36*
X41030D02*
X40080D01*
Y87690D01*
X41030D01*
Y86120D01*
D02*
G37*
G36*
X39060D02*
X38110D01*
Y87690D01*
X39060D01*
Y86120D01*
D02*
G37*
G36*
X37090D02*
X36140D01*
Y87690D01*
X37090D01*
Y86120D01*
D02*
G37*
G36*
X78960Y83158D02*
X77976D01*
Y85028D01*
X78960D01*
Y83158D01*
D02*
G37*
G36*
X76992D02*
X76008D01*
Y85028D01*
X76992D01*
Y83158D01*
D02*
G37*
G36*
X75023D02*
X74039D01*
Y85028D01*
X75023D01*
Y83158D01*
D02*
G37*
G36*
X82012Y83945D02*
Y82961D01*
X80142D01*
Y83945D01*
X82012Y83945D01*
D02*
G37*
G36*
X72858Y82961D02*
X70988D01*
Y83945D01*
X72858Y83945D01*
Y82961D01*
D02*
G37*
G36*
X5331Y82472D02*
Y82276D01*
X5192Y82138D01*
X4997D01*
X4858Y82276D01*
Y82472D01*
X4997Y82610D01*
X5192D01*
X5331Y82472D01*
D02*
G37*
G36*
X82012Y80992D02*
X80142D01*
Y81976D01*
X82012D01*
X82012Y80992D01*
D02*
G37*
G36*
X72858D02*
X70988D01*
X70988Y81976D01*
X72858D01*
Y80992D01*
D02*
G37*
G36*
X82012Y79024D02*
X80142D01*
Y80008D01*
X82012D01*
X82012Y79024D01*
D02*
G37*
G36*
X72858D02*
X70988D01*
X70988Y80008D01*
X72858D01*
Y79024D01*
D02*
G37*
G36*
X16905Y78633D02*
X14543D01*
X14543Y79815D01*
X16905D01*
Y78633D01*
D02*
G37*
G36*
X7457D02*
X5094D01*
X5094Y79815D01*
X7457D01*
Y78633D01*
D02*
G37*
G36*
X82012Y77055D02*
X80142Y77055D01*
Y78039D01*
X82012D01*
Y77055D01*
D02*
G37*
G36*
X72858Y77055D02*
X70988Y77055D01*
Y78039D01*
X72858D01*
Y77055D01*
D02*
G37*
G36*
X11393Y76083D02*
X10606Y76083D01*
Y79233D01*
X11393D01*
Y76083D01*
D02*
G37*
G36*
X78960Y75972D02*
X77976D01*
Y77842D01*
X78960D01*
Y75972D01*
D02*
G37*
G36*
X76992D02*
X76008D01*
Y77842D01*
X76992D01*
Y75972D01*
D02*
G37*
G36*
X75023D02*
X74039D01*
Y77842D01*
X75023D01*
Y75972D01*
D02*
G37*
G36*
X55630Y75705D02*
X54843D01*
X54843Y77280D01*
X55630D01*
Y75705D01*
D02*
G37*
G36*
X54055D02*
X53268D01*
Y77280D01*
X54055Y77280D01*
Y75705D01*
D02*
G37*
G36*
X52481Y77280D02*
Y75705D01*
X51693D01*
Y77280D01*
X52481Y77280D01*
D02*
G37*
G36*
X50906Y75705D02*
X50118D01*
Y77280D01*
X50906Y77280D01*
Y75705D01*
D02*
G37*
G36*
X49331D02*
X48544D01*
Y77280D01*
X49331Y77280D01*
X49331Y75705D01*
D02*
G37*
G36*
X47756D02*
X46969D01*
Y77280D01*
X47756D01*
Y75705D01*
D02*
G37*
G36*
X46181Y77280D02*
Y75705D01*
X45394D01*
X45394Y77280D01*
X46181Y77280D01*
D02*
G37*
G36*
X44607D02*
Y75705D01*
X43819D01*
X43819Y77280D01*
X44607Y77280D01*
D02*
G37*
G36*
X43032D02*
Y75705D01*
X42244D01*
Y77280D01*
X43032Y77280D01*
D02*
G37*
G36*
X41457Y75705D02*
X40670D01*
Y77280D01*
X41457Y77280D01*
X41457Y75705D01*
D02*
G37*
G36*
X39882Y77280D02*
Y75705D01*
X39095D01*
Y77280D01*
X39882Y77280D01*
D02*
G37*
G36*
X38307Y75705D02*
X37520D01*
Y77280D01*
X38307D01*
Y75705D01*
D02*
G37*
G36*
X36733Y77280D02*
Y75705D01*
X35945D01*
X35945Y77280D01*
X36733Y77280D01*
D02*
G37*
G36*
X35158D02*
Y75705D01*
X34370D01*
Y77280D01*
X35158Y77280D01*
D02*
G37*
G36*
X16905Y75484D02*
X14543Y75484D01*
Y76666D01*
X16905D01*
Y75484D01*
D02*
G37*
G36*
X7457D02*
X5094Y75484D01*
Y76666D01*
X7457D01*
Y75484D01*
D02*
G37*
G36*
X82642Y75677D02*
Y75579D01*
Y75481D01*
X82503Y75343D01*
X82308D01*
X82169Y75481D01*
X82169Y75579D01*
X82169Y75677D01*
X82308Y75815D01*
X82503D01*
X82642Y75677D01*
D02*
G37*
G36*
X58780Y73343D02*
X57205D01*
X57205Y74130D01*
X58780D01*
X58780Y73343D01*
D02*
G37*
G36*
X32796Y74130D02*
Y73343D01*
X31221Y73343D01*
Y74130D01*
X32796Y74130D01*
D02*
G37*
G36*
X16905Y72334D02*
X14543D01*
Y73516D01*
X16905Y73516D01*
Y72334D01*
D02*
G37*
G36*
X7457D02*
X5094D01*
Y73516D01*
X7457Y73516D01*
Y72334D01*
D02*
G37*
G36*
X32796Y71768D02*
X31221D01*
Y72555D01*
X32796Y72555D01*
Y71768D01*
D02*
G37*
G36*
X58780Y71768D02*
X57205D01*
Y72555D01*
X58780D01*
Y71768D01*
D02*
G37*
G36*
Y70193D02*
X57205D01*
Y70981D01*
X58780D01*
Y70193D01*
D02*
G37*
G36*
X32796Y70193D02*
X31221Y70193D01*
Y70981D01*
X32796D01*
Y70193D01*
D02*
G37*
G36*
X11393Y69783D02*
X10606Y69783D01*
Y72933D01*
X11393D01*
Y69783D01*
D02*
G37*
G36*
X95550Y69315D02*
X89250D01*
Y70299D01*
X95550D01*
Y69315D01*
D02*
G37*
G36*
X16905Y69185D02*
X14543D01*
X14543Y70367D01*
X16905D01*
Y69185D01*
D02*
G37*
G36*
X7457D02*
X5094D01*
X5094Y70367D01*
X7457D01*
Y69185D01*
D02*
G37*
G36*
X32796Y68618D02*
X31221D01*
X31221Y69406D01*
X32796D01*
Y68618D01*
D02*
G37*
G36*
X58780Y69406D02*
X58780Y68618D01*
X57205D01*
Y69406D01*
X58780Y69406D01*
D02*
G37*
G36*
X58780Y67044D02*
X57205D01*
Y67831D01*
X58780Y67831D01*
X58780Y67044D01*
D02*
G37*
G36*
X32796D02*
X31221D01*
Y67831D01*
X32796D01*
Y67044D01*
D02*
G37*
G36*
X58780Y65469D02*
X57205D01*
Y66256D01*
X58780D01*
Y65469D01*
D02*
G37*
G36*
X32796D02*
X31221D01*
Y66256D01*
X32796D01*
Y65469D01*
D02*
G37*
G36*
X58780Y63894D02*
X57205D01*
X57205Y64681D01*
X58780D01*
X58780Y63894D01*
D02*
G37*
G36*
X32796Y64681D02*
Y63894D01*
X31221D01*
Y64681D01*
X32796Y64681D01*
D02*
G37*
G36*
X58780Y62319D02*
X57205D01*
Y63107D01*
X58780D01*
Y62319D01*
D02*
G37*
G36*
X32796D02*
X31221D01*
Y63107D01*
X32796Y63107D01*
Y62319D01*
D02*
G37*
G36*
X58780Y60744D02*
X57205D01*
Y61532D01*
X58780D01*
Y60744D01*
D02*
G37*
G36*
X32796Y60744D02*
X31221Y60744D01*
Y61532D01*
X32796D01*
Y60744D01*
D02*
G37*
G36*
X58780Y59170D02*
X57205D01*
X57205Y59957D01*
X58780D01*
X58780Y59170D01*
D02*
G37*
G36*
X32796Y59170D02*
X31221Y59170D01*
Y59957D01*
X32796Y59957D01*
Y59170D01*
D02*
G37*
G36*
X58780Y57595D02*
X57205D01*
Y58382D01*
X58780D01*
Y57595D01*
D02*
G37*
G36*
X32796D02*
X31221D01*
Y58382D01*
X32796D01*
Y57595D01*
D02*
G37*
G36*
X95550Y57701D02*
X89807D01*
X89610Y57504D01*
X89284D01*
X89053Y57734D01*
Y58061D01*
X89250Y58258D01*
Y58685D01*
X95550D01*
Y57701D01*
D02*
G37*
G36*
X32796Y56807D02*
Y56020D01*
X31221D01*
Y56807D01*
X32796Y56807D01*
D02*
G37*
G36*
X58780Y56020D02*
X57205Y56020D01*
Y56807D01*
X58780D01*
X58780Y56020D01*
D02*
G37*
G36*
X52874Y71374D02*
Y55626D01*
X37126D01*
Y71374D01*
X52874Y71374D01*
D02*
G37*
G36*
X32796Y54445D02*
X31221D01*
X31221Y55233D01*
X32796D01*
Y54445D01*
D02*
G37*
G36*
X58780Y54445D02*
X57205Y54445D01*
Y55233D01*
X58780D01*
X58780Y54445D01*
D02*
G37*
G36*
X58780Y52870D02*
X57205D01*
Y53658D01*
X58780D01*
Y52870D01*
D02*
G37*
G36*
X32796D02*
X31221D01*
Y53658D01*
X32796D01*
Y52870D01*
D02*
G37*
G36*
X55630Y51296D02*
Y49721D01*
X54843D01*
Y51296D01*
X55630Y51296D01*
D02*
G37*
G36*
X50906Y49721D02*
X50118Y49721D01*
Y51296D01*
X50906D01*
Y49721D01*
D02*
G37*
G36*
X47756D02*
X46969D01*
Y51296D01*
X47756Y51296D01*
Y49721D01*
D02*
G37*
G36*
X46181Y51296D02*
Y49721D01*
X45394Y49721D01*
Y51296D01*
X46181Y51296D01*
D02*
G37*
G36*
X43032Y49721D02*
X42244Y49721D01*
Y51296D01*
X43032D01*
Y49721D01*
D02*
G37*
G36*
X38307Y49721D02*
X37520D01*
Y51296D01*
X38307D01*
Y49721D01*
D02*
G37*
G36*
X36733Y51296D02*
Y49721D01*
X35945Y49721D01*
Y51296D01*
X36733Y51296D01*
D02*
G37*
G36*
X54055D02*
X54055Y49721D01*
X53268Y49721D01*
Y51296D01*
X54055Y51296D01*
D02*
G37*
G36*
X52481Y49721D02*
X51693Y49721D01*
Y51296D01*
X52481D01*
X52481Y49721D01*
D02*
G37*
G36*
X49331Y51296D02*
Y49721D01*
X48544Y49721D01*
Y51296D01*
X49331Y51296D01*
D02*
G37*
G36*
X44607Y49721D02*
X43819Y49721D01*
Y51296D01*
X44607Y51296D01*
Y49721D01*
D02*
G37*
G36*
X41457Y49721D02*
X40670Y49721D01*
X40670Y51296D01*
X41457Y51296D01*
Y49721D01*
D02*
G37*
G36*
X39882D02*
X39095Y49721D01*
X39095Y51296D01*
X39882Y51296D01*
Y49721D01*
D02*
G37*
G36*
X35158Y49721D02*
X34370Y49721D01*
Y51296D01*
X35158Y51296D01*
Y49721D01*
D02*
G37*
G36*
X59016Y49819D02*
Y49721D01*
Y49623D01*
X58877Y49485D01*
X58682D01*
X58543Y49623D01*
Y49721D01*
Y49819D01*
X58682Y49957D01*
X58877D01*
X59016Y49819D01*
D02*
G37*
D21*
X19878Y20000D02*
G03*
X19878Y20000I-1378J0D01*
G01*
X56724Y34500D02*
G03*
X56724Y34500I-1378J0D01*
G01*
X44878D02*
G03*
X44878Y34500I-1378J0D01*
G01*
X16532Y20000D02*
X20469D01*
X18500Y18032D02*
Y21969D01*
X29417Y30441D02*
X29417Y-2709D01*
X69339Y-2709D01*
X69339Y30441D01*
X29417D02*
X69339D01*
X53378Y34500D02*
X57315D01*
X55347Y32531D02*
Y36468D01*
X41532Y34500D02*
X45469D01*
X43500Y32531D02*
Y36468D01*
D22*
X9051Y10000D02*
X27949D01*
X9051Y30500D02*
X27949D01*
X9051Y10000D02*
Y30500D01*
X27949Y10000D02*
Y30500D01*
X6032Y87526D02*
X9969D01*
X8000Y85557D02*
Y89494D01*
X4851Y85163D02*
Y89888D01*
X11150D01*
Y85163D02*
Y89888D01*
X4851Y85163D02*
X11150D01*
X5000Y4532D02*
Y8468D01*
X3032Y6500D02*
X6968D01*
X2638Y3350D02*
X7362D01*
X2638D02*
Y9650D01*
X7362D01*
Y3350D02*
Y9650D01*
X14090Y56032D02*
Y59969D01*
X12122Y58000D02*
X16059Y58000D01*
X7594Y52882D02*
X20587Y52882D01*
X7594Y63118D02*
X20587D01*
Y52882D02*
Y63118D01*
X7594Y52882D02*
Y63118D01*
X70201Y2370D02*
X82799D01*
X70201Y23630D02*
X82799D01*
X70201Y2370D02*
Y23630D01*
X82799Y2370D02*
X82799Y23630D01*
X76500Y11032D02*
Y14968D01*
X74532Y13000D02*
X78469D01*
X83744Y2370D02*
X96342D01*
X83744Y23630D02*
X96342D01*
X83744Y2370D02*
Y23630D01*
X96342Y2370D02*
Y23630D01*
X90043Y11032D02*
Y14968D01*
X88075Y13000D02*
X92012D01*
D138*
X5500Y22859D02*
G03*
X5500Y22859I-500J0D01*
G01*
X6000Y30100D02*
G03*
X6000Y30100I-500J0D01*
G01*
X58500Y95900D02*
G03*
X58500Y95900I-500J0D01*
G01*
X5500Y13500D02*
G03*
X5500Y13500I-500J0D01*
G01*
X94500Y47229D02*
G03*
X94500Y47229I-500J0D01*
G01*
X88900D02*
G03*
X88900Y47229I-500J0D01*
G01*
X90075Y27500D02*
G03*
X90075Y27500I-500J0D01*
G01*
X15241Y5100D02*
G03*
X15241Y5100I-500J0D01*
G01*
X76771Y32000D02*
G03*
X76771Y32000I-500J0D01*
G01*
Y27500D02*
G03*
X76771Y27500I-500J0D01*
G01*
X43000Y42000D02*
G03*
X43000Y42000I-500J0D01*
G01*
X47334D02*
G03*
X47334Y42000I-500J0D01*
G01*
X72000Y62500D02*
G03*
X72000Y62500I-500J0D01*
G01*
X76600D02*
G03*
X76600Y62500I-500J0D01*
G01*
X81100D02*
G03*
X81100Y62500I-500J0D01*
G01*
X51667Y42000D02*
G03*
X51667Y42000I-500J0D01*
G01*
X56000Y42000D02*
G03*
X56000Y42000I-500J0D01*
G01*
X34729Y81500D02*
G03*
X34729Y81500I-500J0D01*
G01*
X37000Y43500D02*
G03*
X37000Y43500I-500J0D01*
G01*
X33425Y34500D02*
G03*
X33425Y34500I-500J0D01*
G01*
X66271D02*
G03*
X66271Y34500I-500J0D01*
G01*
X80500Y42229D02*
G03*
X80500Y42229I-500J0D01*
G01*
X61000D02*
G03*
X61000Y42229I-500J0D01*
G01*
X23590Y56229D02*
G03*
X23590Y56229I-500J0D01*
G01*
X5591Y56571D02*
G03*
X5591Y56571I-500J0D01*
G01*
X21729Y81100D02*
G03*
X21729Y81100I-500J0D01*
G01*
X26372D02*
G03*
X26372Y81100I-500J0D01*
G01*
X16229Y87500D02*
G03*
X16229Y87500I-500J0D01*
G01*
X76750Y70500D02*
G03*
X76750Y70500I-500J0D01*
G01*
X81000D02*
G03*
X81000Y70500I-500J0D01*
G01*
X72500D02*
G03*
X72500Y70500I-500J0D01*
G01*
X5600Y48800D02*
G03*
X5600Y48800I-500J0D01*
G01*
X28000Y42500D02*
G03*
X28000Y42500I-500J0D01*
G01*
X87500Y80500D02*
G03*
X87500Y80500I-500J0D01*
G01*
X6000Y38400D02*
G03*
X6000Y38400I-500J0D01*
G01*
Y34250D02*
G03*
X6000Y34250I-500J0D01*
G01*
X67300Y85671D02*
G03*
X67300Y85671I-500J0D01*
G01*
X81771Y89500D02*
G03*
X81771Y89500I-500J0D01*
G01*
X58500Y88500D02*
G03*
X58500Y88500I-500J0D01*
G01*
X30500Y93000D02*
G03*
X30500Y93000I-500J0D01*
G01*
X5000Y22072D02*
Y23647D01*
X4212Y22859D02*
X5787D01*
X5500Y29313D02*
Y30887D01*
X4713Y30100D02*
X6287D01*
X58000Y95113D02*
Y96687D01*
X57213Y95900D02*
X58787D01*
X5000Y12713D02*
Y14287D01*
X4213Y13500D02*
X5787D01*
X94000Y46441D02*
Y48016D01*
X93213Y47229D02*
X94787D01*
X88400Y46441D02*
Y48016D01*
X87612Y47229D02*
X89187D01*
X88788Y27500D02*
X90363D01*
X89575Y26713D02*
Y28288D01*
X14741Y5888D02*
X14741Y4313D01*
X13954Y5100D02*
X15529D01*
X76271Y31213D02*
Y32787D01*
X75484Y32000D02*
X77059D01*
X76271Y26712D02*
Y28287D01*
X75484Y27500D02*
X77059D01*
X41713Y42000D02*
X43288D01*
X42500Y42787D02*
X42500Y41213D01*
X46046Y42000D02*
X47621D01*
X46834Y41213D02*
Y42787D01*
X70713Y62500D02*
X72287D01*
X71500Y61713D02*
Y63287D01*
X75313Y62500D02*
X76887D01*
X76100Y61713D02*
Y63287D01*
X79813Y62500D02*
X81387D01*
X80600Y61713D02*
Y63287D01*
X50379Y42000D02*
X51954D01*
X51167Y42787D02*
X51167Y41213D01*
X54713Y42000D02*
X56287D01*
X55500Y41213D02*
Y42787D01*
X34229Y80713D02*
Y82288D01*
X33441Y81500D02*
X35016D01*
X36500Y42713D02*
Y44287D01*
X35713Y43500D02*
X37287D01*
X32925Y33712D02*
X32925Y35287D01*
X32138Y34500D02*
X33712D01*
X65771Y33712D02*
Y35287D01*
X64984Y34500D02*
X66559D01*
X79212Y42229D02*
X80787D01*
X80000Y41441D02*
Y43016D01*
X59713Y42229D02*
X61287D01*
X60500Y41441D02*
Y43016D01*
X22303Y56229D02*
X23878D01*
X23090Y55441D02*
Y57016D01*
X4304Y56571D02*
X5878D01*
X5091Y55784D02*
Y57359D01*
X20441Y81100D02*
X22016Y81100D01*
X21229Y80313D02*
X21229Y81887D01*
X25084Y81100D02*
X26659D01*
X25872Y80313D02*
Y81887D01*
X15729Y86713D02*
Y88288D01*
X14941Y87500D02*
X16516Y87500D01*
X75463Y70500D02*
X77037D01*
X76250Y69713D02*
Y71287D01*
X79713Y70500D02*
X81287D01*
X80500Y69713D02*
Y71287D01*
X71213Y70500D02*
X72787D01*
X72000Y69713D02*
Y71287D01*
X4313Y48800D02*
X5887D01*
X5100Y48013D02*
Y49587D01*
X26713Y42500D02*
X28287D01*
X27500Y41713D02*
Y43287D01*
X86213Y80500D02*
X87787D01*
X87000Y79713D02*
Y81287D01*
X5500Y37613D02*
Y39187D01*
X4713Y38400D02*
X6287D01*
X5500Y35037D02*
X5500Y33462D01*
X4713Y34250D02*
X6287Y34250D01*
X66013Y85671D02*
X67588D01*
X66800Y84884D02*
Y86459D01*
X81271Y88712D02*
Y90287D01*
X80484Y89500D02*
X82059D01*
X57213Y88500D02*
X58787D01*
X58000Y87713D02*
Y89287D01*
X29213Y93000D02*
X30787D01*
X30000Y92213D02*
Y93787D01*
D139*
X71207Y44000D02*
G03*
X71207Y44000I-707J0D01*
G01*
X70500Y43000D02*
Y45000D01*
X69500Y44000D02*
X71500D01*
D140*
X52360Y86100D02*
Y99880D01*
X34640D02*
X52360D01*
X34640Y86100D02*
Y99880D01*
Y86100D02*
X52360D01*
X95550Y57701D02*
Y70299D01*
X89250D02*
X95550D01*
X89250Y57701D02*
Y70299D01*
Y57701D02*
X95550D01*
X91400Y52700D02*
Y53700D01*
X90900Y53200D02*
X91900D01*
X58780Y49721D02*
X58780Y77280D01*
X31221Y77280D02*
X58780Y77280D01*
X31221Y49721D02*
Y77280D01*
Y49721D02*
X58780Y49721D01*
X5094Y82374D02*
X16905D01*
Y66626D02*
Y82374D01*
X5094Y66626D02*
X16905D01*
X5094D02*
Y82374D01*
X66000Y61500D02*
X67000D01*
X66500Y61000D02*
Y62000D01*
X82406Y75579D02*
Y85421D01*
X70595D02*
X82406D01*
X70595Y75579D02*
Y85421D01*
Y75579D02*
X82406D01*
M02*
