G04*
G04 #@! TF.GenerationSoftware,Altium Limited,Altium Designer,20.1.14 (287)*
G04*
G04 Layer_Physical_Order=2*
G04 Layer_Color=32768*
%FSLAX25Y25*%
%MOIN*%
G70*
G04*
G04 #@! TF.SameCoordinates,C6E2488E-A08A-4CE9-B207-DE92606EBE29*
G04*
G04*
G04 #@! TF.FilePolarity,Negative*
G04*
G01*
G75*
%ADD127C,0.04000*%
%ADD128R,0.14800X0.29300*%
%ADD129C,0.06559*%
%ADD130C,0.04787*%
%ADD131C,0.05181*%
D127*
X0Y0D02*
Y138563D01*
X98425D01*
Y0D02*
Y138563D01*
X0Y0D02*
X98425D01*
D128*
X91200Y61450D02*
D03*
D129*
X38000Y23000D02*
D03*
X60756D02*
D03*
D130*
X3729Y38500D02*
D03*
X79228Y121850D02*
D03*
X73893Y125571D02*
D03*
X60625Y105572D02*
D03*
X67900Y105600D02*
D03*
X56823Y105572D02*
D03*
X67200Y115900D02*
D03*
X7991Y53700D02*
D03*
X10100Y62900D02*
D03*
X79228Y133083D02*
D03*
X76100Y66400D02*
D03*
X73750Y64271D02*
D03*
X78250D02*
D03*
X78300Y91700D02*
D03*
X59611Y85314D02*
D03*
X44700Y112436D02*
D03*
X46700Y103200D02*
D03*
X38570Y86100D02*
D03*
X42400Y103200D02*
D03*
X51500Y102500D02*
D03*
X44600Y103200D02*
D03*
X48420Y86110D02*
D03*
X53334Y43771D02*
D03*
X15900Y103800D02*
D03*
Y102000D02*
D03*
Y100200D02*
D03*
X27500Y55600D02*
D03*
X25900Y53500D02*
D03*
X26000Y48400D02*
D03*
X62000Y58500D02*
D03*
X63300Y70700D02*
D03*
X26700Y70900D02*
D03*
X61000Y73800D02*
D03*
X48900Y74500D02*
D03*
X61500Y60700D02*
D03*
X57900Y50100D02*
D03*
X46200Y47673D02*
D03*
X66300Y70300D02*
D03*
X26700Y68600D02*
D03*
X67600Y68200D02*
D03*
X26700Y65600D02*
D03*
X43881Y47673D02*
D03*
X79228Y118067D02*
D03*
X77846Y32000D02*
D03*
X80500Y66500D02*
D03*
X57900Y86700D02*
D03*
X36200Y81500D02*
D03*
X38271Y43500D02*
D03*
X80400Y91700D02*
D03*
X79200Y134900D02*
D03*
X30100Y97200D02*
D03*
X22700Y133600D02*
D03*
X21100Y132000D02*
D03*
X24000Y131900D02*
D03*
X23900Y135000D02*
D03*
X21200Y134900D02*
D03*
X62900Y131000D02*
D03*
X82900Y131100D02*
D03*
X67200Y112100D02*
D03*
X68522Y130900D02*
D03*
X68522Y132976D02*
D03*
Y134800D02*
D03*
X42100Y112436D02*
D03*
X50600D02*
D03*
X8575Y79100D02*
D03*
Y76012D02*
D03*
Y72925D02*
D03*
X84000Y83500D02*
D03*
X80500Y72075D02*
D03*
X76348D02*
D03*
X22900Y52600D02*
D03*
X88000Y27500D02*
D03*
X74700Y32000D02*
D03*
X3729Y34300D02*
D03*
X46500Y24060D02*
D03*
X50300Y24000D02*
D03*
D131*
X12300Y26000D02*
D03*
X10000D02*
D03*
X5300Y46800D02*
D03*
X25100Y10700D02*
D03*
Y13000D02*
D03*
Y15300D02*
D03*
X27500Y40729D02*
D03*
X7700Y26000D02*
D03*
X7900Y42500D02*
D03*
X7700Y15300D02*
D03*
M02*
