G04*
G04 #@! TF.GenerationSoftware,Altium Limited,Altium Designer,20.1.14 (287)*
G04*
G04 Layer_Color=128*
%FSLAX25Y25*%
%MOIN*%
G70*
G04*
G04 #@! TF.SameCoordinates,C6E2488E-A08A-4CE9-B207-DE92606EBE29*
G04*
G04*
G04 #@! TF.FilePolarity,Positive*
G04*
G01*
G75*
%ADD140C,0.00200*%
D140*
X36720Y23000D02*
X39279D01*
X38000Y21721D02*
Y24280D01*
X59476Y23000D02*
X62035D01*
X60756Y21721D02*
Y24280D01*
X31071Y24890D02*
X33630D01*
X32350Y23610D02*
Y26169D01*
X31071Y8433D02*
X33630D01*
X32350Y7153D02*
Y9713D01*
X65126Y8433D02*
X67685D01*
X66405Y7153D02*
Y9713D01*
X65126Y24890D02*
X67685D01*
X66405Y23610D02*
Y26169D01*
X3335Y38500D02*
X4122D01*
X3729Y38107D02*
Y38894D01*
X3335Y30100D02*
X4122D01*
X3728Y29706D02*
Y30494D01*
X78835Y121850D02*
X79622D01*
X79228Y121456D02*
Y122244D01*
X82106Y74700D02*
X82894D01*
X82500Y74306D02*
Y75094D01*
X73500Y125571D02*
X74287D01*
X73893Y125177D02*
Y125964D01*
X63260Y122976D02*
X64047D01*
X63653Y122582D02*
Y123369D01*
X63260Y125732D02*
X64047D01*
X63653Y125338D02*
Y126125D01*
X60231Y105572D02*
X61019D01*
X60625Y105178D02*
Y105965D01*
X67506Y105600D02*
X68294D01*
X67900Y105206D02*
Y105994D01*
X56429Y105572D02*
X57217D01*
X56823Y105178D02*
Y105965D01*
X66806Y115900D02*
X67594D01*
X67200Y115506D02*
Y116294D01*
X82406Y63000D02*
X83194D01*
X82800Y62606D02*
Y63394D01*
X82406Y66500D02*
X83194D01*
X82800Y66106D02*
Y66894D01*
X82306Y70500D02*
X83094D01*
X82700Y70106D02*
Y70894D01*
X85806Y43200D02*
X86594D01*
X86200Y42806D02*
Y43594D01*
X83206Y43400D02*
X83994D01*
X83600Y43006D02*
Y43794D01*
X81806Y48700D02*
X82594D01*
X82200Y48306D02*
Y49094D01*
X81906Y45300D02*
X82694D01*
X82300Y44906D02*
Y45694D01*
X84606Y45300D02*
X85394D01*
X85000Y44906D02*
Y45694D01*
X81806Y60700D02*
X82594D01*
X82200Y60306D02*
Y61094D01*
X81806Y57050D02*
X82594D01*
X82200Y56656D02*
Y57444D01*
X10606Y91500D02*
X11394D01*
X11000Y91106D02*
Y91894D01*
X94406Y78000D02*
X95194D01*
X94800Y77606D02*
Y78394D01*
X91406Y78000D02*
X92194D01*
X91800Y77606D02*
Y78394D01*
X52906Y40100D02*
X53694D01*
X53300Y39706D02*
Y40494D01*
X7598Y53700D02*
X8385D01*
X7991Y53306D02*
Y54094D01*
X9051Y50544D02*
X9838D01*
X9444Y50151D02*
Y50938D01*
X9706Y62900D02*
X10494D01*
X10100Y62506D02*
Y63294D01*
X78835Y133083D02*
X79622D01*
X79228Y132690D02*
Y133477D01*
X66306Y94600D02*
X67094D01*
X66700Y94206D02*
Y94994D01*
X92006Y42700D02*
X92794D01*
X92400Y42306D02*
Y43094D01*
X88106Y42700D02*
X88894D01*
X88500Y42306D02*
Y43094D01*
X75706Y66400D02*
X76494D01*
X76100Y66006D02*
Y66794D01*
X73357Y64271D02*
X74144D01*
X73750Y63878D02*
Y64665D01*
X77857Y64271D02*
X78644D01*
X78250Y63878D02*
Y64665D01*
X77906Y91700D02*
X78694D01*
X78300Y91306D02*
Y92094D01*
X59217Y85314D02*
X60005D01*
X59611Y84921D02*
Y85708D01*
X3833Y135475D02*
X4620D01*
X4227Y135082D02*
Y135869D01*
X9406Y135500D02*
X10194D01*
X9800Y135106D02*
Y135894D01*
X41206Y134900D02*
X41994D01*
X41600Y134506D02*
Y135294D01*
X35506Y134900D02*
X36294D01*
X35900Y134506D02*
Y135294D01*
X29806Y134900D02*
X30594D01*
X30200Y134506D02*
Y135294D01*
X94606Y26300D02*
X95394D01*
X95000Y25906D02*
Y26694D01*
X94606Y21200D02*
X95394D01*
X95000Y20806D02*
Y21594D01*
X94606Y13200D02*
X95394D01*
X95000Y12806D02*
Y13594D01*
X94406Y3900D02*
X95194D01*
X94800Y3506D02*
Y4294D01*
X83006Y3900D02*
X83794D01*
X83400Y3506D02*
Y4294D01*
X71706Y3900D02*
X72494D01*
X72100Y3506D02*
Y4294D01*
X59506Y3700D02*
X60294D01*
X59900Y3306D02*
Y4094D01*
X54181Y3700D02*
X54969D01*
X54575Y3306D02*
Y4094D01*
X48856Y3700D02*
X49644D01*
X49250Y3306D02*
Y4094D01*
X43531Y3700D02*
X44319D01*
X43925Y3306D02*
Y4094D01*
X38206Y3700D02*
X38994D01*
X38600Y3306D02*
Y4094D01*
X44306Y112436D02*
X45094D01*
X44700Y112042D02*
Y112830D01*
X46306Y103200D02*
X47094D01*
X46700Y102806D02*
Y103594D01*
X38176Y86100D02*
X38964D01*
X38570Y85706D02*
Y86494D01*
X42006Y103200D02*
X42794D01*
X42400Y102806D02*
Y103594D01*
X51106Y102500D02*
X51894D01*
X51500Y102106D02*
Y102894D01*
X44206Y103200D02*
X44994D01*
X44600Y102806D02*
Y103594D01*
X48026Y86110D02*
X48814D01*
X48420Y85716D02*
Y86504D01*
X90406Y98100D02*
X91194D01*
X90800Y97706D02*
Y98494D01*
X92906Y102867D02*
X93694D01*
X93300Y102473D02*
Y103260D01*
X92906Y108833D02*
X93694D01*
X93300Y108440D02*
Y109227D01*
X92906Y114800D02*
X93694D01*
X93300Y114406D02*
Y115194D01*
X92906Y120767D02*
X93694D01*
X93300Y120373D02*
Y121160D01*
X92906Y126733D02*
X93694D01*
X93300Y126340D02*
Y127127D01*
X92906Y132700D02*
X93694D01*
X93300Y132306D02*
Y133094D01*
X3806Y108200D02*
X4594D01*
X4200Y107806D02*
Y108594D01*
X3806Y113875D02*
X4594D01*
X4200Y113481D02*
Y114269D01*
X3806Y119550D02*
X4594D01*
X4200Y119156D02*
Y119944D01*
X3806Y125225D02*
X4594D01*
X4200Y124831D02*
Y125619D01*
X3806Y130900D02*
X4594D01*
X4200Y130506D02*
Y131294D01*
X31706Y101300D02*
X32494D01*
X32100Y100906D02*
Y101694D01*
X27640Y101300D02*
X28427D01*
X28033Y100906D02*
Y101694D01*
X23573Y101300D02*
X24360D01*
X23967Y100906D02*
Y101694D01*
X19506Y101300D02*
X20294D01*
X19900Y100906D02*
Y101694D01*
X52940Y43771D02*
X53727D01*
X53334Y43378D02*
Y44165D01*
X9406Y109800D02*
X10194D01*
X9800Y109406D02*
Y110194D01*
X9406Y113400D02*
X10194D01*
X9800Y113006D02*
Y113794D01*
X9406Y124500D02*
X10194D01*
X9800Y124106D02*
Y124894D01*
X9406Y127950D02*
X10194D01*
X9800Y127556D02*
Y128344D01*
X15506Y103800D02*
X16294D01*
X15900Y103406D02*
Y104194D01*
X15506Y102000D02*
X16294D01*
X15900Y101606D02*
Y102394D01*
X15506Y100200D02*
X16294D01*
X15900Y99806D02*
Y100594D01*
X11709Y26000D02*
X12890D01*
X12300Y25409D02*
Y26591D01*
X9409Y26000D02*
X10591D01*
X10000Y25409D02*
Y26591D01*
X4709Y46800D02*
X5891D01*
X5300Y46209D02*
Y47391D01*
X10606Y67600D02*
X11394D01*
X11000Y67206D02*
Y67994D01*
X39760Y34500D02*
X40547D01*
X40154Y34106D02*
Y34894D01*
X24509Y10700D02*
X25691D01*
X25100Y10109D02*
Y11291D01*
X24509Y13000D02*
X25691D01*
X25100Y12409D02*
Y13590D01*
X27106Y55600D02*
X27894D01*
X27500Y55206D02*
Y55994D01*
X25506Y53500D02*
X26294D01*
X25900Y53106D02*
Y53894D01*
X25606Y48400D02*
X26394D01*
X26000Y48006D02*
Y48794D01*
X44400Y63500D02*
X45600D01*
X45000Y62900D02*
Y64100D01*
X44400Y59564D02*
X45600D01*
X45000Y58964D02*
Y60164D01*
X44398Y67436D02*
X45598D01*
X44998Y66836D02*
Y68036D01*
X48337Y67438D02*
X49537D01*
X48937Y66838D02*
Y68038D01*
X40463Y67438D02*
X41663D01*
X41063Y66838D02*
Y68038D01*
X48336Y59564D02*
X49536D01*
X48936Y58964D02*
Y60164D01*
X48336Y63500D02*
X49536D01*
X48936Y62900D02*
Y64100D01*
X40463Y59564D02*
X41663D01*
X41063Y58964D02*
Y60164D01*
X40463Y63501D02*
X41663D01*
X41063Y62901D02*
Y64101D01*
X61606Y58500D02*
X62394D01*
X62000Y58106D02*
Y58894D01*
X62906Y70700D02*
X63694D01*
X63300Y70306D02*
Y71094D01*
X26306Y70900D02*
X27094D01*
X26700Y70506D02*
Y71294D01*
X60606Y73800D02*
X61394D01*
X61000Y73406D02*
Y74194D01*
X48506Y74500D02*
X49294D01*
X48900Y74106D02*
Y74894D01*
X61106Y60700D02*
X61894D01*
X61500Y60306D02*
Y61094D01*
X57506Y50100D02*
X58294D01*
X57900Y49706D02*
Y50494D01*
X45806Y47673D02*
X46594D01*
X46200Y47279D02*
Y48066D01*
X65906Y70300D02*
X66694D01*
X66300Y69906D02*
Y70694D01*
X26306Y68600D02*
X27094D01*
X26700Y68206D02*
Y68994D01*
X67206Y68200D02*
X67994D01*
X67600Y67806D02*
Y68594D01*
X26306Y65600D02*
X27094D01*
X26700Y65206D02*
Y65994D01*
X43487Y47673D02*
X44275D01*
X43881Y47279D02*
Y48066D01*
X56906Y112100D02*
X57694D01*
X57300Y111706D02*
Y112494D01*
X85206Y89400D02*
X85994D01*
X85600Y89006D02*
Y89794D01*
X83906Y79600D02*
X84694D01*
X84300Y79206D02*
Y79994D01*
X9406Y131400D02*
X10194D01*
X9800Y131006D02*
Y131794D01*
X9406Y106200D02*
X10194D01*
X9800Y105806D02*
Y106594D01*
X14222Y118827D02*
X15010D01*
X14616Y118433D02*
Y119220D01*
X66006Y127300D02*
X66794D01*
X66400Y126906D02*
Y127694D01*
X87406Y135000D02*
X88194D01*
X87800Y134606D02*
Y135394D01*
X73650Y131000D02*
X74437D01*
X74043Y130606D02*
Y131394D01*
X73650Y135000D02*
X74437D01*
X74043Y134606D02*
Y135394D01*
X54280Y134870D02*
X55067D01*
X54673Y134476D02*
Y135264D01*
X50279Y134870D02*
X51067D01*
X50673Y134476D02*
Y135264D01*
X59443Y134935D02*
X60230D01*
X59837Y134541D02*
Y135329D01*
X78835Y118067D02*
X79622D01*
X79228Y117673D02*
Y118460D01*
X76906Y109900D02*
X77694D01*
X77300Y109506D02*
Y110294D01*
X75706Y120200D02*
X76494D01*
X76100Y119806D02*
Y120594D01*
X64706Y98400D02*
X65494D01*
X65100Y98006D02*
Y98794D01*
X62006Y98400D02*
X62794D01*
X62400Y98006D02*
Y98794D01*
X66306Y90200D02*
X67094D01*
X66700Y89806D02*
Y90594D01*
X57606Y92200D02*
X58394D01*
X58000Y91806D02*
Y92594D01*
X26606Y91200D02*
X27394D01*
X27000Y90806D02*
Y91594D01*
X32063Y81500D02*
X32851D01*
X32457Y81107D02*
Y81894D01*
X10606Y82300D02*
X11394D01*
X11000Y81906D02*
Y82694D01*
X23156Y82872D02*
X23944D01*
X23550Y82478D02*
Y83265D01*
X58299Y34500D02*
X59087D01*
X58693Y34106D02*
Y34894D01*
X60006Y37900D02*
X60794D01*
X60400Y37506D02*
Y38294D01*
X57706Y40200D02*
X58494D01*
X58100Y39806D02*
Y40594D01*
X77453Y32000D02*
X78240D01*
X77846Y31607D02*
Y32394D01*
X64506Y37300D02*
X65294D01*
X64900Y36906D02*
Y37694D01*
X68706Y37300D02*
X69494D01*
X69100Y36906D02*
Y37694D01*
X79606Y40457D02*
X80393D01*
X80000Y40063D02*
Y40851D01*
X62906Y46700D02*
X63694D01*
X63300Y46306D02*
Y47094D01*
X80106Y66500D02*
X80894D01*
X80500Y66106D02*
Y66894D01*
X57506Y86700D02*
X58294D01*
X57900Y86306D02*
Y87094D01*
X35806Y81500D02*
X36594D01*
X36200Y81106D02*
Y81894D01*
X30506Y45400D02*
X31294D01*
X30900Y45006D02*
Y45794D01*
X30606Y42500D02*
X31394D01*
X31000Y42106D02*
Y42894D01*
X37878Y43500D02*
X38665D01*
X38271Y43106D02*
Y43893D01*
X24509Y15300D02*
X25691D01*
X25100Y14709D02*
Y15890D01*
X26909Y40729D02*
X28090D01*
X27500Y40138D02*
Y41319D01*
X7109Y26000D02*
X8291D01*
X7700Y25409D02*
Y26591D01*
X7309Y42500D02*
X8491D01*
X7900Y41909D02*
Y43091D01*
X8306Y4900D02*
X9094D01*
X8700Y4506D02*
Y5294D01*
X8306Y8700D02*
X9094D01*
X8700Y8306D02*
Y9094D01*
X11806Y8800D02*
X12594D01*
X12200Y8406D02*
Y9194D01*
X11606Y17900D02*
X12394D01*
X12000Y17506D02*
Y18294D01*
X77806Y60600D02*
X78594D01*
X78200Y60206D02*
Y60994D01*
X73306Y60600D02*
X74094D01*
X73700Y60206D02*
Y60994D01*
X89606Y9200D02*
X90394D01*
X90000Y8806D02*
Y9594D01*
X76106Y9200D02*
X76894D01*
X76500Y8806D02*
Y9594D01*
X70306Y32100D02*
X71094D01*
X70700Y31706D02*
Y32494D01*
X16606Y43500D02*
X17394D01*
X17000Y43106D02*
Y43894D01*
X80006Y27400D02*
X80794D01*
X80400Y27006D02*
Y27794D01*
X77206Y37200D02*
X77994D01*
X77600Y36806D02*
Y37594D01*
X72706Y37200D02*
X73494D01*
X73100Y36806D02*
Y37594D01*
X48606Y40200D02*
X49394D01*
X49000Y39806D02*
Y40594D01*
X4606Y4728D02*
X5394D01*
X5000Y4335D02*
Y5122D01*
X11788Y5100D02*
X12576D01*
X12182Y4706D02*
Y5494D01*
X12201Y12807D02*
X12988D01*
X12595Y12413D02*
Y13201D01*
X4606Y20300D02*
X5394D01*
X5000Y19906D02*
Y20694D01*
X80006Y91700D02*
X80794D01*
X80400Y91306D02*
Y92094D01*
X78806Y134900D02*
X79594D01*
X79200Y134506D02*
Y135294D01*
X29706Y97200D02*
X30494D01*
X30100Y96806D02*
Y97594D01*
X22306Y133600D02*
X23094D01*
X22700Y133206D02*
Y133994D01*
X20706Y132000D02*
X21494D01*
X21100Y131606D02*
Y132394D01*
X23606Y131900D02*
X24394D01*
X24000Y131506D02*
Y132294D01*
X23506Y135000D02*
X24294D01*
X23900Y134606D02*
Y135394D01*
X20806Y134900D02*
X21594D01*
X21200Y134506D02*
Y135294D01*
X62506Y131000D02*
X63294D01*
X62900Y130606D02*
Y131394D01*
X58535Y128310D02*
X59323D01*
X58929Y127917D02*
Y128704D01*
X82506Y131100D02*
X83294D01*
X82900Y130706D02*
Y131494D01*
X66806Y112100D02*
X67594D01*
X67200Y111706D02*
Y112494D01*
X68128Y130900D02*
X68915D01*
X68522Y130506D02*
Y131294D01*
X68128Y132976D02*
X68915D01*
X68522Y132583D02*
Y133370D01*
X68128Y134800D02*
X68915D01*
X68522Y134406D02*
Y135194D01*
X36606Y124767D02*
X37394D01*
X37000Y124373D02*
Y125161D01*
X36606Y122011D02*
X37394D01*
X37000Y121617D02*
Y122405D01*
X36606Y118861D02*
X37394D01*
X37000Y118468D02*
Y119255D01*
X36606Y116105D02*
X37394D01*
X37000Y115712D02*
Y116499D01*
X36606Y112956D02*
X37394D01*
X37000Y112562D02*
Y113350D01*
X36606Y110200D02*
X37394D01*
X37000Y109806D02*
Y110594D01*
X44362Y128310D02*
X45150D01*
X44756Y127917D02*
Y128704D01*
X47118Y128310D02*
X47905D01*
X47512Y127917D02*
Y128704D01*
X38850Y128310D02*
X39638D01*
X39244Y127917D02*
Y128704D01*
X41606Y128310D02*
X42394D01*
X42000Y127917D02*
Y128704D01*
X55779Y128310D02*
X56567D01*
X56173Y127917D02*
Y128704D01*
X53024Y128310D02*
X53811D01*
X53417Y127917D02*
Y128704D01*
X41706Y112436D02*
X42494D01*
X42100Y112042D02*
Y112830D01*
X50206Y112436D02*
X50994D01*
X50600Y112042D02*
Y112830D01*
X8181Y79100D02*
X8969D01*
X8575Y78706D02*
Y79494D01*
X8181Y76012D02*
X8969D01*
X8575Y75619D02*
Y76406D01*
X8181Y72925D02*
X8969D01*
X8575Y72531D02*
Y73319D01*
X83606Y83500D02*
X84394D01*
X84000Y83106D02*
Y83894D01*
X80106Y72075D02*
X80893D01*
X80500Y71681D02*
Y72469D01*
X75954Y72075D02*
X76742D01*
X76348Y71681D02*
Y72469D01*
X22506Y52600D02*
X23294D01*
X22900Y52206D02*
Y52994D01*
X87606Y27500D02*
X88394D01*
X88000Y27106D02*
Y27894D01*
X74306Y32000D02*
X75094D01*
X74700Y31606D02*
Y32394D01*
X3335Y34300D02*
X4122D01*
X3729Y33907D02*
Y34694D01*
X7109Y15300D02*
X8291D01*
X7700Y14709D02*
Y15890D01*
X46106Y24060D02*
X46894D01*
X46500Y23667D02*
Y24454D01*
X49906Y24000D02*
X50694D01*
X50300Y23606D02*
Y24394D01*
M02*
