G04*
G04 #@! TF.GenerationSoftware,Altium Limited,Altium Designer,20.1.14 (287)*
G04*
G04 Layer_Physical_Order=4*
G04 Layer_Color=16711680*
%FSLAX25Y25*%
%MOIN*%
G70*
G04*
G04 #@! TF.SameCoordinates,C6E2488E-A08A-4CE9-B207-DE92606EBE29*
G04*
G04*
G04 #@! TF.FilePolarity,Positive*
G04*
G01*
G75*
%ADD17C,0.00600*%
%ADD116C,0.02400*%
%ADD117C,0.01500*%
%ADD122C,0.02559*%
%ADD123O,0.03937X0.07874*%
%ADD124O,0.03543X0.07087*%
%ADD125C,0.01575*%
%ADD126C,0.02362*%
G36*
X45328Y112921D02*
X45380Y112878D01*
X45435Y112839D01*
X45494Y112805D01*
X45555Y112777D01*
X45620Y112754D01*
X45688Y112736D01*
X45759Y112723D01*
X45833Y112715D01*
X45910Y112713D01*
X45890Y112113D01*
X45814Y112110D01*
X45739Y112103D01*
X45668Y112091D01*
X45600Y112074D01*
X45534Y112051D01*
X45471Y112025D01*
X45410Y111993D01*
X45353Y111956D01*
X45298Y111915D01*
X45246Y111868D01*
X45279Y112970D01*
X45328Y112921D01*
D02*
G37*
G36*
X42889Y112359D02*
X42897Y112291D01*
X42911Y112224D01*
X42930Y112159D01*
X42954Y112095D01*
X42984Y112033D01*
X43020Y111972D01*
X43061Y111913D01*
X43108Y111856D01*
X43161Y111800D01*
X42737Y111375D01*
X42680Y111428D01*
X42623Y111475D01*
X42564Y111516D01*
X42503Y111552D01*
X42441Y111582D01*
X42377Y111607D01*
X42312Y111626D01*
X42246Y111639D01*
X42178Y111647D01*
X42108Y111649D01*
X42887Y112428D01*
X42889Y112359D01*
D02*
G37*
G36*
X50618Y111649D02*
X50548Y111645D01*
X50480Y111635D01*
X50413Y111620D01*
X50348Y111600D01*
X50284Y111574D01*
X50222Y111543D01*
X50162Y111506D01*
X50103Y111465D01*
X50045Y111417D01*
X49989Y111365D01*
X49550Y111774D01*
X49603Y111831D01*
X49650Y111889D01*
X49691Y111948D01*
X49726Y112008D01*
X49755Y112071D01*
X49778Y112134D01*
X49796Y112199D01*
X49808Y112266D01*
X49813Y112333D01*
X49813Y112403D01*
X50618Y111649D01*
D02*
G37*
G36*
X42702Y104323D02*
X42710Y104250D01*
X42723Y104178D01*
X42740Y104110D01*
X42763Y104045D01*
X42790Y103983D01*
X42823Y103923D01*
X42861Y103867D01*
X42904Y103813D01*
X42951Y103762D01*
X41849D01*
X41897Y103813D01*
X41939Y103867D01*
X41977Y103923D01*
X42010Y103983D01*
X42037Y104045D01*
X42060Y104110D01*
X42077Y104178D01*
X42090Y104250D01*
X42097Y104323D01*
X42100Y104401D01*
X42700D01*
X42702Y104323D01*
D02*
G37*
G36*
X45087Y104292D02*
X45088Y104216D01*
X45103Y104070D01*
X45116Y104000D01*
X45132Y103931D01*
X45152Y103865D01*
X45176Y103800D01*
X45203Y103737D01*
X45234Y103675D01*
X45269Y103616D01*
X44198Y103877D01*
X44253Y103913D01*
X44302Y103955D01*
X44345Y104001D01*
X44383Y104051D01*
X44414Y104106D01*
X44440Y104166D01*
X44460Y104231D01*
X44475Y104300D01*
X44484Y104373D01*
X44486Y104452D01*
X45087Y104292D01*
D02*
G37*
G36*
X47761Y103837D02*
X47708Y103780D01*
X47661Y103723D01*
X47620Y103664D01*
X47584Y103603D01*
X47554Y103541D01*
X47530Y103477D01*
X47510Y103412D01*
X47497Y103346D01*
X47490Y103278D01*
X47487Y103208D01*
X46708Y103987D01*
X46777Y103990D01*
X46846Y103997D01*
X46912Y104010D01*
X46977Y104029D01*
X47041Y104054D01*
X47103Y104084D01*
X47164Y104120D01*
X47223Y104161D01*
X47280Y104208D01*
X47337Y104261D01*
X47761Y103837D01*
D02*
G37*
G36*
X48924Y85497D02*
X48881Y85443D01*
X48843Y85387D01*
X48810Y85327D01*
X48783Y85265D01*
X48760Y85200D01*
X48743Y85132D01*
X48730Y85061D01*
X48722Y84987D01*
X48720Y84910D01*
X48120D01*
X48118Y84987D01*
X48110Y85061D01*
X48097Y85132D01*
X48080Y85200D01*
X48057Y85265D01*
X48030Y85327D01*
X47997Y85387D01*
X47959Y85443D01*
X47916Y85497D01*
X47869Y85548D01*
X48971D01*
X48924Y85497D01*
D02*
G37*
G36*
X39074Y85487D02*
X39031Y85433D01*
X38993Y85377D01*
X38960Y85317D01*
X38933Y85255D01*
X38910Y85190D01*
X38893Y85122D01*
X38880Y85050D01*
X38873Y84977D01*
X38870Y84899D01*
X38270D01*
X38267Y84977D01*
X38260Y85050D01*
X38247Y85122D01*
X38230Y85190D01*
X38207Y85255D01*
X38180Y85317D01*
X38147Y85377D01*
X38109Y85433D01*
X38067Y85487D01*
X38019Y85538D01*
X39121D01*
X39074Y85487D01*
D02*
G37*
G36*
X84178Y82733D02*
X84111Y82715D01*
X84046Y82694D01*
X83982Y82669D01*
X83919Y82640D01*
X83858Y82607D01*
X83798Y82570D01*
X83739Y82529D01*
X83682Y82485D01*
X83571Y82384D01*
X83034Y82696D01*
X83087Y82754D01*
X83133Y82812D01*
X83172Y82871D01*
X83203Y82931D01*
X83227Y82991D01*
X83244Y83053D01*
X83253Y83115D01*
X83255Y83178D01*
X83249Y83242D01*
X83237Y83307D01*
X84178Y82733D01*
D02*
G37*
G36*
X9525Y76838D02*
X9471Y76780D01*
X9425Y76722D01*
X9387Y76663D01*
X9356Y76604D01*
X9333Y76543D01*
X9318Y76482D01*
X9310Y76421D01*
X9309Y76359D01*
X9316Y76296D01*
X9331Y76232D01*
X8371Y76773D01*
X8436Y76792D01*
X8500Y76816D01*
X8563Y76842D01*
X8624Y76873D01*
X8685Y76907D01*
X8744Y76945D01*
X8859Y77031D01*
X8915Y77079D01*
X8970Y77132D01*
X9525Y76838D01*
D02*
G37*
G36*
X61303Y74923D02*
X61310Y74849D01*
X61323Y74778D01*
X61340Y74710D01*
X61363Y74645D01*
X61390Y74583D01*
X61423Y74523D01*
X61461Y74467D01*
X61503Y74413D01*
X61551Y74362D01*
X60449D01*
X60496Y74413D01*
X60539Y74467D01*
X60577Y74523D01*
X60610Y74583D01*
X60637Y74645D01*
X60660Y74710D01*
X60677Y74778D01*
X60690Y74849D01*
X60698Y74923D01*
X60700Y75001D01*
X61300D01*
X61303Y74923D01*
D02*
G37*
G36*
X48338Y73949D02*
X48287Y73997D01*
X48233Y74039D01*
X48177Y74077D01*
X48117Y74110D01*
X48055Y74137D01*
X47990Y74160D01*
X47922Y74177D01*
X47850Y74190D01*
X47776Y74198D01*
X47699Y74200D01*
Y74800D01*
X47776Y74803D01*
X47850Y74810D01*
X47922Y74823D01*
X47990Y74840D01*
X48055Y74863D01*
X48117Y74890D01*
X48177Y74923D01*
X48233Y74961D01*
X48287Y75003D01*
X48338Y75051D01*
Y73949D01*
D02*
G37*
G36*
X7920Y73897D02*
X7978Y73851D01*
X8037Y73810D01*
X8098Y73777D01*
X8160Y73749D01*
X8223Y73728D01*
X8288Y73713D01*
X8353Y73705D01*
X8421Y73703D01*
X8489Y73708D01*
X7791Y72855D01*
X7782Y72924D01*
X7768Y72992D01*
X7750Y73058D01*
X7727Y73123D01*
X7699Y73186D01*
X7666Y73248D01*
X7628Y73308D01*
X7585Y73367D01*
X7537Y73424D01*
X7485Y73480D01*
X7863Y73950D01*
X7920Y73897D01*
D02*
G37*
G36*
X79937Y71524D02*
X79887Y71572D01*
X79833Y71614D01*
X79777Y71652D01*
X79717Y71685D01*
X79655Y71712D01*
X79589Y71735D01*
X79521Y71753D01*
X79450Y71765D01*
X79376Y71773D01*
X79299Y71775D01*
Y72375D01*
X79376Y72378D01*
X79450Y72385D01*
X79521Y72398D01*
X79589Y72415D01*
X79655Y72438D01*
X79717Y72465D01*
X79777Y72498D01*
X79833Y72536D01*
X79887Y72579D01*
X79937Y72626D01*
Y71524D01*
D02*
G37*
G36*
X64409Y71173D02*
X64357Y71118D01*
X64309Y71062D01*
X64265Y71004D01*
X64225Y70944D01*
X64190Y70884D01*
X64158Y70821D01*
X64131Y70758D01*
X64108Y70693D01*
X64089Y70626D01*
X64074Y70558D01*
X63457Y71472D01*
X63524Y71461D01*
X63589Y71458D01*
X63653Y71462D01*
X63716Y71473D01*
X63778Y71491D01*
X63840Y71516D01*
X63900Y71548D01*
X63959Y71588D01*
X64017Y71634D01*
X64074Y71687D01*
X64409Y71173D01*
D02*
G37*
G36*
X76820Y71439D02*
X76784Y71395D01*
X76752Y71347D01*
X76725Y71293D01*
X76701Y71236D01*
X76682Y71173D01*
X76667Y71105D01*
X76657Y71033D01*
X76650Y70956D01*
X76648Y70875D01*
X76048D01*
X76046Y70956D01*
X76040Y71033D01*
X76029Y71105D01*
X76014Y71173D01*
X75995Y71236D01*
X75972Y71293D01*
X75944Y71347D01*
X75912Y71395D01*
X75876Y71439D01*
X75835Y71478D01*
X76861D01*
X76820Y71439D01*
D02*
G37*
G36*
X26692Y70113D02*
X26623Y70110D01*
X26554Y70103D01*
X26488Y70090D01*
X26423Y70071D01*
X26359Y70046D01*
X26297Y70016D01*
X26236Y69980D01*
X26177Y69939D01*
X26120Y69892D01*
X26063Y69839D01*
X25639Y70263D01*
X25692Y70319D01*
X25739Y70377D01*
X25780Y70436D01*
X25816Y70497D01*
X25846Y70559D01*
X25870Y70623D01*
X25890Y70688D01*
X25903Y70754D01*
X25910Y70823D01*
X25913Y70892D01*
X26692Y70113D01*
D02*
G37*
G36*
X66913Y70803D02*
X66967Y70761D01*
X67023Y70723D01*
X67083Y70690D01*
X67145Y70663D01*
X67210Y70640D01*
X67278Y70623D01*
X67349Y70610D01*
X67423Y70603D01*
X67501Y70600D01*
Y70000D01*
X67423Y69998D01*
X67349Y69990D01*
X67278Y69977D01*
X67210Y69960D01*
X67145Y69937D01*
X67083Y69910D01*
X67023Y69877D01*
X66967Y69839D01*
X66913Y69797D01*
X66862Y69749D01*
Y70851D01*
X66913Y70803D01*
D02*
G37*
G36*
X68716Y68628D02*
X68664Y68573D01*
X68571Y68459D01*
X68530Y68401D01*
X68493Y68341D01*
X68460Y68279D01*
X68431Y68217D01*
X68406Y68153D01*
X68384Y68088D01*
X68367Y68021D01*
X67794Y68963D01*
X67859Y68950D01*
X67923Y68945D01*
X67986Y68946D01*
X68048Y68956D01*
X68110Y68972D01*
X68170Y68996D01*
X68230Y69027D01*
X68289Y69066D01*
X68347Y69112D01*
X68405Y69165D01*
X68716Y68628D01*
D02*
G37*
G36*
X26212Y67982D02*
X26156Y68023D01*
X26097Y68060D01*
X26037Y68093D01*
X25973Y68121D01*
X25908Y68146D01*
X25841Y68165D01*
X25771Y68180D01*
X25699Y68191D01*
X25626Y68198D01*
X25549Y68200D01*
X25466Y68800D01*
X25544Y68803D01*
X25618Y68811D01*
X25688Y68825D01*
X25754Y68844D01*
X25816Y68869D01*
X25875Y68899D01*
X25930Y68935D01*
X25981Y68976D01*
X26029Y69023D01*
X26072Y69075D01*
X26212Y67982D01*
D02*
G37*
G36*
X26027Y66562D02*
X26085Y66516D01*
X26145Y66476D01*
X26205Y66442D01*
X26267Y66416D01*
X26330Y66395D01*
X26394Y66382D01*
X26460Y66375D01*
X26526Y66374D01*
X26594Y66380D01*
X25918Y65510D01*
X25907Y65579D01*
X25892Y65646D01*
X25873Y65713D01*
X25848Y65777D01*
X25819Y65840D01*
X25785Y65902D01*
X25747Y65962D01*
X25704Y66020D01*
X25656Y66077D01*
X25604Y66133D01*
X25970Y66615D01*
X26027Y66562D01*
D02*
G37*
G36*
X62245Y60964D02*
X62260Y60952D01*
X62280Y60942D01*
X62307Y60932D01*
X62339Y60925D01*
X62378Y60918D01*
X62423Y60913D01*
X62530Y60908D01*
X62593Y60907D01*
Y60307D01*
X62515Y60306D01*
X62238Y60289D01*
X62205Y60282D01*
X62179Y60275D01*
X62161Y60266D01*
X62151Y60257D01*
X62237Y60978D01*
X62245Y60964D01*
D02*
G37*
G36*
X61492Y59913D02*
X61422Y59911D01*
X61354Y59903D01*
X61288Y59890D01*
X61223Y59871D01*
X61159Y59846D01*
X61097Y59816D01*
X61036Y59780D01*
X60977Y59739D01*
X60919Y59692D01*
X60863Y59639D01*
X60439Y60063D01*
X60492Y60119D01*
X60539Y60177D01*
X60580Y60236D01*
X60616Y60297D01*
X60646Y60359D01*
X60671Y60423D01*
X60690Y60488D01*
X60703Y60554D01*
X60711Y60623D01*
X60713Y60692D01*
X61492Y59913D01*
D02*
G37*
G36*
X62707Y58856D02*
X62730Y58835D01*
X62759Y58817D01*
X62795Y58801D01*
X62837Y58787D01*
X62885Y58776D01*
X62940Y58768D01*
X63002Y58762D01*
X63143Y58757D01*
Y58157D01*
X63062Y58156D01*
X62861Y58139D01*
X62808Y58130D01*
X62761Y58118D01*
X62722Y58103D01*
X62689Y58087D01*
X62663Y58068D01*
X62644Y58048D01*
X62690Y58879D01*
X62707Y58856D01*
D02*
G37*
G36*
X61438Y57949D02*
X61387Y57996D01*
X61333Y58039D01*
X61277Y58077D01*
X61217Y58110D01*
X61155Y58137D01*
X61090Y58160D01*
X61022Y58177D01*
X60950Y58190D01*
X60877Y58197D01*
X60799Y58200D01*
Y58800D01*
X60877Y58802D01*
X60950Y58810D01*
X61022Y58823D01*
X61090Y58840D01*
X61155Y58863D01*
X61217Y58890D01*
X61277Y58923D01*
X61333Y58961D01*
X61387Y59004D01*
X61438Y59051D01*
Y57949D01*
D02*
G37*
G36*
X28282Y55734D02*
X28307Y55685D01*
X28338Y55642D01*
X28377Y55604D01*
X28422Y55572D01*
X28475Y55546D01*
X28534Y55526D01*
X28600Y55512D01*
X28673Y55503D01*
X28754Y55500D01*
X28651Y54900D01*
X27741Y54850D01*
X28264Y55789D01*
X28282Y55734D01*
D02*
G37*
G36*
X8781Y53623D02*
X8788Y53554D01*
X8802Y53488D01*
X8821Y53423D01*
X8845Y53359D01*
X8875Y53297D01*
X8911Y53236D01*
X8953Y53177D01*
X9000Y53119D01*
X9052Y53063D01*
X8628Y52639D01*
X8572Y52692D01*
X8514Y52739D01*
X8455Y52780D01*
X8394Y52816D01*
X8332Y52846D01*
X8269Y52871D01*
X8204Y52890D01*
X8137Y52903D01*
X8069Y52911D01*
X7999Y52913D01*
X8779Y53692D01*
X8781Y53623D01*
D02*
G37*
G36*
X22338Y52049D02*
X22287Y52096D01*
X22233Y52139D01*
X22177Y52177D01*
X22117Y52210D01*
X22055Y52237D01*
X21990Y52260D01*
X21922Y52277D01*
X21850Y52290D01*
X21777Y52298D01*
X21700Y52300D01*
Y52900D01*
X21777Y52903D01*
X21850Y52910D01*
X21922Y52923D01*
X21990Y52940D01*
X22055Y52963D01*
X22117Y52990D01*
X22177Y53023D01*
X22233Y53061D01*
X22287Y53104D01*
X22338Y53151D01*
Y52049D01*
D02*
G37*
G36*
X25420Y49408D02*
X25477Y49361D01*
X25536Y49320D01*
X25597Y49284D01*
X25659Y49254D01*
X25723Y49229D01*
X25788Y49211D01*
X25854Y49197D01*
X25923Y49189D01*
X25992Y49187D01*
X25213Y48408D01*
X25210Y48478D01*
X25203Y48546D01*
X25190Y48612D01*
X25171Y48677D01*
X25146Y48741D01*
X25116Y48803D01*
X25080Y48864D01*
X25039Y48923D01*
X24992Y48981D01*
X24939Y49037D01*
X25363Y49461D01*
X25420Y49408D01*
D02*
G37*
G36*
X46147Y46887D02*
X46078Y46889D01*
X46010Y46885D01*
X45944Y46874D01*
X45879Y46858D01*
X45816Y46835D01*
X45754Y46806D01*
X45693Y46772D01*
X45634Y46731D01*
X45576Y46685D01*
X45519Y46632D01*
X45121Y47082D01*
X45174Y47138D01*
X45221Y47196D01*
X45263Y47254D01*
X45300Y47315D01*
X45332Y47377D01*
X45359Y47440D01*
X45380Y47506D01*
X45397Y47572D01*
X45408Y47640D01*
X45414Y47710D01*
X46147Y46887D01*
D02*
G37*
G36*
X44371Y47057D02*
X44320Y47012D01*
X44274Y46963D01*
X44233Y46911D01*
X44198Y46855D01*
X44168Y46795D01*
X44143Y46733D01*
X44124Y46666D01*
X44111Y46595D01*
X44103Y46521D01*
X44100Y46444D01*
X43500Y46511D01*
X43498Y46588D01*
X43491Y46662D01*
X43480Y46733D01*
X43464Y46803D01*
X43444Y46870D01*
X43419Y46935D01*
X43390Y46997D01*
X43356Y47057D01*
X43318Y47115D01*
X43275Y47170D01*
X44371Y47057D01*
D02*
G37*
G36*
X27189Y41868D02*
X26336Y40528D01*
X26325Y40551D01*
X26300Y40572D01*
X26262Y40590D01*
X26210Y40606D01*
X26144Y40620D01*
X26065Y40630D01*
X25866Y40645D01*
X25613Y40650D01*
X25819Y42150D01*
X27189Y41868D01*
D02*
G37*
G36*
X4442Y38848D02*
X4484Y38799D01*
X4529Y38755D01*
X4580Y38718D01*
X4635Y38686D01*
X4695Y38660D01*
X4759Y38640D01*
X4828Y38625D01*
X4902Y38617D01*
X4980Y38614D01*
X4820Y38014D01*
X4745Y38012D01*
X4599Y37997D01*
X4528Y37985D01*
X4460Y37968D01*
X4393Y37948D01*
X4328Y37925D01*
X4265Y37897D01*
X4204Y37866D01*
X4144Y37832D01*
X4405Y38903D01*
X4442Y38848D01*
D02*
G37*
G36*
X3167Y33749D02*
X3116Y33797D01*
X3062Y33839D01*
X3006Y33877D01*
X2946Y33910D01*
X2884Y33937D01*
X2819Y33960D01*
X2750Y33977D01*
X2679Y33990D01*
X2605Y33997D01*
X2528Y34000D01*
X2528Y34600D01*
X2605Y34602D01*
X2679Y34610D01*
X2750Y34623D01*
X2818Y34640D01*
X2884Y34663D01*
X2946Y34690D01*
X3005Y34723D01*
X3062Y34761D01*
X3115Y34804D01*
X3166Y34851D01*
X3167Y33749D01*
D02*
G37*
G36*
X75135Y31340D02*
X75129Y31323D01*
X75124Y31299D01*
X75119Y31268D01*
X75112Y31182D01*
X75106Y30997D01*
X75106Y30920D01*
X74506D01*
X74506Y30980D01*
X74492Y31161D01*
X74485Y31191D01*
X74478Y31216D01*
X74469Y31234D01*
X74459Y31247D01*
X74448Y31254D01*
X75142Y31348D01*
X75135Y31340D01*
D02*
G37*
G36*
X87438Y26949D02*
X87387Y26996D01*
X87333Y27039D01*
X87277Y27077D01*
X87217Y27110D01*
X87155Y27137D01*
X87090Y27160D01*
X87022Y27177D01*
X86950Y27190D01*
X86876Y27198D01*
X86800Y27200D01*
Y27800D01*
X86876Y27803D01*
X86950Y27810D01*
X87022Y27823D01*
X87090Y27840D01*
X87155Y27863D01*
X87217Y27890D01*
X87277Y27923D01*
X87333Y27961D01*
X87387Y28003D01*
X87438Y28051D01*
Y26949D01*
D02*
G37*
G36*
X47132Y24540D02*
X47183Y24496D01*
X47238Y24457D01*
X47297Y24423D01*
X47358Y24395D01*
X47423Y24372D01*
X47490Y24353D01*
X47561Y24340D01*
X47635Y24333D01*
X47712Y24330D01*
X47687Y23730D01*
X47611Y23728D01*
X47537Y23720D01*
X47465Y23708D01*
X47396Y23691D01*
X47330Y23670D01*
X47267Y23643D01*
X47207Y23611D01*
X47149Y23575D01*
X47093Y23534D01*
X47041Y23488D01*
X47083Y24589D01*
X47132Y24540D01*
D02*
G37*
G36*
X49717Y23471D02*
X49668Y23520D01*
X49617Y23564D01*
X49562Y23603D01*
X49503Y23637D01*
X49442Y23665D01*
X49378Y23689D01*
X49310Y23707D01*
X49239Y23720D01*
X49165Y23728D01*
X49088Y23730D01*
X49113Y24330D01*
X49189Y24333D01*
X49264Y24340D01*
X49335Y24352D01*
X49404Y24369D01*
X49470Y24391D01*
X49533Y24417D01*
X49593Y24449D01*
X49651Y24485D01*
X49707Y24526D01*
X49759Y24572D01*
X49717Y23471D01*
D02*
G37*
D17*
X2200Y40400D02*
X4900D01*
X2400Y34300D02*
X3728D01*
X1500Y35200D02*
Y39700D01*
X3728Y34300D02*
X3729Y34300D01*
X1500Y39700D02*
X2200Y40400D01*
X1500Y35200D02*
X2400Y34300D01*
X3729Y38500D02*
X3915Y38314D01*
X5372D01*
X10500Y34800D02*
X32500D01*
X4900Y40400D02*
X10500Y34800D01*
X5372Y38314D02*
X9886Y33800D01*
X33000D01*
X75750Y73950D02*
X78750D01*
X82813Y78013D02*
Y82051D01*
X78750Y73950D02*
X82813Y78013D01*
X73587Y71787D02*
X75750Y73950D01*
X33000Y33800D02*
X45200Y46000D01*
X32500Y34800D02*
X43800Y46100D01*
X8946Y52745D02*
X10155D01*
X7991Y53700D02*
X8946Y52745D01*
X10155D02*
X11900Y51000D01*
X23400D01*
X9913Y62713D02*
X10100Y62900D01*
X9900Y62061D02*
X9913Y62075D01*
X9900Y55100D02*
Y62061D01*
X9913Y62075D02*
Y62713D01*
X9900Y55100D02*
X12400Y52600D01*
X22900D01*
X76100Y56800D02*
X80200Y52700D01*
Y44400D02*
X83100Y41500D01*
X75600Y55800D02*
X79200Y52200D01*
Y43800D02*
X82000Y41000D01*
X79200Y43800D02*
Y52200D01*
X80200Y44400D02*
Y52700D01*
X83100Y28900D02*
Y41500D01*
X66400Y56800D02*
X76100D01*
X82100Y31500D02*
Y41000D01*
X65800Y55800D02*
X75600D01*
X82000Y41000D02*
X82100D01*
X45600Y106800D02*
Y107700D01*
X45000Y106200D02*
X45600Y106800D01*
X44100Y106200D02*
X45000D01*
X42400Y104500D02*
X44100Y106200D01*
X44787Y104487D02*
X45700Y105400D01*
X44650Y103250D02*
X44787Y103386D01*
X45700Y105400D02*
X47000D01*
X44650Y112386D02*
X44700Y112436D01*
X44600Y103200D02*
X44650Y103250D01*
X44787Y103386D02*
Y104487D01*
X45600Y107700D02*
Y110100D01*
X42400Y103200D02*
Y104500D01*
X45000Y110700D02*
X45600Y110100D01*
X43836Y110700D02*
X45000D01*
X42100Y112436D02*
X43836Y110700D01*
X44700Y112436D02*
X44724Y112413D01*
X46387D01*
X47000Y105400D02*
X47700Y106100D01*
Y111100D01*
X46387Y112413D02*
X47700Y111100D01*
X46700Y103200D02*
X49000Y105500D01*
X41700Y74500D02*
X48900D01*
X38570Y77630D02*
X41700Y74500D01*
X38570Y77630D02*
Y86100D01*
X6900Y74489D02*
Y79827D01*
X8464Y72925D02*
X8575D01*
X6900Y74489D02*
X8464Y72925D01*
X8073Y81000D02*
X9300D01*
X6900Y79827D02*
X8073Y81000D01*
X9300D02*
X10850Y79450D01*
X8414Y79100D02*
X9114Y78400D01*
X8275Y76012D02*
X9663Y77400D01*
X45200Y46737D02*
X46136Y47673D01*
X45200Y46000D02*
Y46737D01*
X52000Y55200D02*
X56600Y59800D01*
X27764Y55600D02*
X28164Y55200D01*
X52000D01*
X27500Y55600D02*
X27764D01*
X25900Y53500D02*
X26500Y54100D01*
X52600D02*
X57000Y58500D01*
X26500Y54100D02*
X52600D01*
X23400Y51000D02*
X26000Y48400D01*
X84000Y83238D02*
Y83500D01*
X82813Y82051D02*
X84000Y83238D01*
X80300Y29700D02*
X82100Y31500D01*
X76026Y29700D02*
X80300D01*
X74806Y30920D02*
Y31894D01*
Y30920D02*
X76026Y29700D01*
X74700Y32000D02*
X74806Y31894D01*
X83100Y28900D02*
X84500Y27500D01*
X67600Y68200D02*
X67864D01*
X68764Y69100D01*
X62043Y58457D02*
X63143D01*
X65800Y55800D01*
X62000Y58500D02*
X62043Y58457D01*
X61593Y60607D02*
X62593D01*
X61500Y60700D02*
X61593Y60607D01*
X62593D02*
X66400Y56800D01*
X57000Y58500D02*
X62000D01*
X42100Y111936D02*
Y112200D01*
X58200Y83200D02*
X61000Y80400D01*
Y73800D02*
Y80400D01*
X49400Y83200D02*
X58200D01*
X48420Y84180D02*
Y86110D01*
Y84180D02*
X49400Y83200D01*
X49000Y105500D02*
Y110800D01*
X50600Y112400D01*
X76914Y69100D02*
X78346Y70532D01*
X78775Y72075D02*
X80500D01*
X78346Y71646D02*
X78775Y72075D01*
X78346Y70532D02*
Y71646D01*
X68764Y69100D02*
X76914D01*
X76348Y70848D02*
Y72075D01*
X75800Y70300D02*
X76348Y70848D01*
X66300Y70300D02*
X75800D01*
X25400Y69600D02*
X26700Y70900D01*
X22900Y69600D02*
X25400D01*
X13050Y79450D02*
X22900Y69600D01*
X22500Y66900D02*
X25261D01*
X12000Y77400D02*
X22500Y66900D01*
X25261D02*
X26561Y65600D01*
X10850Y79450D02*
X13050D01*
X8275Y79100D02*
X8414D01*
X9114Y78400D02*
X12500D01*
X22400Y68500D01*
X9663Y77400D02*
X12000D01*
X26600Y68500D02*
X26700Y68600D01*
X22400Y68500D02*
X26600D01*
X26561Y65600D02*
X26700D01*
X64599Y71787D02*
X73587D01*
X63512Y70700D02*
X64599Y71787D01*
X63300Y70700D02*
X63512D01*
X43800Y46100D02*
Y47554D01*
X60600Y59800D02*
X61500Y60700D01*
X56600Y59800D02*
X60600D01*
X84500Y27500D02*
X88000D01*
X46530Y24030D02*
X50270D01*
X46500Y24060D02*
X46530Y24030D01*
X50270D02*
X50300Y24000D01*
D116*
X45000Y63500D02*
D03*
X45000Y59564D02*
D03*
X44998Y67436D02*
D03*
X48937Y67438D02*
D03*
X41063D02*
D03*
X48936Y59564D02*
D03*
Y63500D02*
D03*
X41063Y59564D02*
D03*
Y63501D02*
D03*
D117*
X61100Y110000D02*
X65500Y105600D01*
X67900D01*
X62186Y131000D02*
X62900D01*
X61100Y129914D02*
X62186Y131000D01*
X61100Y110000D02*
Y129914D01*
X7900Y42500D02*
X9000Y41400D01*
X26808D02*
X27479Y40729D01*
X27500D01*
X9000Y41400D02*
X26808D01*
X57886Y50086D02*
X57900Y50100D01*
D122*
X38000Y23000D02*
D03*
X60756D02*
D03*
D123*
X32350Y24890D02*
D03*
X66405Y24890D02*
D03*
D124*
X32350Y8433D02*
D03*
X66405D02*
D03*
D125*
X3729Y38500D02*
D03*
X3728Y30100D02*
D03*
X79228Y121850D02*
D03*
X82500Y74700D02*
D03*
X73893Y125571D02*
D03*
X63653Y122976D02*
D03*
Y125732D02*
D03*
X60625Y105572D02*
D03*
X67900Y105600D02*
D03*
X56823Y105572D02*
D03*
X67200Y115900D02*
D03*
X82800Y63000D02*
D03*
Y66500D02*
D03*
X82700Y70500D02*
D03*
X86200Y43200D02*
D03*
X83600Y43400D02*
D03*
X82200Y48700D02*
D03*
X82300Y45300D02*
D03*
X85000D02*
D03*
X82200Y60700D02*
D03*
X82200Y57050D02*
D03*
X11000Y91500D02*
D03*
X94800Y78000D02*
D03*
X91800D02*
D03*
X53300Y40100D02*
D03*
X7991Y53700D02*
D03*
X9444Y50544D02*
D03*
X10100Y62900D02*
D03*
X79228Y133083D02*
D03*
X66700Y94600D02*
D03*
X92400Y42700D02*
D03*
X88500D02*
D03*
X76100Y66400D02*
D03*
X73750Y64271D02*
D03*
X78250D02*
D03*
X78300Y91700D02*
D03*
X59611Y85314D02*
D03*
X4227Y135475D02*
D03*
X9800Y135500D02*
D03*
X41600Y134900D02*
D03*
X35900D02*
D03*
X30200D02*
D03*
X95000Y26300D02*
D03*
Y21200D02*
D03*
Y13200D02*
D03*
X94800Y3900D02*
D03*
X83400D02*
D03*
X72100D02*
D03*
X59900Y3700D02*
D03*
X54575D02*
D03*
X49250D02*
D03*
X43925D02*
D03*
X38600D02*
D03*
X44700Y112436D02*
D03*
X46700Y103200D02*
D03*
X38570Y86100D02*
D03*
X42400Y103200D02*
D03*
X51500Y102500D02*
D03*
X44600Y103200D02*
D03*
X48420Y86110D02*
D03*
X90800Y98100D02*
D03*
X93300Y102867D02*
D03*
Y108833D02*
D03*
Y114800D02*
D03*
Y120767D02*
D03*
Y126733D02*
D03*
Y132700D02*
D03*
X4200Y108200D02*
D03*
Y113875D02*
D03*
Y119550D02*
D03*
Y125225D02*
D03*
Y130900D02*
D03*
X32100Y101300D02*
D03*
X28033D02*
D03*
X23967D02*
D03*
X19900D02*
D03*
X53334Y43771D02*
D03*
X9800Y109800D02*
D03*
Y113400D02*
D03*
Y124500D02*
D03*
Y127950D02*
D03*
X15900Y103800D02*
D03*
Y102000D02*
D03*
Y100200D02*
D03*
X11000Y67600D02*
D03*
X40154Y34500D02*
D03*
X27500Y55600D02*
D03*
X25900Y53500D02*
D03*
X26000Y48400D02*
D03*
X62000Y58500D02*
D03*
X63300Y70700D02*
D03*
X26700Y70900D02*
D03*
X61000Y73800D02*
D03*
X48900Y74500D02*
D03*
X61500Y60700D02*
D03*
X57900Y50100D02*
D03*
X46200Y47673D02*
D03*
X66300Y70300D02*
D03*
X26700Y68600D02*
D03*
X67600Y68200D02*
D03*
X26700Y65600D02*
D03*
X43881Y47673D02*
D03*
X57300Y112100D02*
D03*
X85600Y89400D02*
D03*
X84300Y79600D02*
D03*
X9800Y131400D02*
D03*
Y106200D02*
D03*
X14616Y118827D02*
D03*
X66400Y127300D02*
D03*
X87800Y135000D02*
D03*
X74043Y131000D02*
D03*
X74043Y135000D02*
D03*
X54673Y134870D02*
D03*
X50673D02*
D03*
X59837Y134935D02*
D03*
X79228Y118067D02*
D03*
X77300Y109900D02*
D03*
X76100Y120200D02*
D03*
X65100Y98400D02*
D03*
X62400D02*
D03*
X66700Y90200D02*
D03*
X58000Y92200D02*
D03*
X27000Y91200D02*
D03*
X32457Y81500D02*
D03*
X11000Y82300D02*
D03*
X23550Y82872D02*
D03*
X58693Y34500D02*
D03*
X60400Y37900D02*
D03*
X58100Y40200D02*
D03*
X77846Y32000D02*
D03*
X64900Y37300D02*
D03*
X69100D02*
D03*
X80000Y40457D02*
D03*
X63300Y46700D02*
D03*
X80500Y66500D02*
D03*
X57900Y86700D02*
D03*
X36200Y81500D02*
D03*
X30900Y45400D02*
D03*
X31000Y42500D02*
D03*
X38271Y43500D02*
D03*
X8700Y4900D02*
D03*
Y8700D02*
D03*
X12200Y8800D02*
D03*
X12000Y17900D02*
D03*
X78200Y60600D02*
D03*
X73700D02*
D03*
X90000Y9200D02*
D03*
X76500D02*
D03*
X70700Y32100D02*
D03*
X17000Y43500D02*
D03*
X80400Y27400D02*
D03*
X77600Y37200D02*
D03*
X73100D02*
D03*
X49000Y40200D02*
D03*
X5000Y4728D02*
D03*
X12182Y5100D02*
D03*
X12595Y12807D02*
D03*
X5000Y20300D02*
D03*
X80400Y91700D02*
D03*
X79200Y134900D02*
D03*
X30100Y97200D02*
D03*
X22700Y133600D02*
D03*
X21100Y132000D02*
D03*
X24000Y131900D02*
D03*
X23900Y135000D02*
D03*
X21200Y134900D02*
D03*
X62900Y131000D02*
D03*
X58929Y128310D02*
D03*
X82900Y131100D02*
D03*
X67200Y112100D02*
D03*
X68522Y130900D02*
D03*
X68522Y132976D02*
D03*
Y134800D02*
D03*
X37000Y124767D02*
D03*
Y122011D02*
D03*
Y118861D02*
D03*
Y116105D02*
D03*
Y112956D02*
D03*
Y110200D02*
D03*
X44756Y128310D02*
D03*
X47512D02*
D03*
X39244D02*
D03*
X42000D02*
D03*
X56173D02*
D03*
X53417D02*
D03*
X42100Y112436D02*
D03*
X50600D02*
D03*
X8575Y79100D02*
D03*
Y76012D02*
D03*
Y72925D02*
D03*
X84000Y83500D02*
D03*
X80500Y72075D02*
D03*
X76348D02*
D03*
X22900Y52600D02*
D03*
X88000Y27500D02*
D03*
X74700Y32000D02*
D03*
X3729Y34300D02*
D03*
X46500Y24060D02*
D03*
X50300Y24000D02*
D03*
D126*
X12300Y26000D02*
D03*
X10000D02*
D03*
X5300Y46800D02*
D03*
X25100Y10700D02*
D03*
Y13000D02*
D03*
Y15300D02*
D03*
X27500Y40729D02*
D03*
X7700Y26000D02*
D03*
X7900Y42500D02*
D03*
X7700Y15300D02*
D03*
M02*
