G04*
G04 #@! TF.GenerationSoftware,Altium Limited,Altium Designer,20.1.14 (287)*
G04*
G04 Layer_Color=32896*
%FSLAX25Y25*%
%MOIN*%
G70*
G04*
G04 #@! TF.SameCoordinates,C6E2488E-A08A-4CE9-B207-DE92606EBE29*
G04*
G04*
G04 #@! TF.FilePolarity,Positive*
G04*
G01*
G75*
%ADD135C,0.00039*%
D135*
X43795Y112181D02*
G03*
X44189Y111787I394J0D01*
G01*
X59346D02*
G03*
X59740Y112181I0J394D01*
G01*
Y123402D02*
G03*
X59346Y123795I-394J0D01*
G01*
X44189D02*
G03*
X43795Y123402I0J-394D01*
G01*
X40118Y110252D02*
G03*
X40118Y110252I-492J0D01*
G01*
X42087D02*
G03*
X42087Y110252I-492J0D01*
G01*
X44055D02*
G03*
X44055Y110252I-492J0D01*
G01*
X46024D02*
G03*
X46024Y110252I-492J0D01*
G01*
X47992D02*
G03*
X47992Y110252I-492J0D01*
G01*
X49961D02*
G03*
X49961Y110252I-492J0D01*
G01*
X51929D02*
G03*
X51929Y110252I-492J0D01*
G01*
X53898D02*
G03*
X53898Y110252I-492J0D01*
G01*
X55866D02*
G03*
X55866Y110252I-492J0D01*
G01*
X57835D02*
G03*
X57835Y110252I-492J0D01*
G01*
X59803D02*
G03*
X59803Y110252I-492J0D01*
G01*
X61772D02*
G03*
X61772Y110252I-492J0D01*
G01*
X40118Y112221D02*
G03*
X40118Y112221I-492J0D01*
G01*
X61772D02*
G03*
X61772Y112221I-492J0D01*
G01*
X40118Y114189D02*
G03*
X40118Y114189I-492J0D01*
G01*
X42087D02*
G03*
X42087Y114189I-492J0D01*
G01*
X61772D02*
G03*
X61772Y114189I-492J0D01*
G01*
X40118Y116157D02*
G03*
X40118Y116157I-492J0D01*
G01*
X42087D02*
G03*
X42087Y116157I-492J0D01*
G01*
X61772D02*
G03*
X61772Y116157I-492J0D01*
G01*
X40118Y118126D02*
G03*
X40118Y118126I-492J0D01*
G01*
X61772D02*
G03*
X61772Y118126I-492J0D01*
G01*
X40118Y120095D02*
G03*
X40118Y120095I-492J0D01*
G01*
X61772D02*
G03*
X61772Y120095I-492J0D01*
G01*
X40118Y122063D02*
G03*
X40118Y122063I-492J0D01*
G01*
X61772D02*
G03*
X61772Y122063I-492J0D01*
G01*
X40118Y124031D02*
G03*
X40118Y124031I-492J0D01*
G01*
X42087D02*
G03*
X42087Y124031I-492J0D01*
G01*
X40118Y126000D02*
G03*
X40118Y126000I-492J0D01*
G01*
X42087D02*
G03*
X42087Y126000I-492J0D01*
G01*
X44055D02*
G03*
X44055Y126000I-492J0D01*
G01*
X46024D02*
G03*
X46024Y126000I-492J0D01*
G01*
X47992D02*
G03*
X47992Y126000I-492J0D01*
G01*
X49961D02*
G03*
X49961Y126000I-492J0D01*
G01*
X51929D02*
G03*
X51929Y126000I-492J0D01*
G01*
X53898D02*
G03*
X53898Y126000I-492J0D01*
G01*
X55866D02*
G03*
X55866Y126000I-492J0D01*
G01*
X57835D02*
G03*
X57835Y126000I-492J0D01*
G01*
X59803D02*
G03*
X59803Y126000I-492J0D01*
G01*
X61772D02*
G03*
X61772Y126000I-492J0D01*
G01*
X43795Y112181D02*
Y123402D01*
X44189Y111787D02*
X59346D01*
X59740Y112181D02*
Y123402D01*
X44189Y123795D02*
X59346D01*
X37385Y111056D02*
X39085Y109357D01*
X37385D02*
Y111056D01*
Y109357D02*
X39085D01*
M02*
