G04*
G04 #@! TF.GenerationSoftware,Altium Limited,Altium Designer,20.1.14 (287)*
G04*
G04 Layer_Color=2752767*
%FSLAX25Y25*%
%MOIN*%
G70*
G04*
G04 #@! TF.SameCoordinates,C6E2488E-A08A-4CE9-B207-DE92606EBE29*
G04*
G04*
G04 #@! TF.FilePolarity,Positive*
G04*
G01*
G75*
%ADD12C,0.01000*%
%ADD17C,0.00600*%
%ADD140C,0.00200*%
%ADD141C,0.00267*%
D12*
X106700Y138563D02*
X108700Y132563D01*
X104700D02*
X106700Y138563D01*
X104700Y6000D02*
X106700Y0D01*
X108700Y6000D01*
X106700Y82777D02*
Y138563D01*
Y0D02*
Y52586D01*
X99675Y138563D02*
X107700D01*
X99675Y0D02*
X107700D01*
X0Y-6900D02*
X6000Y-4900D01*
X0Y-6900D02*
X6000Y-8900D01*
X92425D02*
X98425Y-6900D01*
X92425Y-4900D02*
X98425Y-6900D01*
X0D02*
X32517D01*
X62708D02*
X98425D01*
X0Y-7900D02*
Y-1250D01*
X98425Y-7900D02*
Y-1250D01*
D17*
X105301Y54186D02*
X104301Y55186D01*
Y57185D01*
X105301Y58185D01*
X106300D01*
X107300Y57185D01*
Y56185D01*
Y57185D01*
X108300Y58185D01*
X109299D01*
X110299Y57185D01*
Y55186D01*
X109299Y54186D01*
X104301Y64183D02*
Y60184D01*
X107300D01*
X106300Y62183D01*
Y63183D01*
X107300Y64183D01*
X109299D01*
X110299Y63183D01*
Y61184D01*
X109299Y60184D01*
X110299Y66182D02*
X109299D01*
Y67182D01*
X110299D01*
Y66182D01*
Y75179D02*
Y71180D01*
X106300Y75179D01*
X105301D01*
X104301Y74179D01*
Y72180D01*
X105301Y71180D01*
Y77178D02*
X104301Y78178D01*
Y80177D01*
X105301Y81177D01*
X109299D01*
X110299Y80177D01*
Y78178D01*
X109299Y77178D01*
X105301D01*
X38116Y-10499D02*
X34117D01*
X38116Y-6500D01*
Y-5501D01*
X37116Y-4501D01*
X35117D01*
X34117Y-5501D01*
X44114Y-4501D02*
X40115D01*
Y-7500D01*
X42114Y-6500D01*
X43114D01*
X44114Y-7500D01*
Y-9499D01*
X43114Y-10499D01*
X41115D01*
X40115Y-9499D01*
X46113Y-10499D02*
Y-9499D01*
X47113D01*
Y-10499D01*
X46113D01*
X51112Y-5501D02*
X52111Y-4501D01*
X54110D01*
X55110Y-5501D01*
Y-9499D01*
X54110Y-10499D01*
X52111D01*
X51112Y-9499D01*
Y-5501D01*
X57109D02*
X58109Y-4501D01*
X60109D01*
X61108Y-5501D01*
Y-9499D01*
X60109Y-10499D01*
X58109D01*
X57109Y-9499D01*
Y-5501D01*
D140*
X37200Y22200D02*
Y23800D01*
X38800D01*
Y22200D01*
X37200D01*
X59956D02*
Y23800D01*
X61556D01*
Y22200D01*
X59956D01*
X32350Y7633D02*
X31550Y9233D01*
X33150D01*
X32350Y7633D01*
X66405D02*
X65605Y9233D01*
X67206D01*
X66405Y7633D01*
X3729Y37700D02*
X4129Y38100D01*
X4529D01*
X4129Y38500D01*
X4529Y38900D01*
X4129D01*
X3729Y39300D01*
X3329Y38900D01*
X2929D01*
X3329Y38500D01*
X2929Y38100D01*
X3329D01*
X3729Y37700D01*
X3728Y29300D02*
X4128Y29700D01*
X4528D01*
X4128Y30100D01*
X4528Y30500D01*
X4128D01*
X3728Y30900D01*
X3328Y30500D01*
X2928D01*
X3328Y30100D01*
X2928Y29700D01*
X3328D01*
X3728Y29300D01*
X79228Y121050D02*
X79628Y121450D01*
X80028D01*
X79628Y121850D01*
X80028Y122250D01*
X79628D01*
X79228Y122650D01*
X78828Y122250D01*
X78428D01*
X78828Y121850D01*
X78428Y121450D01*
X78828D01*
X79228Y121050D01*
X82500Y73900D02*
X82900Y74300D01*
X83300D01*
X82900Y74700D01*
X83300Y75100D01*
X82900D01*
X82500Y75500D01*
X82100Y75100D01*
X81700D01*
X82100Y74700D01*
X81700Y74300D01*
X82100D01*
X82500Y73900D01*
X73893Y124771D02*
X74293Y125171D01*
X74693D01*
X74293Y125571D01*
X74693Y125971D01*
X74293D01*
X73893Y126371D01*
X73493Y125971D01*
X73093D01*
X73493Y125571D01*
X73093Y125171D01*
X73493D01*
X73893Y124771D01*
X63653Y122176D02*
X64053Y122576D01*
X64454D01*
X64053Y122976D01*
X64454Y123376D01*
X64053D01*
X63653Y123776D01*
X63253Y123376D01*
X62853D01*
X63253Y122976D01*
X62853Y122576D01*
X63253D01*
X63653Y122176D01*
Y124932D02*
X64053Y125332D01*
X64454D01*
X64053Y125732D01*
X64454Y126132D01*
X64053D01*
X63653Y126532D01*
X63253Y126132D01*
X62853D01*
X63253Y125732D01*
X62853Y125332D01*
X63253D01*
X63653Y124932D01*
X60625Y104772D02*
X61025Y105172D01*
X61425D01*
X61025Y105572D01*
X61425Y105972D01*
X61025D01*
X60625Y106372D01*
X60225Y105972D01*
X59825D01*
X60225Y105572D01*
X59825Y105172D01*
X60225D01*
X60625Y104772D01*
X67900Y104800D02*
X68300Y105200D01*
X68700D01*
X68300Y105600D01*
X68700Y106000D01*
X68300D01*
X67900Y106400D01*
X67500Y106000D01*
X67100D01*
X67500Y105600D01*
X67100Y105200D01*
X67500D01*
X67900Y104800D01*
X56823Y104772D02*
X57223Y105172D01*
X57623D01*
X57223Y105572D01*
X57623Y105972D01*
X57223D01*
X56823Y106372D01*
X56423Y105972D01*
X56023D01*
X56423Y105572D01*
X56023Y105172D01*
X56423D01*
X56823Y104772D01*
X67200Y115100D02*
X67600Y115500D01*
X68000D01*
X67600Y115900D01*
X68000Y116300D01*
X67600D01*
X67200Y116700D01*
X66800Y116300D01*
X66400D01*
X66800Y115900D01*
X66400Y115500D01*
X66800D01*
X67200Y115100D01*
X82800Y62200D02*
X83200Y62600D01*
X83600D01*
X83200Y63000D01*
X83600Y63400D01*
X83200D01*
X82800Y63800D01*
X82400Y63400D01*
X82000D01*
X82400Y63000D01*
X82000Y62600D01*
X82400D01*
X82800Y62200D01*
Y65700D02*
X83200Y66100D01*
X83600D01*
X83200Y66500D01*
X83600Y66900D01*
X83200D01*
X82800Y67300D01*
X82400Y66900D01*
X82000D01*
X82400Y66500D01*
X82000Y66100D01*
X82400D01*
X82800Y65700D01*
X82700Y69700D02*
X83100Y70100D01*
X83500D01*
X83100Y70500D01*
X83500Y70900D01*
X83100D01*
X82700Y71300D01*
X82300Y70900D01*
X81900D01*
X82300Y70500D01*
X81900Y70100D01*
X82300D01*
X82700Y69700D01*
X86200Y42400D02*
X86600Y42800D01*
X87000D01*
X86600Y43200D01*
X87000Y43600D01*
X86600D01*
X86200Y44000D01*
X85800Y43600D01*
X85400D01*
X85800Y43200D01*
X85400Y42800D01*
X85800D01*
X86200Y42400D01*
X83600Y42600D02*
X84000Y43000D01*
X84400D01*
X84000Y43400D01*
X84400Y43800D01*
X84000D01*
X83600Y44200D01*
X83200Y43800D01*
X82800D01*
X83200Y43400D01*
X82800Y43000D01*
X83200D01*
X83600Y42600D01*
X82200Y47900D02*
X82600Y48300D01*
X83000D01*
X82600Y48700D01*
X83000Y49100D01*
X82600D01*
X82200Y49500D01*
X81800Y49100D01*
X81400D01*
X81800Y48700D01*
X81400Y48300D01*
X81800D01*
X82200Y47900D01*
X82300Y44500D02*
X82700Y44900D01*
X83100D01*
X82700Y45300D01*
X83100Y45700D01*
X82700D01*
X82300Y46100D01*
X81900Y45700D01*
X81500D01*
X81900Y45300D01*
X81500Y44900D01*
X81900D01*
X82300Y44500D01*
X85000D02*
X85400Y44900D01*
X85800D01*
X85400Y45300D01*
X85800Y45700D01*
X85400D01*
X85000Y46100D01*
X84600Y45700D01*
X84200D01*
X84600Y45300D01*
X84200Y44900D01*
X84600D01*
X85000Y44500D01*
X82200Y59900D02*
X82600Y60300D01*
X83000D01*
X82600Y60700D01*
X83000Y61100D01*
X82600D01*
X82200Y61500D01*
X81800Y61100D01*
X81400D01*
X81800Y60700D01*
X81400Y60300D01*
X81800D01*
X82200Y59900D01*
X82200Y56250D02*
X82600Y56650D01*
X83000D01*
X82600Y57050D01*
X83000Y57450D01*
X82600D01*
X82200Y57850D01*
X81800Y57450D01*
X81400D01*
X81800Y57050D01*
X81400Y56650D01*
X81800D01*
X82200Y56250D01*
X11000Y90700D02*
X11400Y91100D01*
X11800D01*
X11400Y91500D01*
X11800Y91900D01*
X11400D01*
X11000Y92300D01*
X10600Y91900D01*
X10200D01*
X10600Y91500D01*
X10200Y91100D01*
X10600D01*
X11000Y90700D01*
X94800Y77200D02*
X95200Y77600D01*
X95600D01*
X95200Y78000D01*
X95600Y78400D01*
X95200D01*
X94800Y78800D01*
X94400Y78400D01*
X94000D01*
X94400Y78000D01*
X94000Y77600D01*
X94400D01*
X94800Y77200D01*
X91800D02*
X92200Y77600D01*
X92600D01*
X92200Y78000D01*
X92600Y78400D01*
X92200D01*
X91800Y78800D01*
X91400Y78400D01*
X91000D01*
X91400Y78000D01*
X91000Y77600D01*
X91400D01*
X91800Y77200D01*
X53300Y39300D02*
X53700Y39700D01*
X54100D01*
X53700Y40100D01*
X54100Y40500D01*
X53700D01*
X53300Y40900D01*
X52900Y40500D01*
X52500D01*
X52900Y40100D01*
X52500Y39700D01*
X52900D01*
X53300Y39300D01*
X7991Y52900D02*
X8391Y53300D01*
X8791D01*
X8391Y53700D01*
X8791Y54100D01*
X8391D01*
X7991Y54500D01*
X7591Y54100D01*
X7191D01*
X7591Y53700D01*
X7191Y53300D01*
X7591D01*
X7991Y52900D01*
X9444Y49744D02*
X9844Y50144D01*
X10244D01*
X9844Y50544D01*
X10244Y50944D01*
X9844D01*
X9444Y51344D01*
X9044Y50944D01*
X8644D01*
X9044Y50544D01*
X8644Y50144D01*
X9044D01*
X9444Y49744D01*
X10100Y62100D02*
X10500Y62500D01*
X10900D01*
X10500Y62900D01*
X10900Y63300D01*
X10500D01*
X10100Y63700D01*
X9700Y63300D01*
X9300D01*
X9700Y62900D01*
X9300Y62500D01*
X9700D01*
X10100Y62100D01*
X79228Y132283D02*
X79628Y132683D01*
X80028D01*
X79628Y133083D01*
X80028Y133483D01*
X79628D01*
X79228Y133883D01*
X78828Y133483D01*
X78428D01*
X78828Y133083D01*
X78428Y132683D01*
X78828D01*
X79228Y132283D01*
X66700Y93800D02*
X67100Y94200D01*
X67500D01*
X67100Y94600D01*
X67500Y95000D01*
X67100D01*
X66700Y95400D01*
X66300Y95000D01*
X65900D01*
X66300Y94600D01*
X65900Y94200D01*
X66300D01*
X66700Y93800D01*
X92400Y41900D02*
X92800Y42300D01*
X93200D01*
X92800Y42700D01*
X93200Y43100D01*
X92800D01*
X92400Y43500D01*
X92000Y43100D01*
X91600D01*
X92000Y42700D01*
X91600Y42300D01*
X92000D01*
X92400Y41900D01*
X88500D02*
X88900Y42300D01*
X89300D01*
X88900Y42700D01*
X89300Y43100D01*
X88900D01*
X88500Y43500D01*
X88100Y43100D01*
X87700D01*
X88100Y42700D01*
X87700Y42300D01*
X88100D01*
X88500Y41900D01*
X76100Y65600D02*
X76500Y66000D01*
X76900D01*
X76500Y66400D01*
X76900Y66800D01*
X76500D01*
X76100Y67200D01*
X75700Y66800D01*
X75300D01*
X75700Y66400D01*
X75300Y66000D01*
X75700D01*
X76100Y65600D01*
X73750Y63471D02*
X74150Y63871D01*
X74550D01*
X74150Y64271D01*
X74550Y64671D01*
X74150D01*
X73750Y65071D01*
X73350Y64671D01*
X72950D01*
X73350Y64271D01*
X72950Y63871D01*
X73350D01*
X73750Y63471D01*
X78250D02*
X78650Y63871D01*
X79050D01*
X78650Y64271D01*
X79050Y64671D01*
X78650D01*
X78250Y65071D01*
X77850Y64671D01*
X77450D01*
X77850Y64271D01*
X77450Y63871D01*
X77850D01*
X78250Y63471D01*
X78300Y90900D02*
X78700Y91300D01*
X79100D01*
X78700Y91700D01*
X79100Y92100D01*
X78700D01*
X78300Y92500D01*
X77900Y92100D01*
X77500D01*
X77900Y91700D01*
X77500Y91300D01*
X77900D01*
X78300Y90900D01*
X59611Y84514D02*
X60011Y84914D01*
X60411D01*
X60011Y85314D01*
X60411Y85714D01*
X60011D01*
X59611Y86114D01*
X59211Y85714D01*
X58811D01*
X59211Y85314D01*
X58811Y84914D01*
X59211D01*
X59611Y84514D01*
X4227Y134675D02*
X4626Y135075D01*
X5026D01*
X4626Y135475D01*
X5026Y135875D01*
X4626D01*
X4227Y136275D01*
X3827Y135875D01*
X3427D01*
X3827Y135475D01*
X3427Y135075D01*
X3827D01*
X4227Y134675D01*
X9800Y134700D02*
X10200Y135100D01*
X10600D01*
X10200Y135500D01*
X10600Y135900D01*
X10200D01*
X9800Y136300D01*
X9400Y135900D01*
X9000D01*
X9400Y135500D01*
X9000Y135100D01*
X9400D01*
X9800Y134700D01*
X41600Y134100D02*
X42000Y134500D01*
X42400D01*
X42000Y134900D01*
X42400Y135300D01*
X42000D01*
X41600Y135700D01*
X41200Y135300D01*
X40800D01*
X41200Y134900D01*
X40800Y134500D01*
X41200D01*
X41600Y134100D01*
X35900D02*
X36300Y134500D01*
X36700D01*
X36300Y134900D01*
X36700Y135300D01*
X36300D01*
X35900Y135700D01*
X35500Y135300D01*
X35100D01*
X35500Y134900D01*
X35100Y134500D01*
X35500D01*
X35900Y134100D01*
X30200D02*
X30600Y134500D01*
X31000D01*
X30600Y134900D01*
X31000Y135300D01*
X30600D01*
X30200Y135700D01*
X29800Y135300D01*
X29400D01*
X29800Y134900D01*
X29400Y134500D01*
X29800D01*
X30200Y134100D01*
X95000Y25500D02*
X95400Y25900D01*
X95800D01*
X95400Y26300D01*
X95800Y26700D01*
X95400D01*
X95000Y27100D01*
X94600Y26700D01*
X94200D01*
X94600Y26300D01*
X94200Y25900D01*
X94600D01*
X95000Y25500D01*
Y20400D02*
X95400Y20800D01*
X95800D01*
X95400Y21200D01*
X95800Y21600D01*
X95400D01*
X95000Y22000D01*
X94600Y21600D01*
X94200D01*
X94600Y21200D01*
X94200Y20800D01*
X94600D01*
X95000Y20400D01*
Y12400D02*
X95400Y12800D01*
X95800D01*
X95400Y13200D01*
X95800Y13600D01*
X95400D01*
X95000Y14000D01*
X94600Y13600D01*
X94200D01*
X94600Y13200D01*
X94200Y12800D01*
X94600D01*
X95000Y12400D01*
X94800Y3100D02*
X95200Y3500D01*
X95600D01*
X95200Y3900D01*
X95600Y4300D01*
X95200D01*
X94800Y4700D01*
X94400Y4300D01*
X94000D01*
X94400Y3900D01*
X94000Y3500D01*
X94400D01*
X94800Y3100D01*
X83400D02*
X83800Y3500D01*
X84200D01*
X83800Y3900D01*
X84200Y4300D01*
X83800D01*
X83400Y4700D01*
X83000Y4300D01*
X82600D01*
X83000Y3900D01*
X82600Y3500D01*
X83000D01*
X83400Y3100D01*
X72100D02*
X72500Y3500D01*
X72900D01*
X72500Y3900D01*
X72900Y4300D01*
X72500D01*
X72100Y4700D01*
X71700Y4300D01*
X71300D01*
X71700Y3900D01*
X71300Y3500D01*
X71700D01*
X72100Y3100D01*
X59900Y2900D02*
X60300Y3300D01*
X60700D01*
X60300Y3700D01*
X60700Y4100D01*
X60300D01*
X59900Y4500D01*
X59500Y4100D01*
X59100D01*
X59500Y3700D01*
X59100Y3300D01*
X59500D01*
X59900Y2900D01*
X54575D02*
X54975Y3300D01*
X55375D01*
X54975Y3700D01*
X55375Y4100D01*
X54975D01*
X54575Y4500D01*
X54175Y4100D01*
X53775D01*
X54175Y3700D01*
X53775Y3300D01*
X54175D01*
X54575Y2900D01*
X49250D02*
X49650Y3300D01*
X50050D01*
X49650Y3700D01*
X50050Y4100D01*
X49650D01*
X49250Y4500D01*
X48850Y4100D01*
X48450D01*
X48850Y3700D01*
X48450Y3300D01*
X48850D01*
X49250Y2900D01*
X43925D02*
X44325Y3300D01*
X44725D01*
X44325Y3700D01*
X44725Y4100D01*
X44325D01*
X43925Y4500D01*
X43525Y4100D01*
X43125D01*
X43525Y3700D01*
X43125Y3300D01*
X43525D01*
X43925Y2900D01*
X38600D02*
X39000Y3300D01*
X39400D01*
X39000Y3700D01*
X39400Y4100D01*
X39000D01*
X38600Y4500D01*
X38200Y4100D01*
X37800D01*
X38200Y3700D01*
X37800Y3300D01*
X38200D01*
X38600Y2900D01*
X44700Y111636D02*
X45100Y112036D01*
X45500D01*
X45100Y112436D01*
X45500Y112836D01*
X45100D01*
X44700Y113236D01*
X44300Y112836D01*
X43900D01*
X44300Y112436D01*
X43900Y112036D01*
X44300D01*
X44700Y111636D01*
X46700Y102400D02*
X47100Y102800D01*
X47500D01*
X47100Y103200D01*
X47500Y103600D01*
X47100D01*
X46700Y104000D01*
X46300Y103600D01*
X45900D01*
X46300Y103200D01*
X45900Y102800D01*
X46300D01*
X46700Y102400D01*
X38570Y85300D02*
X38970Y85700D01*
X39370D01*
X38970Y86100D01*
X39370Y86500D01*
X38970D01*
X38570Y86900D01*
X38170Y86500D01*
X37770D01*
X38170Y86100D01*
X37770Y85700D01*
X38170D01*
X38570Y85300D01*
X42400Y102400D02*
X42800Y102800D01*
X43200D01*
X42800Y103200D01*
X43200Y103600D01*
X42800D01*
X42400Y104000D01*
X42000Y103600D01*
X41600D01*
X42000Y103200D01*
X41600Y102800D01*
X42000D01*
X42400Y102400D01*
X51500Y101700D02*
X51900Y102100D01*
X52300D01*
X51900Y102500D01*
X52300Y102900D01*
X51900D01*
X51500Y103300D01*
X51100Y102900D01*
X50700D01*
X51100Y102500D01*
X50700Y102100D01*
X51100D01*
X51500Y101700D01*
X44600Y102400D02*
X45000Y102800D01*
X45400D01*
X45000Y103200D01*
X45400Y103600D01*
X45000D01*
X44600Y104000D01*
X44200Y103600D01*
X43800D01*
X44200Y103200D01*
X43800Y102800D01*
X44200D01*
X44600Y102400D01*
X48420Y85310D02*
X48820Y85710D01*
X49220D01*
X48820Y86110D01*
X49220Y86510D01*
X48820D01*
X48420Y86910D01*
X48020Y86510D01*
X47620D01*
X48020Y86110D01*
X47620Y85710D01*
X48020D01*
X48420Y85310D01*
X90800Y97300D02*
X91200Y97700D01*
X91600D01*
X91200Y98100D01*
X91600Y98500D01*
X91200D01*
X90800Y98900D01*
X90400Y98500D01*
X90000D01*
X90400Y98100D01*
X90000Y97700D01*
X90400D01*
X90800Y97300D01*
X93300Y102067D02*
X93700Y102467D01*
X94100D01*
X93700Y102867D01*
X94100Y103267D01*
X93700D01*
X93300Y103667D01*
X92900Y103267D01*
X92500D01*
X92900Y102867D01*
X92500Y102467D01*
X92900D01*
X93300Y102067D01*
Y108033D02*
X93700Y108433D01*
X94100D01*
X93700Y108833D01*
X94100Y109233D01*
X93700D01*
X93300Y109633D01*
X92900Y109233D01*
X92500D01*
X92900Y108833D01*
X92500Y108433D01*
X92900D01*
X93300Y108033D01*
Y114000D02*
X93700Y114400D01*
X94100D01*
X93700Y114800D01*
X94100Y115200D01*
X93700D01*
X93300Y115600D01*
X92900Y115200D01*
X92500D01*
X92900Y114800D01*
X92500Y114400D01*
X92900D01*
X93300Y114000D01*
Y119967D02*
X93700Y120367D01*
X94100D01*
X93700Y120767D01*
X94100Y121167D01*
X93700D01*
X93300Y121567D01*
X92900Y121167D01*
X92500D01*
X92900Y120767D01*
X92500Y120367D01*
X92900D01*
X93300Y119967D01*
Y125933D02*
X93700Y126333D01*
X94100D01*
X93700Y126733D01*
X94100Y127133D01*
X93700D01*
X93300Y127533D01*
X92900Y127133D01*
X92500D01*
X92900Y126733D01*
X92500Y126333D01*
X92900D01*
X93300Y125933D01*
Y131900D02*
X93700Y132300D01*
X94100D01*
X93700Y132700D01*
X94100Y133100D01*
X93700D01*
X93300Y133500D01*
X92900Y133100D01*
X92500D01*
X92900Y132700D01*
X92500Y132300D01*
X92900D01*
X93300Y131900D01*
X4200Y107400D02*
X4600Y107800D01*
X5000D01*
X4600Y108200D01*
X5000Y108600D01*
X4600D01*
X4200Y109000D01*
X3800Y108600D01*
X3400D01*
X3800Y108200D01*
X3400Y107800D01*
X3800D01*
X4200Y107400D01*
Y113075D02*
X4600Y113475D01*
X5000D01*
X4600Y113875D01*
X5000Y114275D01*
X4600D01*
X4200Y114675D01*
X3800Y114275D01*
X3400D01*
X3800Y113875D01*
X3400Y113475D01*
X3800D01*
X4200Y113075D01*
Y118750D02*
X4600Y119150D01*
X5000D01*
X4600Y119550D01*
X5000Y119950D01*
X4600D01*
X4200Y120350D01*
X3800Y119950D01*
X3400D01*
X3800Y119550D01*
X3400Y119150D01*
X3800D01*
X4200Y118750D01*
Y124425D02*
X4600Y124825D01*
X5000D01*
X4600Y125225D01*
X5000Y125625D01*
X4600D01*
X4200Y126025D01*
X3800Y125625D01*
X3400D01*
X3800Y125225D01*
X3400Y124825D01*
X3800D01*
X4200Y124425D01*
Y130100D02*
X4600Y130500D01*
X5000D01*
X4600Y130900D01*
X5000Y131300D01*
X4600D01*
X4200Y131700D01*
X3800Y131300D01*
X3400D01*
X3800Y130900D01*
X3400Y130500D01*
X3800D01*
X4200Y130100D01*
X32100Y100500D02*
X32500Y100900D01*
X32900D01*
X32500Y101300D01*
X32900Y101700D01*
X32500D01*
X32100Y102100D01*
X31700Y101700D01*
X31300D01*
X31700Y101300D01*
X31300Y100900D01*
X31700D01*
X32100Y100500D01*
X28033D02*
X28433Y100900D01*
X28833D01*
X28433Y101300D01*
X28833Y101700D01*
X28433D01*
X28033Y102100D01*
X27633Y101700D01*
X27233D01*
X27633Y101300D01*
X27233Y100900D01*
X27633D01*
X28033Y100500D01*
X23967D02*
X24367Y100900D01*
X24767D01*
X24367Y101300D01*
X24767Y101700D01*
X24367D01*
X23967Y102100D01*
X23567Y101700D01*
X23167D01*
X23567Y101300D01*
X23167Y100900D01*
X23567D01*
X23967Y100500D01*
X19900D02*
X20300Y100900D01*
X20700D01*
X20300Y101300D01*
X20700Y101700D01*
X20300D01*
X19900Y102100D01*
X19500Y101700D01*
X19100D01*
X19500Y101300D01*
X19100Y100900D01*
X19500D01*
X19900Y100500D01*
X53334Y42971D02*
X53734Y43371D01*
X54134D01*
X53734Y43771D01*
X54134Y44171D01*
X53734D01*
X53334Y44571D01*
X52934Y44171D01*
X52534D01*
X52934Y43771D01*
X52534Y43371D01*
X52934D01*
X53334Y42971D01*
X9800Y109000D02*
X10200Y109400D01*
X10600D01*
X10200Y109800D01*
X10600Y110200D01*
X10200D01*
X9800Y110600D01*
X9400Y110200D01*
X9000D01*
X9400Y109800D01*
X9000Y109400D01*
X9400D01*
X9800Y109000D01*
Y112600D02*
X10200Y113000D01*
X10600D01*
X10200Y113400D01*
X10600Y113800D01*
X10200D01*
X9800Y114200D01*
X9400Y113800D01*
X9000D01*
X9400Y113400D01*
X9000Y113000D01*
X9400D01*
X9800Y112600D01*
Y123700D02*
X10200Y124100D01*
X10600D01*
X10200Y124500D01*
X10600Y124900D01*
X10200D01*
X9800Y125300D01*
X9400Y124900D01*
X9000D01*
X9400Y124500D01*
X9000Y124100D01*
X9400D01*
X9800Y123700D01*
Y127150D02*
X10200Y127550D01*
X10600D01*
X10200Y127950D01*
X10600Y128350D01*
X10200D01*
X9800Y128750D01*
X9400Y128350D01*
X9000D01*
X9400Y127950D01*
X9000Y127550D01*
X9400D01*
X9800Y127150D01*
X15900Y103000D02*
X16300Y103400D01*
X16700D01*
X16300Y103800D01*
X16700Y104200D01*
X16300D01*
X15900Y104600D01*
X15500Y104200D01*
X15100D01*
X15500Y103800D01*
X15100Y103400D01*
X15500D01*
X15900Y103000D01*
Y101200D02*
X16300Y101600D01*
X16700D01*
X16300Y102000D01*
X16700Y102400D01*
X16300D01*
X15900Y102800D01*
X15500Y102400D01*
X15100D01*
X15500Y102000D01*
X15100Y101600D01*
X15500D01*
X15900Y101200D01*
Y99400D02*
X16300Y99800D01*
X16700D01*
X16300Y100200D01*
X16700Y100600D01*
X16300D01*
X15900Y101000D01*
X15500Y100600D01*
X15100D01*
X15500Y100200D01*
X15100Y99800D01*
X15500D01*
X15900Y99400D01*
X11500Y25200D02*
X11900Y26000D01*
X11500Y26800D01*
X12300Y26400D01*
X13100Y26800D01*
X12700Y26000D01*
X13100Y25200D01*
X12300Y25600D01*
X11500Y25200D01*
X9200D02*
X9600Y26000D01*
X9200Y26800D01*
X10000Y26400D01*
X10800Y26800D01*
X10400Y26000D01*
X10800Y25200D01*
X10000Y25600D01*
X9200Y25200D01*
X4500Y46000D02*
X4900Y46800D01*
X4500Y47600D01*
X5300Y47200D01*
X6100Y47600D01*
X5700Y46800D01*
X6100Y46000D01*
X5300Y46400D01*
X4500Y46000D01*
X11000Y66800D02*
X11400Y67200D01*
X11800D01*
X11400Y67600D01*
X11800Y68000D01*
X11400D01*
X11000Y68400D01*
X10600Y68000D01*
X10200D01*
X10600Y67600D01*
X10200Y67200D01*
X10600D01*
X11000Y66800D01*
X40154Y33700D02*
X40554Y34100D01*
X40954D01*
X40554Y34500D01*
X40954Y34900D01*
X40554D01*
X40154Y35300D01*
X39754Y34900D01*
X39354D01*
X39754Y34500D01*
X39354Y34100D01*
X39754D01*
X40154Y33700D01*
X24300Y9900D02*
X24700Y10700D01*
X24300Y11500D01*
X25100Y11100D01*
X25900Y11500D01*
X25500Y10700D01*
X25900Y9900D01*
X25100Y10300D01*
X24300Y9900D01*
Y12200D02*
X24700Y13000D01*
X24300Y13800D01*
X25100Y13400D01*
X25900Y13800D01*
X25500Y13000D01*
X25900Y12200D01*
X25100Y12600D01*
X24300Y12200D01*
X27500Y54800D02*
X27900Y55200D01*
X28300D01*
X27900Y55600D01*
X28300Y56000D01*
X27900D01*
X27500Y56400D01*
X27100Y56000D01*
X26700D01*
X27100Y55600D01*
X26700Y55200D01*
X27100D01*
X27500Y54800D01*
X25900Y52700D02*
X26300Y53100D01*
X26700D01*
X26300Y53500D01*
X26700Y53900D01*
X26300D01*
X25900Y54300D01*
X25500Y53900D01*
X25100D01*
X25500Y53500D01*
X25100Y53100D01*
X25500D01*
X25900Y52700D01*
X26000Y47600D02*
X26400Y48000D01*
X26800D01*
X26400Y48400D01*
X26800Y48800D01*
X26400D01*
X26000Y49200D01*
X25600Y48800D01*
X25200D01*
X25600Y48400D01*
X25200Y48000D01*
X25600D01*
X26000Y47600D01*
X44600Y63100D02*
Y62700D01*
X45400D01*
Y63100D01*
X45800D01*
Y63900D01*
X45400D01*
Y64300D01*
X44600D01*
Y63900D01*
X44200D01*
Y63100D01*
X44600D01*
X44600Y59164D02*
Y58764D01*
X45400D01*
Y59164D01*
X45800D01*
Y59964D01*
X45400D01*
Y60364D01*
X44600D01*
Y59964D01*
X44200D01*
Y59164D01*
X44600D01*
X44598Y67036D02*
Y66636D01*
X45398D01*
Y67036D01*
X45798D01*
Y67836D01*
X45398D01*
Y68236D01*
X44598D01*
Y67836D01*
X44198D01*
Y67036D01*
X44598D01*
X48537Y67038D02*
Y66638D01*
X49337D01*
Y67038D01*
X49737D01*
Y67838D01*
X49337D01*
Y68238D01*
X48537D01*
Y67838D01*
X48137D01*
Y67038D01*
X48537D01*
X40663D02*
Y66638D01*
X41463D01*
Y67038D01*
X41863D01*
Y67838D01*
X41463D01*
Y68238D01*
X40663D01*
Y67838D01*
X40263D01*
Y67038D01*
X40663D01*
X48536Y59164D02*
Y58764D01*
X49336D01*
Y59164D01*
X49736D01*
Y59964D01*
X49336D01*
Y60364D01*
X48536D01*
Y59964D01*
X48136D01*
Y59164D01*
X48536D01*
Y63100D02*
Y62700D01*
X49336D01*
Y63100D01*
X49736D01*
Y63900D01*
X49336D01*
Y64300D01*
X48536D01*
Y63900D01*
X48136D01*
Y63100D01*
X48536D01*
X40663Y59164D02*
Y58764D01*
X41463D01*
Y59164D01*
X41863D01*
Y59964D01*
X41463D01*
Y60364D01*
X40663D01*
Y59964D01*
X40263D01*
Y59164D01*
X40663D01*
Y63101D02*
Y62701D01*
X41463D01*
Y63101D01*
X41863D01*
Y63901D01*
X41463D01*
Y64301D01*
X40663D01*
Y63901D01*
X40263D01*
Y63101D01*
X40663D01*
X62000Y57700D02*
X62400Y58100D01*
X62800D01*
X62400Y58500D01*
X62800Y58900D01*
X62400D01*
X62000Y59300D01*
X61600Y58900D01*
X61200D01*
X61600Y58500D01*
X61200Y58100D01*
X61600D01*
X62000Y57700D01*
X63300Y69900D02*
X63700Y70300D01*
X64100D01*
X63700Y70700D01*
X64100Y71100D01*
X63700D01*
X63300Y71500D01*
X62900Y71100D01*
X62500D01*
X62900Y70700D01*
X62500Y70300D01*
X62900D01*
X63300Y69900D01*
X26700Y70100D02*
X27100Y70500D01*
X27500D01*
X27100Y70900D01*
X27500Y71300D01*
X27100D01*
X26700Y71700D01*
X26300Y71300D01*
X25900D01*
X26300Y70900D01*
X25900Y70500D01*
X26300D01*
X26700Y70100D01*
X61000Y73000D02*
X61400Y73400D01*
X61800D01*
X61400Y73800D01*
X61800Y74200D01*
X61400D01*
X61000Y74600D01*
X60600Y74200D01*
X60200D01*
X60600Y73800D01*
X60200Y73400D01*
X60600D01*
X61000Y73000D01*
X48900Y73700D02*
X49300Y74100D01*
X49700D01*
X49300Y74500D01*
X49700Y74900D01*
X49300D01*
X48900Y75300D01*
X48500Y74900D01*
X48100D01*
X48500Y74500D01*
X48100Y74100D01*
X48500D01*
X48900Y73700D01*
X61500Y59900D02*
X61900Y60300D01*
X62300D01*
X61900Y60700D01*
X62300Y61100D01*
X61900D01*
X61500Y61500D01*
X61100Y61100D01*
X60700D01*
X61100Y60700D01*
X60700Y60300D01*
X61100D01*
X61500Y59900D01*
X57900Y49300D02*
X58300Y49700D01*
X58700D01*
X58300Y50100D01*
X58700Y50500D01*
X58300D01*
X57900Y50900D01*
X57500Y50500D01*
X57100D01*
X57500Y50100D01*
X57100Y49700D01*
X57500D01*
X57900Y49300D01*
X46200Y46873D02*
X46600Y47273D01*
X47000D01*
X46600Y47673D01*
X47000Y48073D01*
X46600D01*
X46200Y48473D01*
X45800Y48073D01*
X45400D01*
X45800Y47673D01*
X45400Y47273D01*
X45800D01*
X46200Y46873D01*
X66300Y69500D02*
X66700Y69900D01*
X67100D01*
X66700Y70300D01*
X67100Y70700D01*
X66700D01*
X66300Y71100D01*
X65900Y70700D01*
X65500D01*
X65900Y70300D01*
X65500Y69900D01*
X65900D01*
X66300Y69500D01*
X26700Y67800D02*
X27100Y68200D01*
X27500D01*
X27100Y68600D01*
X27500Y69000D01*
X27100D01*
X26700Y69400D01*
X26300Y69000D01*
X25900D01*
X26300Y68600D01*
X25900Y68200D01*
X26300D01*
X26700Y67800D01*
X67600Y67400D02*
X68000Y67800D01*
X68400D01*
X68000Y68200D01*
X68400Y68600D01*
X68000D01*
X67600Y69000D01*
X67200Y68600D01*
X66800D01*
X67200Y68200D01*
X66800Y67800D01*
X67200D01*
X67600Y67400D01*
X26700Y64800D02*
X27100Y65200D01*
X27500D01*
X27100Y65600D01*
X27500Y66000D01*
X27100D01*
X26700Y66400D01*
X26300Y66000D01*
X25900D01*
X26300Y65600D01*
X25900Y65200D01*
X26300D01*
X26700Y64800D01*
X43881Y46873D02*
X44281Y47273D01*
X44681D01*
X44281Y47673D01*
X44681Y48073D01*
X44281D01*
X43881Y48473D01*
X43481Y48073D01*
X43081D01*
X43481Y47673D01*
X43081Y47273D01*
X43481D01*
X43881Y46873D01*
X57300Y111300D02*
X57700Y111700D01*
X58100D01*
X57700Y112100D01*
X58100Y112500D01*
X57700D01*
X57300Y112900D01*
X56900Y112500D01*
X56500D01*
X56900Y112100D01*
X56500Y111700D01*
X56900D01*
X57300Y111300D01*
X85600Y88600D02*
X86000Y89000D01*
X86400D01*
X86000Y89400D01*
X86400Y89800D01*
X86000D01*
X85600Y90200D01*
X85200Y89800D01*
X84800D01*
X85200Y89400D01*
X84800Y89000D01*
X85200D01*
X85600Y88600D01*
X84300Y78800D02*
X84700Y79200D01*
X85100D01*
X84700Y79600D01*
X85100Y80000D01*
X84700D01*
X84300Y80400D01*
X83900Y80000D01*
X83500D01*
X83900Y79600D01*
X83500Y79200D01*
X83900D01*
X84300Y78800D01*
X9800Y130600D02*
X10200Y131000D01*
X10600D01*
X10200Y131400D01*
X10600Y131800D01*
X10200D01*
X9800Y132200D01*
X9400Y131800D01*
X9000D01*
X9400Y131400D01*
X9000Y131000D01*
X9400D01*
X9800Y130600D01*
Y105400D02*
X10200Y105800D01*
X10600D01*
X10200Y106200D01*
X10600Y106600D01*
X10200D01*
X9800Y107000D01*
X9400Y106600D01*
X9000D01*
X9400Y106200D01*
X9000Y105800D01*
X9400D01*
X9800Y105400D01*
X14616Y118027D02*
X15016Y118427D01*
X15416D01*
X15016Y118827D01*
X15416Y119227D01*
X15016D01*
X14616Y119627D01*
X14216Y119227D01*
X13816D01*
X14216Y118827D01*
X13816Y118427D01*
X14216D01*
X14616Y118027D01*
X66400Y126500D02*
X66800Y126900D01*
X67200D01*
X66800Y127300D01*
X67200Y127700D01*
X66800D01*
X66400Y128100D01*
X66000Y127700D01*
X65600D01*
X66000Y127300D01*
X65600Y126900D01*
X66000D01*
X66400Y126500D01*
X87800Y134200D02*
X88200Y134600D01*
X88600D01*
X88200Y135000D01*
X88600Y135400D01*
X88200D01*
X87800Y135800D01*
X87400Y135400D01*
X87000D01*
X87400Y135000D01*
X87000Y134600D01*
X87400D01*
X87800Y134200D01*
X74043Y130200D02*
X74443Y130600D01*
X74843D01*
X74443Y131000D01*
X74843Y131400D01*
X74443D01*
X74043Y131800D01*
X73643Y131400D01*
X73243D01*
X73643Y131000D01*
X73243Y130600D01*
X73643D01*
X74043Y130200D01*
X74043Y134200D02*
X74443Y134600D01*
X74843D01*
X74443Y135000D01*
X74843Y135400D01*
X74443D01*
X74043Y135800D01*
X73643Y135400D01*
X73243D01*
X73643Y135000D01*
X73243Y134600D01*
X73643D01*
X74043Y134200D01*
X54673Y134070D02*
X55073Y134470D01*
X55473D01*
X55073Y134870D01*
X55473Y135270D01*
X55073D01*
X54673Y135670D01*
X54273Y135270D01*
X53873D01*
X54273Y134870D01*
X53873Y134470D01*
X54273D01*
X54673Y134070D01*
X50673D02*
X51073Y134470D01*
X51473D01*
X51073Y134870D01*
X51473Y135270D01*
X51073D01*
X50673Y135670D01*
X50273Y135270D01*
X49873D01*
X50273Y134870D01*
X49873Y134470D01*
X50273D01*
X50673Y134070D01*
X59837Y134135D02*
X60237Y134535D01*
X60637D01*
X60237Y134935D01*
X60637Y135335D01*
X60237D01*
X59837Y135735D01*
X59437Y135335D01*
X59037D01*
X59437Y134935D01*
X59037Y134535D01*
X59437D01*
X59837Y134135D01*
X79228Y117267D02*
X79628Y117667D01*
X80028D01*
X79628Y118067D01*
X80028Y118467D01*
X79628D01*
X79228Y118867D01*
X78828Y118467D01*
X78428D01*
X78828Y118067D01*
X78428Y117667D01*
X78828D01*
X79228Y117267D01*
X77300Y109100D02*
X77700Y109500D01*
X78100D01*
X77700Y109900D01*
X78100Y110300D01*
X77700D01*
X77300Y110700D01*
X76900Y110300D01*
X76500D01*
X76900Y109900D01*
X76500Y109500D01*
X76900D01*
X77300Y109100D01*
X76100Y119400D02*
X76500Y119800D01*
X76900D01*
X76500Y120200D01*
X76900Y120600D01*
X76500D01*
X76100Y121000D01*
X75700Y120600D01*
X75300D01*
X75700Y120200D01*
X75300Y119800D01*
X75700D01*
X76100Y119400D01*
X65100Y97600D02*
X65500Y98000D01*
X65900D01*
X65500Y98400D01*
X65900Y98800D01*
X65500D01*
X65100Y99200D01*
X64700Y98800D01*
X64300D01*
X64700Y98400D01*
X64300Y98000D01*
X64700D01*
X65100Y97600D01*
X62400D02*
X62800Y98000D01*
X63200D01*
X62800Y98400D01*
X63200Y98800D01*
X62800D01*
X62400Y99200D01*
X62000Y98800D01*
X61600D01*
X62000Y98400D01*
X61600Y98000D01*
X62000D01*
X62400Y97600D01*
X66700Y89400D02*
X67100Y89800D01*
X67500D01*
X67100Y90200D01*
X67500Y90600D01*
X67100D01*
X66700Y91000D01*
X66300Y90600D01*
X65900D01*
X66300Y90200D01*
X65900Y89800D01*
X66300D01*
X66700Y89400D01*
X58000Y91400D02*
X58400Y91800D01*
X58800D01*
X58400Y92200D01*
X58800Y92600D01*
X58400D01*
X58000Y93000D01*
X57600Y92600D01*
X57200D01*
X57600Y92200D01*
X57200Y91800D01*
X57600D01*
X58000Y91400D01*
X27000Y90400D02*
X27400Y90800D01*
X27800D01*
X27400Y91200D01*
X27800Y91600D01*
X27400D01*
X27000Y92000D01*
X26600Y91600D01*
X26200D01*
X26600Y91200D01*
X26200Y90800D01*
X26600D01*
X27000Y90400D01*
X32457Y80700D02*
X32857Y81100D01*
X33257D01*
X32857Y81500D01*
X33257Y81900D01*
X32857D01*
X32457Y82300D01*
X32057Y81900D01*
X31657D01*
X32057Y81500D01*
X31657Y81100D01*
X32057D01*
X32457Y80700D01*
X11000Y81500D02*
X11400Y81900D01*
X11800D01*
X11400Y82300D01*
X11800Y82700D01*
X11400D01*
X11000Y83100D01*
X10600Y82700D01*
X10200D01*
X10600Y82300D01*
X10200Y81900D01*
X10600D01*
X11000Y81500D01*
X23550Y82072D02*
X23950Y82472D01*
X24350D01*
X23950Y82872D01*
X24350Y83272D01*
X23950D01*
X23550Y83672D01*
X23150Y83272D01*
X22750D01*
X23150Y82872D01*
X22750Y82472D01*
X23150D01*
X23550Y82072D01*
X58693Y33700D02*
X59093Y34100D01*
X59493D01*
X59093Y34500D01*
X59493Y34900D01*
X59093D01*
X58693Y35300D01*
X58293Y34900D01*
X57893D01*
X58293Y34500D01*
X57893Y34100D01*
X58293D01*
X58693Y33700D01*
X60400Y37100D02*
X60800Y37500D01*
X61200D01*
X60800Y37900D01*
X61200Y38300D01*
X60800D01*
X60400Y38700D01*
X60000Y38300D01*
X59600D01*
X60000Y37900D01*
X59600Y37500D01*
X60000D01*
X60400Y37100D01*
X58100Y39400D02*
X58500Y39800D01*
X58900D01*
X58500Y40200D01*
X58900Y40600D01*
X58500D01*
X58100Y41000D01*
X57700Y40600D01*
X57300D01*
X57700Y40200D01*
X57300Y39800D01*
X57700D01*
X58100Y39400D01*
X77846Y31200D02*
X78246Y31600D01*
X78646D01*
X78246Y32000D01*
X78646Y32400D01*
X78246D01*
X77846Y32800D01*
X77447Y32400D01*
X77047D01*
X77447Y32000D01*
X77047Y31600D01*
X77447D01*
X77846Y31200D01*
X64900Y36500D02*
X65300Y36900D01*
X65700D01*
X65300Y37300D01*
X65700Y37700D01*
X65300D01*
X64900Y38100D01*
X64500Y37700D01*
X64100D01*
X64500Y37300D01*
X64100Y36900D01*
X64500D01*
X64900Y36500D01*
X69100D02*
X69500Y36900D01*
X69900D01*
X69500Y37300D01*
X69900Y37700D01*
X69500D01*
X69100Y38100D01*
X68700Y37700D01*
X68300D01*
X68700Y37300D01*
X68300Y36900D01*
X68700D01*
X69100Y36500D01*
X80000Y39657D02*
X80400Y40057D01*
X80800D01*
X80400Y40457D01*
X80800Y40857D01*
X80400D01*
X80000Y41257D01*
X79600Y40857D01*
X79200D01*
X79600Y40457D01*
X79200Y40057D01*
X79600D01*
X80000Y39657D01*
X63300Y45900D02*
X63700Y46300D01*
X64100D01*
X63700Y46700D01*
X64100Y47100D01*
X63700D01*
X63300Y47500D01*
X62900Y47100D01*
X62500D01*
X62900Y46700D01*
X62500Y46300D01*
X62900D01*
X63300Y45900D01*
X80500Y65700D02*
X80900Y66100D01*
X81300D01*
X80900Y66500D01*
X81300Y66900D01*
X80900D01*
X80500Y67300D01*
X80100Y66900D01*
X79700D01*
X80100Y66500D01*
X79700Y66100D01*
X80100D01*
X80500Y65700D01*
X57900Y85900D02*
X58300Y86300D01*
X58700D01*
X58300Y86700D01*
X58700Y87100D01*
X58300D01*
X57900Y87500D01*
X57500Y87100D01*
X57100D01*
X57500Y86700D01*
X57100Y86300D01*
X57500D01*
X57900Y85900D01*
X36200Y80700D02*
X36600Y81100D01*
X37000D01*
X36600Y81500D01*
X37000Y81900D01*
X36600D01*
X36200Y82300D01*
X35800Y81900D01*
X35400D01*
X35800Y81500D01*
X35400Y81100D01*
X35800D01*
X36200Y80700D01*
X30900Y44600D02*
X31300Y45000D01*
X31700D01*
X31300Y45400D01*
X31700Y45800D01*
X31300D01*
X30900Y46200D01*
X30500Y45800D01*
X30100D01*
X30500Y45400D01*
X30100Y45000D01*
X30500D01*
X30900Y44600D01*
X31000Y41700D02*
X31400Y42100D01*
X31800D01*
X31400Y42500D01*
X31800Y42900D01*
X31400D01*
X31000Y43300D01*
X30600Y42900D01*
X30200D01*
X30600Y42500D01*
X30200Y42100D01*
X30600D01*
X31000Y41700D01*
X38271Y42700D02*
X38671Y43100D01*
X39071D01*
X38671Y43500D01*
X39071Y43900D01*
X38671D01*
X38271Y44300D01*
X37871Y43900D01*
X37471D01*
X37871Y43500D01*
X37471Y43100D01*
X37871D01*
X38271Y42700D01*
X24300Y14500D02*
X24700Y15300D01*
X24300Y16100D01*
X25100Y15700D01*
X25900Y16100D01*
X25500Y15300D01*
X25900Y14500D01*
X25100Y14900D01*
X24300Y14500D01*
X26700Y39929D02*
X27100Y40729D01*
X26700Y41529D01*
X27500Y41129D01*
X28300Y41529D01*
X27900Y40729D01*
X28300Y39929D01*
X27500Y40329D01*
X26700Y39929D01*
X6900Y25200D02*
X7300Y26000D01*
X6900Y26800D01*
X7700Y26400D01*
X8500Y26800D01*
X8100Y26000D01*
X8500Y25200D01*
X7700Y25600D01*
X6900Y25200D01*
X7100Y41700D02*
X7500Y42500D01*
X7100Y43300D01*
X7900Y42900D01*
X8700Y43300D01*
X8300Y42500D01*
X8700Y41700D01*
X7900Y42100D01*
X7100Y41700D01*
X8700Y4100D02*
X9100Y4500D01*
X9500D01*
X9100Y4900D01*
X9500Y5300D01*
X9100D01*
X8700Y5700D01*
X8300Y5300D01*
X7900D01*
X8300Y4900D01*
X7900Y4500D01*
X8300D01*
X8700Y4100D01*
Y7900D02*
X9100Y8300D01*
X9500D01*
X9100Y8700D01*
X9500Y9100D01*
X9100D01*
X8700Y9500D01*
X8300Y9100D01*
X7900D01*
X8300Y8700D01*
X7900Y8300D01*
X8300D01*
X8700Y7900D01*
X12200Y8000D02*
X12600Y8400D01*
X13000D01*
X12600Y8800D01*
X13000Y9200D01*
X12600D01*
X12200Y9600D01*
X11800Y9200D01*
X11400D01*
X11800Y8800D01*
X11400Y8400D01*
X11800D01*
X12200Y8000D01*
X12000Y17100D02*
X12400Y17500D01*
X12800D01*
X12400Y17900D01*
X12800Y18300D01*
X12400D01*
X12000Y18700D01*
X11600Y18300D01*
X11200D01*
X11600Y17900D01*
X11200Y17500D01*
X11600D01*
X12000Y17100D01*
X78200Y59800D02*
X78600Y60200D01*
X79000D01*
X78600Y60600D01*
X79000Y61000D01*
X78600D01*
X78200Y61400D01*
X77800Y61000D01*
X77400D01*
X77800Y60600D01*
X77400Y60200D01*
X77800D01*
X78200Y59800D01*
X73700D02*
X74100Y60200D01*
X74500D01*
X74100Y60600D01*
X74500Y61000D01*
X74100D01*
X73700Y61400D01*
X73300Y61000D01*
X72900D01*
X73300Y60600D01*
X72900Y60200D01*
X73300D01*
X73700Y59800D01*
X90000Y8400D02*
X90400Y8800D01*
X90800D01*
X90400Y9200D01*
X90800Y9600D01*
X90400D01*
X90000Y10000D01*
X89600Y9600D01*
X89200D01*
X89600Y9200D01*
X89200Y8800D01*
X89600D01*
X90000Y8400D01*
X76500D02*
X76900Y8800D01*
X77300D01*
X76900Y9200D01*
X77300Y9600D01*
X76900D01*
X76500Y10000D01*
X76100Y9600D01*
X75700D01*
X76100Y9200D01*
X75700Y8800D01*
X76100D01*
X76500Y8400D01*
X70700Y31300D02*
X71100Y31700D01*
X71500D01*
X71100Y32100D01*
X71500Y32500D01*
X71100D01*
X70700Y32900D01*
X70300Y32500D01*
X69900D01*
X70300Y32100D01*
X69900Y31700D01*
X70300D01*
X70700Y31300D01*
X17000Y42700D02*
X17400Y43100D01*
X17800D01*
X17400Y43500D01*
X17800Y43900D01*
X17400D01*
X17000Y44300D01*
X16600Y43900D01*
X16200D01*
X16600Y43500D01*
X16200Y43100D01*
X16600D01*
X17000Y42700D01*
X80400Y26600D02*
X80800Y27000D01*
X81200D01*
X80800Y27400D01*
X81200Y27800D01*
X80800D01*
X80400Y28200D01*
X80000Y27800D01*
X79600D01*
X80000Y27400D01*
X79600Y27000D01*
X80000D01*
X80400Y26600D01*
X77600Y36400D02*
X78000Y36800D01*
X78400D01*
X78000Y37200D01*
X78400Y37600D01*
X78000D01*
X77600Y38000D01*
X77200Y37600D01*
X76800D01*
X77200Y37200D01*
X76800Y36800D01*
X77200D01*
X77600Y36400D01*
X73100D02*
X73500Y36800D01*
X73900D01*
X73500Y37200D01*
X73900Y37600D01*
X73500D01*
X73100Y38000D01*
X72700Y37600D01*
X72300D01*
X72700Y37200D01*
X72300Y36800D01*
X72700D01*
X73100Y36400D01*
X49000Y39400D02*
X49400Y39800D01*
X49800D01*
X49400Y40200D01*
X49800Y40600D01*
X49400D01*
X49000Y41000D01*
X48600Y40600D01*
X48200D01*
X48600Y40200D01*
X48200Y39800D01*
X48600D01*
X49000Y39400D01*
X5000Y3928D02*
X5400Y4328D01*
X5800D01*
X5400Y4728D01*
X5800Y5128D01*
X5400D01*
X5000Y5528D01*
X4600Y5128D01*
X4200D01*
X4600Y4728D01*
X4200Y4328D01*
X4600D01*
X5000Y3928D01*
X12182Y4300D02*
X12582Y4700D01*
X12982D01*
X12582Y5100D01*
X12982Y5500D01*
X12582D01*
X12182Y5900D01*
X11782Y5500D01*
X11382D01*
X11782Y5100D01*
X11382Y4700D01*
X11782D01*
X12182Y4300D01*
X12595Y12007D02*
X12994Y12407D01*
X13395D01*
X12994Y12807D01*
X13395Y13207D01*
X12994D01*
X12595Y13607D01*
X12195Y13207D01*
X11795D01*
X12195Y12807D01*
X11795Y12407D01*
X12195D01*
X12595Y12007D01*
X5000Y19500D02*
X5400Y19900D01*
X5800D01*
X5400Y20300D01*
X5800Y20700D01*
X5400D01*
X5000Y21100D01*
X4600Y20700D01*
X4200D01*
X4600Y20300D01*
X4200Y19900D01*
X4600D01*
X5000Y19500D01*
X80400Y90900D02*
X80800Y91300D01*
X81200D01*
X80800Y91700D01*
X81200Y92100D01*
X80800D01*
X80400Y92500D01*
X80000Y92100D01*
X79600D01*
X80000Y91700D01*
X79600Y91300D01*
X80000D01*
X80400Y90900D01*
X79200Y134100D02*
X79600Y134500D01*
X80000D01*
X79600Y134900D01*
X80000Y135300D01*
X79600D01*
X79200Y135700D01*
X78800Y135300D01*
X78400D01*
X78800Y134900D01*
X78400Y134500D01*
X78800D01*
X79200Y134100D01*
X30100Y96400D02*
X30500Y96800D01*
X30900D01*
X30500Y97200D01*
X30900Y97600D01*
X30500D01*
X30100Y98000D01*
X29700Y97600D01*
X29300D01*
X29700Y97200D01*
X29300Y96800D01*
X29700D01*
X30100Y96400D01*
X22700Y132800D02*
X23100Y133200D01*
X23500D01*
X23100Y133600D01*
X23500Y134000D01*
X23100D01*
X22700Y134400D01*
X22300Y134000D01*
X21900D01*
X22300Y133600D01*
X21900Y133200D01*
X22300D01*
X22700Y132800D01*
X21100Y131200D02*
X21500Y131600D01*
X21900D01*
X21500Y132000D01*
X21900Y132400D01*
X21500D01*
X21100Y132800D01*
X20700Y132400D01*
X20300D01*
X20700Y132000D01*
X20300Y131600D01*
X20700D01*
X21100Y131200D01*
X24000Y131100D02*
X24400Y131500D01*
X24800D01*
X24400Y131900D01*
X24800Y132300D01*
X24400D01*
X24000Y132700D01*
X23600Y132300D01*
X23200D01*
X23600Y131900D01*
X23200Y131500D01*
X23600D01*
X24000Y131100D01*
X23900Y134200D02*
X24300Y134600D01*
X24700D01*
X24300Y135000D01*
X24700Y135400D01*
X24300D01*
X23900Y135800D01*
X23500Y135400D01*
X23100D01*
X23500Y135000D01*
X23100Y134600D01*
X23500D01*
X23900Y134200D01*
X21200Y134100D02*
X21600Y134500D01*
X22000D01*
X21600Y134900D01*
X22000Y135300D01*
X21600D01*
X21200Y135700D01*
X20800Y135300D01*
X20400D01*
X20800Y134900D01*
X20400Y134500D01*
X20800D01*
X21200Y134100D01*
X62900Y130200D02*
X63300Y130600D01*
X63700D01*
X63300Y131000D01*
X63700Y131400D01*
X63300D01*
X62900Y131800D01*
X62500Y131400D01*
X62100D01*
X62500Y131000D01*
X62100Y130600D01*
X62500D01*
X62900Y130200D01*
X58929Y127510D02*
X59329Y127910D01*
X59729D01*
X59329Y128310D01*
X59729Y128710D01*
X59329D01*
X58929Y129110D01*
X58529Y128710D01*
X58129D01*
X58529Y128310D01*
X58129Y127910D01*
X58529D01*
X58929Y127510D01*
X82900Y130300D02*
X83300Y130700D01*
X83700D01*
X83300Y131100D01*
X83700Y131500D01*
X83300D01*
X82900Y131900D01*
X82500Y131500D01*
X82100D01*
X82500Y131100D01*
X82100Y130700D01*
X82500D01*
X82900Y130300D01*
X67200Y111300D02*
X67600Y111700D01*
X68000D01*
X67600Y112100D01*
X68000Y112500D01*
X67600D01*
X67200Y112900D01*
X66800Y112500D01*
X66400D01*
X66800Y112100D01*
X66400Y111700D01*
X66800D01*
X67200Y111300D01*
X68522Y130100D02*
X68922Y130500D01*
X69322D01*
X68922Y130900D01*
X69322Y131300D01*
X68922D01*
X68522Y131700D01*
X68122Y131300D01*
X67722D01*
X68122Y130900D01*
X67722Y130500D01*
X68122D01*
X68522Y130100D01*
X68522Y132176D02*
X68922Y132576D01*
X69322D01*
X68922Y132976D01*
X69322Y133376D01*
X68922D01*
X68522Y133776D01*
X68122Y133376D01*
X67722D01*
X68122Y132976D01*
X67722Y132576D01*
X68122D01*
X68522Y132176D01*
Y134000D02*
X68922Y134400D01*
X69322D01*
X68922Y134800D01*
X69322Y135200D01*
X68922D01*
X68522Y135600D01*
X68122Y135200D01*
X67722D01*
X68122Y134800D01*
X67722Y134400D01*
X68122D01*
X68522Y134000D01*
X37000Y123967D02*
X37400Y124367D01*
X37800D01*
X37400Y124767D01*
X37800Y125167D01*
X37400D01*
X37000Y125567D01*
X36600Y125167D01*
X36200D01*
X36600Y124767D01*
X36200Y124367D01*
X36600D01*
X37000Y123967D01*
Y121211D02*
X37400Y121611D01*
X37800D01*
X37400Y122011D01*
X37800Y122411D01*
X37400D01*
X37000Y122811D01*
X36600Y122411D01*
X36200D01*
X36600Y122011D01*
X36200Y121611D01*
X36600D01*
X37000Y121211D01*
Y118061D02*
X37400Y118461D01*
X37800D01*
X37400Y118861D01*
X37800Y119261D01*
X37400D01*
X37000Y119661D01*
X36600Y119261D01*
X36200D01*
X36600Y118861D01*
X36200Y118461D01*
X36600D01*
X37000Y118061D01*
Y115305D02*
X37400Y115706D01*
X37800D01*
X37400Y116105D01*
X37800Y116506D01*
X37400D01*
X37000Y116905D01*
X36600Y116506D01*
X36200D01*
X36600Y116105D01*
X36200Y115706D01*
X36600D01*
X37000Y115305D01*
Y112156D02*
X37400Y112556D01*
X37800D01*
X37400Y112956D01*
X37800Y113356D01*
X37400D01*
X37000Y113756D01*
X36600Y113356D01*
X36200D01*
X36600Y112956D01*
X36200Y112556D01*
X36600D01*
X37000Y112156D01*
Y109400D02*
X37400Y109800D01*
X37800D01*
X37400Y110200D01*
X37800Y110600D01*
X37400D01*
X37000Y111000D01*
X36600Y110600D01*
X36200D01*
X36600Y110200D01*
X36200Y109800D01*
X36600D01*
X37000Y109400D01*
X44756Y127510D02*
X45156Y127910D01*
X45556D01*
X45156Y128310D01*
X45556Y128710D01*
X45156D01*
X44756Y129110D01*
X44356Y128710D01*
X43956D01*
X44356Y128310D01*
X43956Y127910D01*
X44356D01*
X44756Y127510D01*
X47512D02*
X47912Y127910D01*
X48312D01*
X47912Y128310D01*
X48312Y128710D01*
X47912D01*
X47512Y129110D01*
X47112Y128710D01*
X46712D01*
X47112Y128310D01*
X46712Y127910D01*
X47112D01*
X47512Y127510D01*
X39244D02*
X39644Y127910D01*
X40044D01*
X39644Y128310D01*
X40044Y128710D01*
X39644D01*
X39244Y129110D01*
X38844Y128710D01*
X38444D01*
X38844Y128310D01*
X38444Y127910D01*
X38844D01*
X39244Y127510D01*
X42000D02*
X42400Y127910D01*
X42800D01*
X42400Y128310D01*
X42800Y128710D01*
X42400D01*
X42000Y129110D01*
X41600Y128710D01*
X41200D01*
X41600Y128310D01*
X41200Y127910D01*
X41600D01*
X42000Y127510D01*
X56173D02*
X56573Y127910D01*
X56973D01*
X56573Y128310D01*
X56973Y128710D01*
X56573D01*
X56173Y129110D01*
X55773Y128710D01*
X55373D01*
X55773Y128310D01*
X55373Y127910D01*
X55773D01*
X56173Y127510D01*
X53417D02*
X53817Y127910D01*
X54217D01*
X53817Y128310D01*
X54217Y128710D01*
X53817D01*
X53417Y129110D01*
X53017Y128710D01*
X52617D01*
X53017Y128310D01*
X52617Y127910D01*
X53017D01*
X53417Y127510D01*
X42100Y111636D02*
X42500Y112036D01*
X42900D01*
X42500Y112436D01*
X42900Y112836D01*
X42500D01*
X42100Y113236D01*
X41700Y112836D01*
X41300D01*
X41700Y112436D01*
X41300Y112036D01*
X41700D01*
X42100Y111636D01*
X50600D02*
X51000Y112036D01*
X51400D01*
X51000Y112436D01*
X51400Y112836D01*
X51000D01*
X50600Y113236D01*
X50200Y112836D01*
X49800D01*
X50200Y112436D01*
X49800Y112036D01*
X50200D01*
X50600Y111636D01*
X8575Y78300D02*
X8975Y78700D01*
X9375D01*
X8975Y79100D01*
X9375Y79500D01*
X8975D01*
X8575Y79900D01*
X8175Y79500D01*
X7775D01*
X8175Y79100D01*
X7775Y78700D01*
X8175D01*
X8575Y78300D01*
Y75213D02*
X8975Y75612D01*
X9375D01*
X8975Y76012D01*
X9375Y76412D01*
X8975D01*
X8575Y76812D01*
X8175Y76412D01*
X7775D01*
X8175Y76012D01*
X7775Y75612D01*
X8175D01*
X8575Y75213D01*
Y72125D02*
X8975Y72525D01*
X9375D01*
X8975Y72925D01*
X9375Y73325D01*
X8975D01*
X8575Y73725D01*
X8175Y73325D01*
X7775D01*
X8175Y72925D01*
X7775Y72525D01*
X8175D01*
X8575Y72125D01*
X84000Y82700D02*
X84400Y83100D01*
X84800D01*
X84400Y83500D01*
X84800Y83900D01*
X84400D01*
X84000Y84300D01*
X83600Y83900D01*
X83200D01*
X83600Y83500D01*
X83200Y83100D01*
X83600D01*
X84000Y82700D01*
X80500Y71275D02*
X80900Y71675D01*
X81300D01*
X80900Y72075D01*
X81300Y72475D01*
X80900D01*
X80500Y72875D01*
X80100Y72475D01*
X79700D01*
X80100Y72075D01*
X79700Y71675D01*
X80100D01*
X80500Y71275D01*
X76348D02*
X76748Y71675D01*
X77148D01*
X76748Y72075D01*
X77148Y72475D01*
X76748D01*
X76348Y72875D01*
X75948Y72475D01*
X75548D01*
X75948Y72075D01*
X75548Y71675D01*
X75948D01*
X76348Y71275D01*
X22900Y51800D02*
X23300Y52200D01*
X23700D01*
X23300Y52600D01*
X23700Y53000D01*
X23300D01*
X22900Y53400D01*
X22500Y53000D01*
X22100D01*
X22500Y52600D01*
X22100Y52200D01*
X22500D01*
X22900Y51800D01*
X88000Y26700D02*
X88400Y27100D01*
X88800D01*
X88400Y27500D01*
X88800Y27900D01*
X88400D01*
X88000Y28300D01*
X87600Y27900D01*
X87200D01*
X87600Y27500D01*
X87200Y27100D01*
X87600D01*
X88000Y26700D01*
X74700Y31200D02*
X75100Y31600D01*
X75500D01*
X75100Y32000D01*
X75500Y32400D01*
X75100D01*
X74700Y32800D01*
X74300Y32400D01*
X73900D01*
X74300Y32000D01*
X73900Y31600D01*
X74300D01*
X74700Y31200D01*
X3729Y33500D02*
X4129Y33900D01*
X4529D01*
X4129Y34300D01*
X4529Y34700D01*
X4129D01*
X3729Y35100D01*
X3329Y34700D01*
X2929D01*
X3329Y34300D01*
X2929Y33900D01*
X3329D01*
X3729Y33500D01*
X6900Y14500D02*
X7300Y15300D01*
X6900Y16100D01*
X7700Y15700D01*
X8500Y16100D01*
X8100Y15300D01*
X8500Y14500D01*
X7700Y14900D01*
X6900Y14500D01*
X46500Y23260D02*
X46900Y23660D01*
X47300D01*
X46900Y24060D01*
X47300Y24460D01*
X46900D01*
X46500Y24860D01*
X46100Y24460D01*
X45700D01*
X46100Y24060D01*
X45700Y23660D01*
X46100D01*
X46500Y23260D01*
X50300Y23200D02*
X50700Y23600D01*
X51100D01*
X50700Y24000D01*
X51100Y24400D01*
X50700D01*
X50300Y24800D01*
X49900Y24400D01*
X49500D01*
X49900Y24000D01*
X49500Y23600D01*
X49900D01*
X50300Y23200D01*
D141*
X33150Y24890D02*
G03*
X33150Y24890I-800J0D01*
G01*
X67206Y24890D02*
G03*
X67206Y24890I-800J0D01*
G01*
M02*
